<?xml version="1.0" standalone="no"?>
<!DOCTYPE svg PUBLIC "-//W3C//DTD SVG 20010904//EN"
 "http://www.w3.org/TR/2001/REC-SVG-20010904/DTD/svg10.dtd">
<svg version="1.0" xmlns="http://www.w3.org/2000/svg"
 width="700.000000pt" height="700.000000pt" viewBox="0 0 700.000000 700.000000"
 preserveAspectRatio="xMidYMid meet">
<metadata>
Created by potrace 1.11, written by Peter Selinger 2001-2013
</metadata>
<g transform="translate(0.000000,700.000000) scale(0.100000,-0.100000)"
fill="#000000" stroke="none">
<path d="M5090 6983 c-95 -4 -361 -30 -390 -38 -8 -3 -33 -7 -55 -10 -22 -4
-47 -8 -55 -10 -8 -2 -35 -7 -60 -10 -25 -3 -53 -8 -62 -11 -9 -3 -25 -7 -35
-9 -467 -99 -1032 -352 -1481 -662 l-93 -65 -107 21 c-144 29 -138 28 -212 36
-127 15 -373 20 -465 10 -92 -9 -161 -17 -175 -20 -26 -5 -134 -26 -159 -31
-50 -10 -264 -86 -329 -116 -167 -78 -257 -172 -306 -320 -20 -60 -24 -90 -22
-168 6 -199 27 -235 291 -501 l186 -186 -124 -184 c-251 -376 -436 -743 -580
-1149 -59 -166 -76 -247 -71 -338 7 -113 26 -180 80 -280 20 -38 31 -68 27
-76 -5 -7 -39 -47 -76 -88 -323 -356 -586 -821 -711 -1255 -28 -98 -64 -264
-72 -333 -3 -24 -7 -47 -9 -50 -24 -39 -25 -648 -1 -688 2 -4 7 -32 10 -62 13
-113 56 -267 81 -290 26 -25 120 -51 280 -80 97 -17 148 -19 440 -16 182 2
341 6 355 10 14 3 41 9 60 12 76 12 217 46 253 61 82 35 88 141 11 178 -38 18
-65 16 -159 -8 -53 -14 -140 -29 -300 -53 -108 -16 -499 -8 -590 12 -11 2 -31
6 -45 8 -57 10 -145 29 -149 32 -4 3 -30 124 -36 169 -2 17 -9 65 -15 109 -22
150 -15 451 14 616 3 19 8 52 11 74 3 21 7 42 10 46 2 3 7 22 10 40 3 19 19
83 36 142 101 365 291 725 559 1059 87 109 176 209 186 209 3 0 107 -102 231
-226 l225 -226 -30 -31 c-126 -133 -210 -238 -295 -368 -125 -191 -216 -401
-253 -584 -13 -61 -18 -131 -17 -223 0 -103 1 -104 32 -135 l31 -32 118 -2
c105 -1 150 3 247 21 261 50 602 248 884 514 l65 61 224 -225 c139 -140 222
-230 219 -238 -6 -14 -163 -150 -273 -237 -145 -114 -355 -242 -546 -334 -124
-59 -158 -89 -158 -136 0 -64 57 -115 115 -105 58 11 326 150 490 255 130 83
382 276 451 345 11 12 34 34 51 49 l30 28 64 -35 c107 -58 181 -78 297 -81
117 -3 172 10 387 90 410 152 773 341 1151 601 l121 83 107 -108 c197 -200
293 -289 337 -312 169 -89 369 -83 524 16 97 61 152 132 213 272 37 82 95 250
106 304 3 13 12 56 20 94 38 180 50 403 33 615 -11 136 -15 163 -38 280 -12
58 -22 112 -24 120 -1 8 21 49 50 90 243 350 458 780 580 1160 61 192 131 493
150 650 3 25 7 63 10 85 14 117 20 230 19 415 0 179 -10 405 -19 420 -2 3 -6
30 -9 60 -3 30 -8 64 -10 75 -2 11 -7 43 -11 70 -5 28 -9 52 -10 55 -1 3 -7
32 -14 65 -40 189 -129 466 -178 557 -36 67 -124 156 -194 195 -154 88 -653
217 -919 238 -19 1 -75 6 -123 10 -91 8 -319 12 -417 8z m475 -217 c74 -7 123
-14 195 -26 30 -5 73 -12 95 -16 133 -19 502 -126 584 -169 41 -21 108 -90
129 -132 18 -37 75 -197 105 -298 15 -49 39 -154 57 -245 5 -25 12 -56 14 -69
3 -13 8 -49 12 -80 3 -31 8 -59 10 -62 2 -4 6 -42 9 -85 3 -44 8 -92 11 -109
7 -35 7 -461 0 -490 -2 -11 -7 -54 -10 -95 -11 -123 -14 -140 -35 -255 -61
-334 -142 -595 -279 -900 -47 -105 -154 -316 -159 -312 -23 20 -2863 2863
-2863 2867 0 7 278 147 375 188 105 46 309 120 386 142 38 10 73 21 78 24 11
7 305 75 348 81 18 2 59 9 91 15 33 6 79 12 103 14 130 12 194 19 197 21 6 5
486 -3 547 -9z m-838 -2059 l1472 -1472 -92 -137 c-93 -139 -311 -424 -389
-510 -24 -26 -65 -73 -92 -105 -69 -80 -351 -361 -464 -461 -108 -96 -315
-263 -399 -321 -32 -22 -78 -55 -103 -73 -64 -45 -289 -188 -297 -188 -3 0
-14 -6 -22 -14 -15 -13 -161 -94 -269 -149 l-43 -21 -1380 1380 -1380 1380 71
135 c182 340 461 740 710 1014 174 191 510 512 666 635 228 180 509 380 533
380 3 0 668 -663 1478 -1473z m-2237 1317 c36 -4 68 -9 73 -10 4 -1 21 -2 37
-3 17 0 30 -4 30 -8 0 -5 -28 -30 -62 -58 -276 -222 -643 -592 -875 -885 -2
-2 -82 74 -179 170 -204 205 -227 240 -228 353 -1 131 65 228 197 290 173 82
371 135 582 156 90 9 341 6 425 -5z m18 -3537 l1324 -1324 -124 -50 c-230 -95
-361 -134 -438 -134 -38 0 -89 5 -112 11 -118 32 -110 24 -1122 1036 -1039
1039 -1010 1008 -1036 1141 -11 57 -10 136 3 188 21 83 164 455 176 455 3 0
602 -595 1329 -1323z m3529 5 c10 -94 10 -383 0 -474 -26 -244 -124 -547 -208
-642 -66 -76 -157 -113 -257 -103 -94 8 -133 35 -324 225 l-178 176 38 32 c20
18 87 74 147 125 119 101 447 424 535 528 30 35 63 73 74 85 10 12 48 57 84
100 65 77 66 78 73 52 4 -15 11 -62 16 -104z m-4146 -611 c132 -131 239 -242
239 -247 0 -11 -94 -97 -200 -182 -204 -165 -410 -273 -618 -327 -59 -15 -94
-21 -170 -29 l-33 -4 5 62 c17 223 145 506 335 746 20 24 43 53 51 63 28 35
142 157 147 157 3 0 113 -108 244 -239z"/>
<path d="M4945 6285 c-16 -9 -60 -48 -97 -87 -60 -62 -68 -75 -68 -109 0 -49
40 -96 87 -103 37 -5 80 20 141 82 66 68 82 93 82 131 0 70 -83 119 -145 86z"/>
<path d="M5323 5732 c-27 -4 -73 -49 -74 -73 -1 -11 -2 -29 -3 -41 -3 -43 16
-122 40 -170 64 -126 193 -211 329 -217 90 -3 148 53 129 126 -12 46 -46 71
-108 78 -106 10 -173 73 -185 173 -6 47 -31 112 -44 112 -1 0 -16 4 -32 8 -17
4 -40 6 -52 4z"/>
<path d="M6181 5073 c-13 -3 -60 -41 -103 -84 -71 -72 -78 -83 -78 -119 0 -67
50 -107 126 -102 20 2 135 106 167 153 51 72 -21 170 -112 152z"/>
<path d="M3823 4858 c-33 -16 -57 -69 -49 -111 9 -46 43 -73 112 -87 345 -72
619 -309 745 -645 22 -59 24 -66 44 -181 15 -80 14 -264 0 -344 -54 -287 -232
-541 -482 -688 -53 -32 -211 -97 -253 -106 -115 -23 -149 -27 -226 -28 -87 -1
-209 8 -224 17 -4 3 -24 7 -45 11 -86 13 -273 101 -360 168 -253 196 -392 468
-399 780 -1 66 3 153 10 195 69 399 347 702 743 810 80 22 96 32 115 70 22 43
5 98 -40 127 -32 22 -95 14 -211 -25 -431 -145 -726 -492 -810 -951 -13 -73
-9 -348 6 -425 99 -499 472 -867 971 -962 48 -9 195 -20 230 -17 19 1 71 5
114 9 457 36 856 351 1012 796 73 210 87 451 38 669 -102 456 -465 821 -911
914 -80 16 -101 17 -130 4z"/>
<path d="M3598 4405 c-2 -3 -22 -7 -44 -10 -162 -20 -346 -132 -458 -279 -221
-290 -183 -733 84 -980 392 -362 1029 -207 1202 294 10 30 21 71 24 90 3 19 7
42 10 50 2 9 4 47 5 85 4 345 -207 632 -533 725 -67 20 -277 38 -290 25z m169
-209 c137 -15 280 -104 360 -224 58 -88 85 -180 86 -292 0 -107 -2 -122 -32
-202 -59 -155 -191 -273 -356 -319 -76 -21 -217 -17 -300 9 -313 95 -460 455
-309 754 77 151 238 261 404 275 36 3 67 7 68 9 2 1 9 1 15 -1 7 -2 35 -6 64
-9z"/>
</g>
</svg>
