<svg height="512pt" viewBox="-60 0 512 512" width="512pt" xmlns="http://www.w3.org/2000/svg"><path d="m88.097656 387.023438v53.40625c0 11.320312 9.214844 20.535156 20.535156 20.535156h174.789063c11.320313 0 20.535156-9.214844 20.535156-20.535156v-53.40625c0-11.324219-9.214843-20.535157-20.535156-20.535157h-174.789063c-11.320312 0-20.535156 9.210938-20.535156 20.535157zm200.855469 0v53.40625c0 3.050781-2.480469 5.535156-5.53125 5.535156h-174.789063c-3.050781 0-5.535156-2.484375-5.535156-5.535156v-53.40625c0-3.054688 2.484375-5.535157 5.535156-5.535157h174.789063c3.050781 0 5.53125 2.484375 5.53125 5.535157zm0 0"/><path d="m132.546875 423.902344c4.144531 0 7.5-3.355469 7.5-7.5v-11.488282c0-4.140624-3.355469-7.5-7.5-7.5-4.140625 0-7.5 3.359376-7.5 7.5v11.488282c0 4.144531 3.359375 7.5 7.5 7.5zm0 0"/><path d="m259.507812 423.902344c4.140626 0 7.5-3.355469 7.5-7.5v-11.488282c0-4.140624-3.359374-7.5-7.5-7.5-4.144531 0-7.5 3.359376-7.5 7.5v11.488282c0 4.144531 3.355469 7.5 7.5 7.5zm0 0"/><path d="m196.027344 430.035156c8.269531 0 16.039062-3.460937 21.3125-9.496094 2.726562-3.117187 2.410156-7.855468-.710938-10.582031-3.117187-2.726562-7.855468-2.40625-10.582031.710938-2.425781 2.773437-6.078125 4.367187-10.019531 4.367187s-7.59375-1.589844-10.023438-4.367187c-2.726562-3.117188-7.464844-3.4375-10.582031-.710938-3.117187 2.726563-3.4375 7.464844-.710937 10.582031 5.277343 6.035157 13.046874 9.496094 21.316406 9.496094zm0 0"/><path d="m15.894531 327.59375v176.90625c0 4.140625 3.359375 7.5 7.5 7.5h345.261719c4.144531 0 7.5-3.359375 7.5-7.5v-176.90625c9.234375-3.132812 15.898438-11.875 15.898438-22.152344v-39.257812c0-12.902344-10.496094-23.394532-23.398438-23.394532h-147.980469v-42.386718c12.269531-3.886719 23.519531-10.667969 32.882813-20.03125 14.199218-14.199219 22.488281-32.730469 23.667968-52.605469 7.046876-1.796875 12.285157-8.179687 12.285157-15.78125v-23.878906c0-7.730469-5.417969-14.210938-12.648438-15.875-2.078125-18.644531-10.464843-35.894531-24.054687-49.140625-15.277344-14.890625-35.445313-23.089844-56.78125-23.089844-12.8125 0-25.101563 2.914062-36.523438 8.664062-3.699218 1.863282-5.191406 6.371094-3.328125 10.070313 1.863281 3.703125 6.371094 5.191406 10.070313 3.328125 9.3125-4.6875 19.332031-7.0625 29.78125-7.0625 17.402344 0 33.851562 6.6875 46.308594 18.832031 10.574218 10.304688 17.300781 23.574219 19.367187 37.972657h-131.34375c1.800781-12.316407 7.058594-24 15.191406-33.519532 2.6875-3.148437 2.316407-7.882812-.832031-10.570312-3.152344-2.691406-7.886719-2.320313-10.574219.832031-10.539062 12.335937-17.144531 27.640625-18.960937 43.6875-7.230469 1.667969-12.640625 8.144531-12.640625 15.871094v23.875c0 7.601562 5.234375 13.988281 12.285156 15.78125 2.046875 34.113281 25.199219 62.625 56.550781 72.613281v42.410156h-147.984375c-12.898437 0-23.394531 10.496094-23.394531 23.398438v39.253906c0 10.277344 6.664062 19.023438 15.894531 22.15625zm257.316407-214.308594h-154.367188c-.714844 0-1.300781-.585937-1.300781-1.300781v-23.878906c0-.71875.585937-1.300781 1.300781-1.300781h154.367188c.714843 0 1.300781.582031 1.300781 1.300781v23.875c0 .71875-.582031 1.304687-1.300781 1.304687zm-143.324219 15h132.28125c-1.265625 15.671875-7.976563 30.238282-19.21875 41.480469-16.148438 16.148437-40.066407 23.035156-62.335938 17.617187-.035156-.007812-.074219-.011718-.109375-.019531-27.417968-6.597656-48.265625-30.261719-50.617187-59.078125zm56.492187 75.339844c.1875.023438.378906.039062.570313.058594 6.023437.675781 12.101562.652344 18.121093.003906.203126-.019531.40625-.039062.605469-.0625v39.164062h-19.296875zm-171.378906 62.558594c0-4.628906 3.765625-8.394532 8.394531-8.394532h345.265625c4.628906 0 8.394532 3.765626 8.394532 8.394532v39.257812c0 4.628906-3.765626 8.394532-8.394532 8.394532h-83.6875c-4.046875 0-7.5 3.449218-7.5 7.5 0 4.023437 3.480469 7.5 7.5 7.5h76.1875v168.164062h-330.265625v-168.164062h224.078125c4.046875 0 7.5-3.449219 7.5-7.5 0-4.039063-3.457031-7.5-7.5-7.5h-231.578125c-4.628906 0-8.394531-3.769532-8.394531-8.398438zm0 0"/></svg>