<svg height="511pt" viewBox="0 -1 511.99993 511" width="511pt" xmlns="http://www.w3.org/2000/svg"><path d="m313.097656 106.804688c4.144532 0 7.5-3.359376 7.5-7.5v-10.054688c0-4.144531-3.355468-7.5-7.5-7.5-4.140625 0-7.5 3.355469-7.5 7.5v10.054688c0 4.140624 3.359375 7.5 7.5 7.5zm0 0"/><path d="m424.210938 106.804688c4.140624 0 7.5-3.359376 7.5-7.5v-10.054688c0-4.144531-3.359376-7.5-7.5-7.5-4.144532 0-7.503907 3.355469-7.503907 7.5v10.054688c0 4.140624 3.359375 7.5 7.503907 7.5zm0 0"/><path d="m368.65625 112.171875c7.507812 0 14.5625-3.148437 19.355469-8.632813 2.726562-3.117187 2.410156-7.855468-.710938-10.582031-3.117187-2.726562-7.855469-2.410156-10.582031.710938-1.945312 2.226562-4.886719 3.503906-8.0625 3.503906-3.183594 0-6.121094-1.277344-8.066406-3.503906-2.726563-3.121094-7.464844-3.4375-10.585938-.710938-3.117187 2.726563-3.433594 7.464844-.707031 10.585938 4.792969 5.484375 11.847656 8.628906 19.359375 8.628906zm0 0"/><path d="m7.476562 509.117188h497.035157c6.128906 0 9.667969-7.113282 6.003906-12l-33.589844-44.796876c13.261719-12.25 21.589844-29.773437 21.589844-49.210937 0-36.34375-29.085937-66.023437-65.203125-66.980469-12.558594-30.441406-42.257812-50.527344-75.558594-50.527344-1.910156 0-3.804687.085938-5.6875.214844l-54.203125-72.289062c-5.152343-7.082032-11.980469-12.632813-19.714843-16.300782v-39.339843c10.460937-6.503907 21.59375-9.6875 33.921874-9.6875 17.59375 0 35.335938 6.179687 54.117188 12.71875 19.136719 6.664062 38.921875 13.550781 59.054688 13.550781 15.058593 0 28.585937-3.800781 41.351562-11.628906 4.667969-2.863282 7.570312-8.027344 7.570312-13.476563 0 0 0-94.816406 0-95.011719 0-11.261718-12.234374-18.988281-22.417968-14.296874-8.277344 3.808593-16.949219 5.660156-26.507813 5.664062-17.589843 0-35.335937-6.179688-54.117187-12.71875-19.136719-6.664062-38.921875-13.550781-59.050782-13.550781-12.152343 0-23.351562 2.5-33.921874 7.582031v-10.460938c0-8.863281-7.210938-16.070312-16.070313-16.070312h-12.164063c-8.859374 0-16.070312 7.207031-16.070312 16.070312v48.832032c0 4.140625 3.359375 7.5 7.503906 7.5 4.140625 0 7.5-3.359375 7.5-7.5v-48.832032c0-.589843.476563-1.070312 1.066406-1.070312h12.164063c.589844 0 1.070313.480469 1.070313 1.070312v176.132813c-.007813-.375-6.460938-.496094-7.070313-.496094-.027344 0-.054687 0-.082031 0s-.054688 0-.082032 0c-2.359374 0-4.730468.171875-7.066406.5v-97.453125c0-4.140625-3.359375-7.5-7.503906-7.5-4.140625 0-7.5 3.359375-7.5 7.5v101.976563c-7.734375 3.667969-14.5625 9.214843-19.714844 16.300781l-3.035156 4.046875c-8.988281-8.066406-20.855469-12.980469-33.855469-12.980469-3.867187 0-7.6875.429688-11.410156 1.289063-10.628906-16.671875-28.867187-26.792969-48.96875-26.792969-15.21875 0-29.609375 5.84375-40.515625 16.457031-8.457031 8.226563-14.113281 18.628907-16.421875 29.972657-2.828125-.617188-5.734375-.925782-8.691406-.925782-22.472657 0-40.753907 18.28125-40.753907 40.753906 0 22.46875 18.28125 40.75 40.753907 40.75h93.480469l-74.371094 99.179688c-2.484375 3.3125-1.8125 8.015625 1.503906 10.5 3.3125 2.484375 8.015625 1.8125 10.5-1.5l81.117188-108.179688h13.777343c38.339844 0 63.355469-43.5625 43.675781-76.617187l5.25-7c.023438-.03125.046876-.0625.070313-.09375 4.59375-6.339844 11.074219-10.960937 18.359375-13.347656 7.359375-2.398438 15.457031-2.398438 22.816406.007812 7.277344 2.386719 13.753906 7.003907 18.34375 13.339844.023438.03125.046875.0625.070313.09375l49.636719 66.195313c-29.253907 8.230468-52.011719 32.292968-57.949219 62.953124-.46875.011719-6.589844.5-9.167969.988282-27.546875 5.199218-48.351562 30.203125-48.351562 58.238281 0 31.972656 27.308593 59.253906 59.253906 59.253906h152.261718c11.582032 0 23.242188-3.054687 33.347657-8.878906l24.65625 32.882813h-467.035157l41.972657-55.972657c2.484375-3.3125 1.8125-8.015625-1.5-10.5s-8.015625-1.8125-10.5 1.5c0 0-50.730469 67.652344-50.96875 67.972657-3.675781 4.898437-.0625 12 5.996093 12zm304.59375-474.667969c17.589844 0 35.332032 6.175781 54.117188 12.71875 19.132812 6.660156 38.921875 13.550781 59.050781 13.550781 11.769531 0 22.492188-2.304688 32.78125-7.039062.503907-.234376 1.140625.082031 1.140625.671874v95.011719c0 .269531-.15625.535157-.410156.6875-10.335938 6.335938-21.296875 9.417969-33.511719 9.417969-17.59375 0-35.335937-6.179688-54.117187-12.71875-19.136719-6.660156-38.921875-13.550781-59.050782-13.550781-12.152343 0-23.351562 2.488281-33.921874 7.566406v-96.648437c10.460937-6.5 21.59375-9.667969 33.921874-9.667969zm-100.203124 229.824219c-3.992188 15.484374-18.660157 26.828124-34.625 26.828124h-126.011719c-14.199219 0-25.75-11.550781-25.75-25.753906 0-14.199218 11.550781-25.75 25.75-25.75 4.089843 0 8.007812.9375 11.640625 2.785156 4.824218 2.449219 10.738281-1.082031 10.898437-6.464843.695313-23.453125 19.625-41.824219 43.089844-41.824219 16.507813 0 31.320313 9.199219 38.660156 24.007812 1.703125 3.4375 5.726563 5.035157 9.320313 3.703126 26.175781-9.675782 54.011718 15.382812 47.027344 42.46875zm67.378906 190.839843c-23.898438 0-44.25-20.191406-44.25-44.253906 0-23.902344 20.402344-44.25 44.25-44.25 4.808594 0 10.289062.632813 11.914062-5.292969.613282-2.234375.652344-4.578125 1.097656-6.84375 6.007813-30.558594 34.359376-53.871094 65.496094-53.871094 28.707032 0 54.132813 18.28125 63.273438 45.492188 1.660156 4.929688 6.152344 5.011719 10.480468 5.011719 28.675782 0 52.003907 23.328125 52.003907 52.003906 0 28.117187-23.90625 52.003906-52.003907 52.003906 0 0-152.253906 0-152.261718 0zm0 0"/></svg>