<svg height="511pt" viewBox="-11 0 511 511.9998" width="511pt" xmlns="http://www.w3.org/2000/svg"><path d="m34.09375 506.148438c7.757812 7.757812 20.914062 7.847656 28.761719 0l132.007812-132.007813 66.054688 66.054687c4.941406 4.941407 12.980469 4.941407 17.921875 0l103.015625-103.015624c2.929687-2.929688 2.929687-7.679688 0-10.609376-2.929688-2.929687-7.679688-2.929687-10.609375 0l-101.367188 101.367188-66.054687-66.054688c-4.890625-4.890624-13.042969-4.878906-17.921875 0l-133.652344 133.65625c-2.082031 2.082032-5.46875 2.082032-7.546875 0 0 0-27.664063-27.664062-27.714844-27.710937-2.058593-2.058594-2.050781-5.496094 0-7.546875l177.875-177.878906s65.980469 65.980468 66.054688 66.054687c4.890625 4.890625 13.035156 4.890625 17.921875 0 0 0 124.808594-124.808593 124.9375-124.933593 2.898437-2.898438 2.894531-7.71875 0-10.609376l-24.472656-24.472656h84.441406c5.71875 0 10.371094 4.652344 10.371094 10.371094v84.441406s-24.449219-24.449218-24.472657-24.472656c-2.894531-2.894531-7.714843-2.894531-10.609375 0l-46.988281 46.992188c-2.929687 2.929687-2.929687 7.679687 0 10.609374 2.929687 2.925782 7.679687 2.925782 10.605469 0l41.6875-41.6875s23.09375 23.089844 23.148437 23.144532c7.828125 7.832031 21.628907 2.066406 21.628907-8.957032v-90.070312c0-13.992188-11.378907-25.375-25.371094-25.375 0 0-89.90625 0-90.070313 0-11.019531 0-16.765625 13.828125-8.960937 21.632812l23.148437 23.148438-117.984375 117.980469-66.054687-66.054688c-4.9375-4.941406-12.980469-4.941406-17.921875 0 0 0-179.460938 179.460938-179.523438 179.527344-7.84375 7.839844-7.835937 20.925781 0 28.761719 0 0 27.707032 27.707031 27.714844 27.714844zm0 0"/><path d="m245.253906 126.972656c-4.140625 0-7.5 3.359375-7.5 7.503906v10.527344c0 4.144532 3.359375 7.503906 7.5 7.503906 4.144532 0 7.503906-3.359374 7.503906-7.503906v-10.527344c0-4.144531-3.359374-7.503906-7.503906-7.503906zm0 0"/><path d="m136.949219 126.972656c-4.144531 0-7.503907 3.359375-7.503907 7.503906v10.527344c0 4.144532 3.359376 7.503906 7.503907 7.503906 4.140625 0 7.5-3.359374 7.5-7.503906v-10.527344c0-4.144531-3.355469-7.503906-7.5-7.503906zm0 0"/><path d="m205.726562 149.953125c-3.121093-2.726563-7.859374-2.410156-10.585937.710937-.957031 1.09375-2.429687 1.722657-4.039063 1.722657-1.609374 0-3.082031-.628907-4.039062-1.722657-2.726562-3.117187-7.464844-3.4375-10.582031-.710937-3.121094 2.726563-3.4375 7.464844-.710938 10.585937 3.804688 4.355469 9.390625 6.851563 15.332031 6.851563 5.9375 0 11.527344-2.496094 15.335938-6.851563 2.726562-3.117187 2.40625-7.859374-.710938-10.585937zm0 0"/><path d="m51.074219 160.527344c-.539063 6.839844-2.160157 23.738281-6.050781 41.445312-2.179688 9.933594 3.75 19.902344 13.503906 22.695313 11.082031 3.171875 31.269531 7.472656 64.746094 10.109375 19.367187 12.738281 42.71875 20.1875 67.828124 20.1875 25.109376 0 48.460938-7.449219 67.828126-20.1875 33.476562-2.636719 53.664062-6.9375 64.746093-10.109375 9.753907-2.792969 15.683594-12.761719 13.5-22.695313-3.898437-17.761718-5.511719-34.589844-6.050781-41.445312 5.398438-6.164063 8.679688-14.226563 8.679688-23.046875 0-9.394531-3.726563-17.933594-9.765626-24.234375-5.6875-30.984375-22.3125-59.320313-47.015624-80.015625-25.582032-21.429688-58.226563-33.230469-91.921876-33.230469-28.324218 0-55.667968 8.183594-79.078124 23.660156-3.457032 2.289063-4.40625 6.941406-2.121094 10.398438 2.285156 3.453125 6.941406 4.402344 10.398437 2.117187 20.945313-13.851562 45.429688-21.171875 70.800781-21.171875 30.179688 0 59.402344 10.554688 82.285157 29.726563 18.585937 15.566406 32.039062 35.957031 38.824219 58.5-.03125-.007813-.066407-.011719-.101563-.019531-1.765625-.378907-3.570313-.640626-5.371094-.722657-1.75-.101562-3.515625-.070312-5.261719.097657-.042968-.007813-1.347656-.296876-1.964843-.386719-13.445313-2.769531-26.65625-6.773438-39.515625-11.566407-.070313-.023437-.136719-.050781-.207032-.074218-22.84375-8.527344-45.027343-20.199219-63.902343-35.75-2.835938-2.332032-6.90625-2.183594-9.699219.109375-14.386719 11.890625-30.652344 21.359375-47.644531 29.003906-28.066407 12.632813-52.6875 17.695313-57.816407 18.664063-.144531-.015626-1.601562-.105469-2.179687-.125-2.886719-.09375-5.746094.152343-8.566406.769531 5.542969-18.5 15.550781-35.480469 29.410156-49.742188 2.886719-2.96875 2.820313-7.71875-.152344-10.605469-2.96875-2.886718-7.71875-2.820312-10.605469.152344-19.058593 19.609375-31.609374 43.832032-36.441406 70.183594-6.054687 6.300781-9.789062 14.851562-9.789062 24.261719 0 8.816406 3.277344 16.878906 8.671875 23.046875zm14.050781-38.789063c1.910156-1.527343 4.09375-2.683593 6.433594-3.402343-1.066406 6.285156-1.605469 12.667968-1.605469 19.042968v.101563.0625c.003906 6.214843.527344 12.414062 1.523437 18.546875.03125.179687.050782.359375.082032.542968-.3125-.097656-1.292969-.4375-1.46875-.503906-7.550782-3.007812-12.683594-10.515625-12.683594-18.648437 0-6.117188 3-11.976563 7.71875-15.742188zm-2.46875 88.503907c-2.15625-.617188-3.460938-2.835938-2.976562-5.054688 2.902343-13.214844 4.601562-25.964844 5.546874-34.851562.046876.019531.09375.03125.136719.046874 3.132813 1.179688 6.484375 1.855469 9.820313 2.070313.085937.003906.167968.015625.25.023437 5.429687 16.886719 14.738281 32.324219 27.128906 45.1875-19.414062-2.351562-32.101562-5.1875-39.90625-7.421874zm35.148438-23.921876c-.019532-.03125-.035157-.0625-.050782-.09375-8.976562-15.953124-13.472656-34.402343-12.710937-52.699218.234375-5.6875.9375-11.351563 2.128906-16.917969 21.34375-4.464844 42.203125-11.644531 61.90625-20.957031 14.824219-7.003906 29.046875-15.40625 42.023437-25.453125.035157.027343.070313.054687.105469.082031 7.964844 6.160156 16.417969 11.695312 25.167969 16.683594 33.269531 18.9375 66.335938 27.085937 78.65625 29.648437 5.054688 23.597657 1.1875 48.519531-10.558594 69.574219-.027344.050781-.058594.101562-.085937.152344-18.003907 31.914062-53.070313 53.621094-93.285157 53.621094-40.226562 0-75.296874-21.714844-93.296874-53.640626zm213.671874-67.710937c7.890626 2.804687 13.324219 10.5 13.324219 18.871094 0 8.328125-5.421875 15.992187-13.230469 18.839843-.308593.109376-.613281.214844-.925781.3125 1.070313-6.320312 1.605469-12.746093 1.605469-19.152343 0-6.410157-.535156-12.824219-1.605469-19.144531.28125.085937.558594.175781.832031.273437zm8.070313 91.632813c-7.804687 2.234374-20.488281 5.070312-39.902344 7.421874 12.386719-12.863281 21.695313-28.300781 27.125-45.1875.085938-.007812.167969-.019531.253907-.023437 3.390624-.21875 6.753906-.929687 9.945312-2.113281.9375 8.84375 2.632812 21.542968 5.554688 34.847656.488281 2.21875-.820313 4.4375-2.976563 5.054688zm0 0"/></svg>