<svg height="512pt" viewBox="-86 0 512 512" width="512pt" xmlns="http://www.w3.org/2000/svg"><path d="m169.828125 263.5c34.296875 0 63.714844-16.675781 85.066406-48.21875 15.773438-23.300781 21.550781-46.359375 21.792969-47.339844 1.140625-4.652344-2.503906-9.289062-7.285156-9.289062 0 0-198.78125 0-199.152344 0-4.800781 0-8.429688 4.625-7.28125 9.289062.234375.96875 6.015625 24.035156 21.789062 47.339844 21.355469 31.542969 50.769532 48.21875 85.070313 48.21875zm-89.347656-89.847656h178.691406c-2.976563 8.285156-8.375 21.007812-16.941406 33.574218-18.667969 27.386719-43.03125 41.273438-72.402344 41.273438-29.375 0-53.734375-13.886719-72.40625-41.273438-8.566406-12.566406-13.964844-25.289062-16.941406-33.574218zm0 0"/><path d="m94.734375 128.695312c4.140625 0 7.5-3.355468 7.5-7.5v-13.589843c0-4.140625-3.359375-7.5-7.5-7.5-4.144531 0-7.5 3.359375-7.5 7.5v13.589843c0 4.144532 3.355469 7.5 7.5 7.5zm0 0"/><path d="m244.921875 128.695312c4.140625 0 7.5-3.355468 7.5-7.5v-13.589843c0-4.140625-3.359375-7.5-7.5-7.5-4.144531 0-7.5 3.359375-7.5 7.5v13.589843c0 4.144532 3.355469 7.5 7.5 7.5zm0 0"/><path d="m169.828125 135.953125c9.386719 0 18.199219-3.925781 24.179687-10.765625 2.726563-3.121094 2.40625-7.859375-.710937-10.582031-3.117187-2.726563-7.855469-2.410157-10.582031.710937-3.128906 3.578125-7.828125 5.632813-12.886719 5.632813s-9.757813-2.054688-12.890625-5.636719c-2.722656-3.117188-7.460938-3.433594-10.582031-.707031-3.117188 2.726562-3.4375 7.460937-.710938 10.582031 5.980469 6.839844 14.792969 10.765625 24.183594 10.765625zm0 0"/><path d="m69.132812 264.5625c-42.402343 37.984375-52.453124 113.792969-53.097656 173.078125-9.308594 3.128906-16.035156 11.929687-16.035156 22.28125v28.574219c0 12.960937 10.542969 23.503906 23.503906 23.503906h292.648438c12.957031 0 23.5-10.542969 23.5-23.503906v-28.574219c0-10.351563-6.726563-19.152344-16.035156-22.28125-.644532-59.285156-10.695313-135.09375-53.09375-173.078125-5.0625-4.535156-5.058594-12.59375-.003907-17.125 42.402344-37.984375 52.453125-113.792969 53.09375-173.082031 9.3125-3.125 16.039063-11.929688 16.039063-22.277344v-28.574219c0-12.960937-10.542969-23.503906-23.5-23.503906h-190.375c-4.140625 0-7.5 3.359375-7.5 7.5s3.359375 7.5 7.5 7.5h190.375c4.6875 0 8.5 3.8125 8.5 8.503906v28.574219c0 4.6875-3.8125 8.5-8.5 8.5h-292.648438c-4.6875 0-8.503906-3.8125-8.503906-8.5v-28.574219c0-4.691406 3.816406-8.503906 8.503906-8.503906h72.273438c4.140625 0 7.5-3.359375 7.5-7.5s-3.359375-7.5-7.5-7.5h-72.273438c-12.960937 0-23.503906 10.542969-23.503906 23.503906v28.574219c0 10.351563 6.726562 19.152344 16.035156 22.28125.644532 59.285156 10.695313 135.09375 53.09375 173.078125 5.0625 4.535156 5.058594 12.597656.003906 17.125zm255.519532 223.933594c0 4.691406-3.8125 8.503906-8.5 8.503906h-292.648438c-4.691406 0-8.503906-3.8125-8.503906-8.503906v-28.574219c0-4.6875 3.8125-8.5 8.503906-8.5h292.648438c4.6875 0 8.5 3.8125 8.5 8.5zm-245.511719-252.230469c-30.523437-27.34375-47.097656-82.8125-48.089844-160.6875h277.554688c-.996094 77.875-17.570313 133.34375-48.09375 160.6875-11.578125 10.375-11.558594 29.113281 0 39.46875 30.523437 27.34375 47.097656 82.8125 48.09375 160.683594h-7.046875c-4.59375-13.492188-14.703125-38.292969-32.820313-60.886719-2.59375-3.230469-7.3125-3.75-10.542969-1.15625-3.230468 2.589844-3.75 7.3125-1.160156 10.542969 14.757813 18.398437 23.773438 38.457031 28.605469 51.5h-231.628906c4.800781-12.957031 13.738281-32.859375 28.332031-51.164063 23.402344-29.351562 52.835938-44.230468 87.484375-44.230468 25.367187 0 48.136719 8.082031 67.664063 24.019531 3.210937 2.621093 7.9375 2.140625 10.554687-1.066407 2.617187-3.210937 2.140625-7.933593-1.066406-10.554687-22.277344-18.179687-48.238281-27.398437-77.152344-27.398437-39.441406 0-72.820313 16.78125-99.210937 49.875-17.933594 22.492187-27.953126 47.109374-32.519532 60.519531h-7.046875c.996094-77.871094 17.570313-133.339844 48.089844-160.683594 11.605469-10.398437 11.601563-29.078125 0-39.46875zm0 0"/></svg>