<svg height="512pt" viewBox="0 0 512 512.001" width="512pt" xmlns="http://www.w3.org/2000/svg"><path d="m22.050781 278.050781h29.59375c4.992188 46.421875 25.800781 89.953125 59.078125 123.230469 33.277344 33.28125 76.808594 54.089844 123.226563 59.082031v29.585938c0 12.160156 9.894531 22.050781 22.050781 22.050781 12.160156 0 22.054688-9.890625 22.054688-22.050781v-29.585938c46.417968-4.992187 89.949218-25.800781 123.226562-59.082031 33.273438-33.277344 54.085938-76.808594 59.078125-123.226562h29.589844c12.160156-.003907 22.050781-9.894532 22.050781-22.054688s-9.890625-22.050781-22.050781-22.050781h-29.585938c-4.992187-46.421875-25.800781-89.953125-59.082031-123.226563-33.277344-33.277344-76.808594-54.085937-123.230469-59.078125v-29.59375c0-12.160156-9.890625-22.050781-22.050781-22.050781s-22.050781 9.890625-22.050781 22.050781v29.582031c-38.546875 4.128907-74.882813 19.011719-105.480469 43.28125-3.246094 2.574219-3.789062 7.289063-1.214844 10.535157 2.574219 3.246093 7.289063 3.789062 10.535156 1.214843 27.9375-22.160156 61.035157-35.882812 96.160157-39.941406v14.214844c-38.652344 4.859375-74.882813 22.585938-102.65625 50.359375-27.769531 27.769531-45.496094 64-50.359375 102.652344h-14.214844c4.679688-40.109375 22.28125-78.164063 50.0625-107.902344 2.828125-3.027344 2.664062-7.773437-.363281-10.601563-3.023438-2.828124-7.769531-2.667968-10.597657.359376-30.367187 32.503906-49.445312 74.226562-54.183593 118.140624h-29.585938c-12.15625.003907-22.050781 9.894532-22.050781 22.054688s9.894531 22.050781 22.050781 22.050781zm99.277344 112.625c-30.46875-30.472656-49.675781-70.203125-54.605469-112.625h14.214844c4.859375 38.652344 22.585938 74.882813 50.359375 102.652344 27.769531 27.773437 64 45.496094 102.652344 50.359375v14.21875c-42.417969-4.925781-82.152344-24.132812-112.621094-54.605469zm86.671875-156.726562h-32.058594c7.734375-28.242188 29.777344-50.292969 58.007813-58.027344v32.074219c0 12.160156 9.890625 22.054687 22.050781 22.054687s22.050781-9.894531 22.050781-22.054687v-32.074219c28.230469 7.734375 50.273438 29.785156 58.007813 58.027344h-32.054688c-12.160156 0-22.054687 9.890625-22.054687 22.050781s9.894531 22.050781 22.054687 22.050781h32.074219c-7.734375 28.230469-29.785156 50.273438-58.027344 58.007813v-32.054688c0-12.160156-9.890625-22.054687-22.050781-22.054687s-22.050781 9.894531-22.050781 22.054687v32.054688c-28.242188-7.734375-50.292969-29.777344-58.027344-58.007813h32.078125c12.15625 0 22.050781-9.890625 22.050781-22.050781s-9.894531-22.050781-22.050781-22.050781zm-61.976562 0c4.332031-21.5 15.054687-41.566407 30.707031-57.21875 15.652343-15.652344 35.71875-26.371094 57.21875-30.707031v14.417968c-36.570313 8.398438-65.089844 36.921875-73.488281 73.503906h-14.4375zm205.515624 0c-8.398437-36.585938-36.917968-65.109375-73.488281-73.507813v-14.417968c21.5 4.335937 41.566407 15.054687 57.21875 30.710937 15.652344 15.652344 26.375 35.714844 30.707031 57.214844zm29.679688 0c-4.503906-25.496094-16.890625-49.375-35.34375-67.824219-18.449219-18.449219-42.328125-30.835938-67.824219-35.34375v-34.707031c34.65625 4.777343 67.082031 20.859375 92.046875 45.828125 24.96875 24.964844 41.054688 57.394531 45.828125 92.046875zm-34.121094 99.878906c3.308594 2.492187 8.011719 1.828125 10.5-1.480469 12.082032-16.039062 20.171875-34.691406 23.625-54.296875h34.703125c-4.773437 34.652344-20.859375 67.082031-45.828125 92.046875-24.964844 24.964844-57.394531 41.050782-92.046875 45.828125v-34.703125c21.179688-3.722656 41.105469-12.800781 57.976563-26.5 3.214844-2.609375 3.703125-7.332031 1.09375-10.546875-2.609375-3.214843-7.335938-3.707031-10.550782-1.097656-14.1875 11.523437-30.820312 19.355469-48.519531 22.90625v-14.445313c36.585938-8.398437 65.109375-36.917968 73.507813-73.488281h14.417968c-3.28125 16.328125-10.238281 31.835938-20.359374 45.273438-2.492188 3.308593-1.828126 8.011719 1.480468 10.503906zm-113.148437 17.710937v14.4375c-21.5-4.332031-41.566407-15.054687-57.21875-30.707031-15.652344-15.652343-26.371094-35.71875-30.707031-57.21875h14.417968c8.398438 36.570313 36.925782 65.089844 73.507813 73.488281zm-103.164063-73.488281c4.503906 25.496094 16.890625 49.375 35.339844 67.824219 18.453125 18.453125 42.332031 30.839844 67.824219 35.34375v34.707031c-34.652344-4.777343-67.082031-20.859375-92.046875-45.828125-24.96875-24.964844-41.050782-57.394531-45.828125-92.046875zm118.164063 25.953125c0-3.890625 3.164062-7.054687 7.050781-7.054687s7.050781 3.164062 7.050781 7.054687v185.945313c0 3.886719-3.164062 7.050781-7.050781 7.050781s-7.050781-3.164062-7.050781-7.050781zm141.722656 86.671875c-30.46875 30.472657-70.199219 49.679688-112.621094 54.605469v-14.21875c38.652344-4.863281 74.882813-22.585938 102.65625-50.359375 27.769531-27.769531 45.496094-64 50.359375-102.652344h14.210938c-4.929688 42.421875-24.136719 82.15625-54.605469 112.625zm-86.667969-127.625c-3.890625 0-7.054687-3.164062-7.054687-7.050781s3.164062-7.050781 7.054687-7.050781h185.945313c3.886719 0 7.050781 3.164062 7.050781 7.050781s-3.164062 7.050781-7.050781 7.050781zm86.671875-141.722656c30.472657 30.46875 49.679688 70.199219 54.609375 112.621094h-14.21875c-4.863281-38.652344-22.589844-74.882813-50.359375-102.652344-27.773437-27.773437-64-45.5-102.65625-50.359375v-14.214844c42.421875 4.929688 82.15625 24.136719 112.625 54.605469zm-127.625 86.667969c0 3.890625-3.164062 7.054687-7.050781 7.054687s-7.050781-3.164062-7.050781-7.054687v-185.945313c0-3.886719 3.164062-7.050781 7.050781-7.050781s7.050781 3.164062 7.050781 7.050781zm-121.148437-66.09375c24.964844-24.96875 57.394531-41.050782 92.046875-45.828125v34.707031c-25.496094 4.503906-49.375 16.890625-67.824219 35.34375-18.453125 18.453125-30.839844 42.328125-35.34375 67.824219h-34.707031c4.777343-34.652344 20.859375-67.082031 45.828125-92.046875zm-119.851563 121.148437c-3.886719 0-7.050781-3.164062-7.050781-7.050781s3.164062-7.050781 7.050781-7.050781h185.949219c3.886719 0 7.050781 3.164062 7.050781 7.050781s-3.164062 7.050781-7.050781 7.050781zm0 0"/></svg>