<svg height="512pt" viewBox="0 0 512.002 512" width="512pt" xmlns="http://www.w3.org/2000/svg"><path d="m177.335938 321.199219c-2.929688-2.929688-7.675782-2.929688-10.605469 0-2.929688 2.929687-2.929688 7.679687 0 10.605469 0 0 9.257812 9.257812 9.257812 9.257812 2.894531 2.894531 7.710938 2.890625 10.605469 0 2.929688-2.929688 2.929688-7.679688 0-10.609375zm0 0"/><path d="m278.277344 238.769531c2.902344 2.902344 7.710937 2.898438 10.605468 0 2.929688-2.929687 2.929688-7.675781 0-10.605469l-9.253906-9.257812c-2.929687-2.929688-7.679687-2.929688-10.609375 0-2.929687 2.929688-2.929687 7.679688 0 10.605469zm0 0"/><path d="m243.914062 263.863281c-4.132812.277344-7.261718 3.851563-6.980468 7.984375.300781 4.492188-1.46875 9.011719-4.859375 12.402344s-7.910157 5.164062-12.402344 4.859375c-4.144531-.277344-7.707031 2.847656-7.988281 6.980469-.277344 4.132812 2.847656 7.707031 6.980468 7.984375 8.90625.59375 17.730469-2.929688 24.015626-9.21875 6.449218-6.449219 9.8125-15.203125 9.21875-24.011719-.277344-4.132812-3.847657-7.261719-7.984376-6.980469zm0 0"/><path d="m350.605469 60.160156c-2.929688 2.929688-2.929688 7.679688 0 10.605469l143.980469 143.980469c3.226562 3.230468 3.226562 8.480468 0 11.710937l-22.808594 22.808594c-3.226563 3.226563-8.480469 3.226563-11.707032 0 0 0-197.335937-197.335937-197.335937-197.335937-3.226563-3.226563-3.226563-8.476563 0-11.707032l22.808594-22.808594c3.230469-3.226562 8.480469-3.226562 11.710937 0l32.328125 32.328126c2.925781 2.929687 7.675781 2.929687 10.605469 0 2.929688-2.929688 2.929688-7.675782 0-10.605469l-32.328125-32.328125c-9.074219-9.078125-23.84375-9.078125-32.921875 0l-22.808594 22.808594c-7.53125 7.53125-8.792968 18.976562-3.820312 27.84375l-193.269532 294.011718c-8.449218-3.515625-18.5625-1.851562-25.421874 5.011719l-22.808594 22.808594c-9.078125 9.078125-9.078125 23.84375 0 32.921875l49.417968 49.421875c2.929688 2.929687 7.679688 2.929687 10.609376 0 2.929687-2.929688 2.929687-7.679688 0-10.605469l-49.421876-49.421875c-3.226562-3.230469-3.226562-8.480469 0-11.710937l22.808594-22.808594c3.226563-3.226563 8.480469-3.226563 11.707032 0 0 0 92.910156 92.910156 92.980468 92.980468 3.195313 3.195313 3.191406 8.515626 0 11.707032 0 0-22.777344 22.777344-22.808594 22.808594-3.195312 3.195312-8.507812 3.199218-11.707031 0l-22.972656-22.96875c-2.929687-2.929688-7.675781-2.929688-10.605469 0-2.929687 2.925781-2.929687 7.675781 0 10.605468 0 0 22.957032 22.957032 22.972656 22.96875 8.972657 8.976563 23.953126 8.972656 32.917969 0 0 0 22.792969-22.792968 22.808594-22.808594 6.589844-6.585937 8.621094-16.832031 5.03125-25.433593l60.714844-39.910157s9.023437 15.882813 9.027343 15.882813c15.320313 26.960937 51.84375 35.769531 77.773438 18.71875l70.976562-46.667969c24.070313-15.824218 31.777344-47.839844 17.542969-72.886718l-12.535156-22.054688 70.496094-46.339844c3.523437 1.976563 7.449219 2.984375 11.382812 2.984375 5.960938 0 11.921875-2.269531 16.460938-6.804687l22.808593-22.808594c9.074219-9.078125 9.074219-23.847656 0-32.921875l-143.984374-143.980469c-2.929688-2.929687-7.679688-2.929687-10.605469 0zm-10.015625 278.4375 10.871094 19.132813c.757812 1.332031.347656 3.042969-.933594 3.882812 0 0-70.800782 46.550781-70.976563 46.667969-1.402343.921875-3.316406.460938-4.148437-.996094l-10.6875-18.808594zm42.949218.902344c10.335938 18.191406 4.742188 41.445312-12.746093 52.941406 0 0-70.960938 46.65625-70.972657 46.667969-18.894531 12.421875-45.320312 6.058594-56.492187-13.597656l-9.507813-16.726563 18.332032-12.054687s10.203125 17.953125 10.210937 17.96875c5.023438 8.832031 16.960938 11.683593 25.429688 6.117187l70.976562-46.667968c7.871094-5.175782 10.390625-15.640626 5.734375-23.832032l-11.351562-19.976562 18.332031-12.050782zm-232.34375 105.644531-84.339843-84.339843 191.785156-291.753907 184.308594 184.308594zm0 0"/></svg>