<svg height="512pt" viewBox="-28 0 512 512.00008" width="512pt" xmlns="http://www.w3.org/2000/svg"><path d="m0 490.167969c0 12.039062 9.792969 21.832031 21.832031 21.832031h37.390625c12.039063 0 21.832032-9.792969 21.832032-21.832031v-92.433594c0-12.039063-9.792969-21.832031-21.832032-21.832031h-37.390625c-12.039062 0-21.832031 9.792968-21.832031 21.832031zm15-92.433594c0-3.765625 3.066406-6.832031 6.832031-6.832031h37.390625c3.765625 0 6.828125 3.0625 6.828125 6.832031v92.433594c0 3.765625-3.0625 6.828125-6.828125 6.828125h-37.390625c-3.765625 0-6.832031-3.0625-6.832031-6.828125zm0 0"/><path d="m132.601562 443.113281c-4.144531 0-7.5 3.359375-7.5 7.5v39.554688c0 12.035156 9.792969 21.832031 21.832032 21.832031h37.386718c12.039063 0 21.832032-9.796875 21.832032-21.832031v-144.140625c0-12.039063-9.792969-21.832032-21.832032-21.832032h-37.386718c-12.039063 0-21.832032 9.792969-21.832032 21.832032v74.90625c0 4.144531 3.355469 7.503906 7.5 7.503906 4.140626 0 7.5-3.359375 7.5-7.503906v-74.90625c0-3.765625 3.0625-6.832032 6.832032-6.832032h37.386718c3.765626 0 6.832032 3.066407 6.832032 6.832032v144.140625c0 3.765625-3.066406 6.832031-6.832032 6.832031h-37.386718c-3.769532 0-6.832032-3.066406-6.832032-6.832031v-39.550781c0-4.144532-3.359374-7.503907-7.5-7.503907zm0 0"/><path d="m272.03125 272.484375c-12.039062 0-21.832031 9.796875-21.832031 21.835937v195.847657c0 12.039062 9.792969 21.832031 21.832031 21.832031h37.390625c12.039063 0 21.832031-9.792969 21.832031-21.832031v-195.847657c0-12.039062-9.792968-21.835937-21.832031-21.835937zm44.21875 21.835937v195.847657c0 3.765625-3.0625 6.832031-6.828125 6.832031h-37.390625c-3.765625 0-6.828125-3.066406-6.828125-6.832031v-195.847657c0-3.769531 3.0625-6.832031 6.828125-6.832031h37.390625c3.765625 0 6.828125 3.0625 6.828125 6.832031zm0 0"/><path d="m456.351562 490.167969v-247.558594c0-12.039063-9.792968-21.832031-21.832031-21.832031h-37.386719c-12.039062 0-21.832031 9.792968-21.832031 21.832031v53.707031c0 4.140625 3.355469 7.5 7.5 7.5 4.140625 0 7.5-3.359375 7.5-7.5v-53.707031c0-3.765625 3.0625-6.828125 6.832031-6.828125h37.386719c3.765625 0 6.832031 3.0625 6.832031 6.828125v247.558594c0 3.765625-3.066406 6.828125-6.832031 6.828125h-37.386719c-3.769531 0-6.832031-3.0625-6.832031-6.828125v-164.910157c0-4.140624-3.359375-7.5-7.5-7.5-4.144531 0-7.5 3.359376-7.5 7.5v164.910157c0 12.039062 9.792969 21.832031 21.832031 21.832031h37.386719c12.039063 0 21.832031-9.792969 21.832031-21.832031zm0 0"/><path d="m282.363281 137.761719c-4.144531 0-7.503906 3.359375-7.503906 7.503906v10.535156c0 4.140625 3.359375 7.5 7.503906 7.5 4.140625 0 7.5-3.359375 7.5-7.5v-10.535156c0-4.144531-3.359375-7.503906-7.5-7.503906zm0 0"/><path d="m173.992188 137.761719c-4.144532 0-7.5 3.359375-7.5 7.503906v10.535156c0 4.140625 3.355468 7.5 7.5 7.5 4.140624 0 7.5-3.359375 7.5-7.5v-10.535156c0-4.144531-3.359376-7.503906-7.5-7.503906zm0 0"/><path d="m242.804688 160.753906c-3.121094-2.726562-7.855469-2.40625-10.582032.710938-.960937 1.09375-2.433594 1.726562-4.046875 1.726562s-3.085937-.628906-4.042969-1.726562c-2.726562-3.117188-7.464843-3.4375-10.585937-.710938-3.117187 2.726563-3.4375 7.464844-.710937 10.585938 3.808593 4.355468 9.398437 6.851562 15.339843 6.851562 5.941407 0 11.535157-2.496094 15.339844-6.851562 2.726563-3.121094 2.40625-7.859375-.710937-10.585938zm0 0"/><path d="m351.074219 30.070312c-1.617188-4.566406-3.144531-8.882812-4.359375-12.617187-4.453125-13.640625-19.957032-20.855469-33.316406-15.871094-18.300782 6.828125-39.808594 9.132813-85.222657 9.132813-33.714843 0-66.378906 11.808594-91.972656 33.25-24.714844 20.707031-41.347656 49.058594-47.039063 80.058594-6.042968 6.304687-9.769531 14.847656-9.769531 24.25 0 18.660156 14.652344 33.957031 33.054688 35.003906 15.398437 47.773437 61.453125 82.542968 115.726562 82.542968 54.273438 0 100.328125-34.769531 115.726563-82.542968 18.40625-1.046875 33.058594-16.34375 33.058594-35.003906 0-7.085938-2.117188-13.679688-5.742188-19.199219 1.152344-38.804688-11.621094-74.921875-20.144531-99.003907zm-205.234375 25.394532c22.894531-19.183594 52.136718-29.75 82.335937-29.75 48.03125 0 70.015625-2.449219 90.46875-10.078125 5.539063-2.066407 11.945313.769531 13.808594 6.46875 1.273437 3.910156 2.832031 8.3125 4.480469 12.972656 7.625 21.550781 17.6875 49.984375 19.179687 81.117187-2.808593-1.246093-5.789062-2.117187-8.875-2.585937-.597656-.09375-6.714843-.160156-6.832031-.375-3.746094-6.808594-8.59375-13.027344-14.285156-18.3125-16.351563-15.1875-38.445313-20.9375-60.371094-19.957031-11.761719.523437-24.367188 2.890625-37.574219 7.050781-16.769531-5.285156-34.539062-8.363281-52.144531-6.726563-22.171875 2.0625-43.316406 13.074219-56.117188 31.546876-.058593.082031-2.804687 4.285156-3.96875 6.398437-.15625-.007813-.3125 0-.464843-.003906-2.808594-.085938-5.628907.164062-8.378907.753906-.035156.007813-.074218.011719-.113281.019531 6.789063-22.558594 20.253907-42.960937 38.851563-58.539062zm-37.269532 111.988281c-8.199218-2.519531-14.175781-10.167969-14.175781-19.183594 0-8.929687 6.261719-17.070312 14.886719-19.375.105469-.03125.210938-.046875.316406-.074219-.035156.117188-.0625.234376-.09375.351563-3.339844 12.285156-3.082031 25.261719-1.011718 37.746094.027343.179687.046874.359375.078124.535156zm119.605469 83.363281c-51.105469 0-93.894531-35.03125-103.964843-81.527344-4.445313-20.515624-2.507813-41.859374 11.460937-58.394531.019531-.019531.039063-.039062.054687-.0625 14.722657-17.378906 37.394532-22.574219 59.308594-20.53125 9.648438.902344 19.964844 3.148438 30.792969 6.714844 1.523437.503906 3.171875.503906 4.695313 0 10.828124-3.566406 21.144531-5.8125 30.796874-6.714844 20.988282-1.957031 42.625 2.609375 57.472657 18.480469 15.539062 16.609375 18.003906 39.027344 13.347656 60.507812-10.070313 46.496094-52.859375 81.527344-103.964844 81.527344zm119.605469-83.363281c.03125-.175781.050781-.355469.082031-.535156 2.039063-12.40625 2.332031-25.382813-.976562-37.601563-.046875-.171875-.085938-.34375-.132813-.515625.015625.003907.035156.007813.054688.015625 8.773437 2.21875 15.148437 10.402344 15.148437 19.453125 0 9.015625-5.976562 16.664063-14.175781 19.183594zm0 0"/></svg>