<svg height="512pt" viewBox="-74 0 512 512" width="512pt" xmlns="http://www.w3.org/2000/svg"><path d="m105.960938 175.363281c4.140624 0 7.5-3.359375 7.5-7.5v-15.734375c0-4.140625-3.359376-7.5-7.5-7.5-4.144532 0-7.5 3.359375-7.5 7.5v15.734375c0 4.140625 3.355468 7.5 7.5 7.5zm0 0"/><path d="m47.792969 199.4375c0-7.441406-3.660157-13.476562-8.171875-13.476562-4.515625 0-8.175782 6.035156-8.175782 13.476562s3.660157 13.476562 8.175782 13.476562c4.511718 0 8.171875-6.035156 8.171875-13.476562zm0 0"/><path d="m47.507812 139.644531c-15.648437 6.398438-42.566406 22.113281-47.03125 55.492188-2.964843 22.144531 8.144532 43.476562 27.644532 53.078125 10.800781 5.316406 23.8125 8.015625 38.671875 8.015625 17.441406 0 37.023437-3.871094 57.207031-11.261719-3.71875 26.390625-20.28125 43.109375-37.691406 60.6875-19.285156 19.476562-39.1875 39.574219-41.539063 73.042969-14.710937 3.320312-25.730469 16.484375-25.730469 32.179687 0 11.402344 5.816407 21.472656 14.632813 27.398438-9.027344 6.398437-20.03125 16.53125-27.484375 31.328125-9.632812 19.113281 4.542969 42.394531 25.953125 42.394531h302.742187c21 0 35.644532-22.726562 26.265626-41.746094-7.457032-15.132812-18.660157-25.472656-27.820313-31.96875 8.824219-5.929687 14.644531-16 14.644531-27.40625 0-15.210937-10.347656-28.042968-24.367187-31.84375 2.636719-17.953125 7.996093-65.121094 2.394531-123.488281 22.667969-18.339844 32.792969-47.800781 25.851562-76.289063-5.085937-20.890624-11.585937-41.207031-19.3125-60.390624-1.546874-3.84375-5.914062-5.703126-9.757812-4.15625-3.84375 1.546874-5.703125 5.917968-4.15625 9.761718 7.460938 18.515625 13.734375 38.144532 18.65625 58.335938 4.742188 19.46875-.476562 39.519531-13.414062 54.113281-.179688-1.339844-.371094-2.667969-.5625-4-4.933594-34.78125-13.601563-69.117187-26.898438-101.664063-15.375-37.585937-37.171875-72.605468-65.089844-102.15625-.503906-.53125-.992187-1.074218-1.496094-1.601562 20.832032.269531 40.613282 10.714844 52.664063 28.546875 8.875 13.136719 17.046875 27.222656 24.28125 41.871094 1.835937 3.714843 6.332031 5.238281 10.046875 3.402343 3.714844-1.835937 5.238281-6.332031 3.402344-10.046874-7.535156-15.253907-16.046875-29.933594-25.304688-43.628907-17.59375-26.03125-48.589844-39.269531-79.285156-33.996093-3.078125-2.824219-6.191406-5.609376-9.386719-8.3125-4.074219-3.441407-9.230469-5.335938-14.523437-5.335938-10.863282 0-19.175782 7.527344-22.234375 17.558594-5.945313-.703125-11.910157-1.058594-17.808594-1.058594-31.359375 0-60.21875 9.929688-83.453125 28.710938-7.984375 6.457031-10.464844 17.382812-6.027344 26.570312l14.023438 29.046875c-5.554688 6.96875-10.148438 14.875-13.738282 23.707031-2.785156 6.851563-8.238281 12.355469-14.96875 15.109375zm285.464844 271.234375c0 9.921875-8.074218 17.992188-17.996094 17.992188h-177.054687c-4.144531 0-7.5 3.359375-7.5 7.5 0 4.144531 3.355469 7.5 7.5 7.5h175.460937c4.992188 2.355468 24.183594 12.472656 34.3125 33.011718 4.554688 9.242188-2.710937 20.117188-12.8125 20.117188 0 0-302.148437 0-302.742187 0-10.464844 0-17.253906-11.332031-12.558594-20.648438 10.195313-20.238281 29.125-30.171874 34.039063-32.480468h54.414062c4.140625 0 7.5-3.355469 7.5-7.5 0-4.140625-3.359375-7.5-7.5-7.5h-56c-9.921875 0-17.996094-8.070313-17.996094-17.992188 0-9.925781 8.070313-17.996094 17.996094-17.996094h262.941406c9.921876 0 17.996094 8.070313 17.996094 17.996094zm-255.324218-354c25.945312-20.976562 54.574218-25.378906 74.023437-25.378906 4.421875 0 8.886719.222656 13.351563.660156l-9.941407 32.570313c-9.125.1875-25.105469 1.695312-42.042969 8.769531-9.734374 4.0625-18.3125 9.351562-25.738281 15.796875l-11.601562-24.035156c-1.390625-2.882813-.589844-6.332031 1.949219-8.382813zm-1.273438 73.304688c13.226562-32.539063 46.289062-50.472656 80.796875-50.472656h.03125c5.050781 0 8.128906-.308594 10.585937-5.226563l16.476563-53.984375c1.570313-5.144531 8.152344-7.203125 12.285156-3.710938 69.261719 58.574219 104.515625 146.269532 113.964844 234.816407 6.382813 59.839843.546875 109.46875-1.925781 126.277343h-248.695313c2.644531-26.910156 19.40625-43.835937 37.074219-61.671874 21.042969-21.25 42.804688-43.222657 42.804688-82.585938 0-5.316406-5.53125-8.992188-10.441407-6.902344-22.261719 9.488282-43.886719 14.503906-62.542969 14.503906-12.359374 0-23.441406-2.238281-32.042968-6.472656-13.714844-6.753906-21.511719-21.875-19.402344-37.628906 3.289062-24.59375 22.394531-37.28125 37.839844-43.597656 10.445312-4.269532 18.894531-12.777344 23.191406-23.34375zm0 0"/></svg>