<svg height="512pt" viewBox="-104 0 512 512.00029" width="512pt" xmlns="http://www.w3.org/2000/svg"><path d="m81.011719 251.902344c-4.140625 0-7.5 3.355468-7.5 7.5v12.792968c0 4.140626 3.359375 7.5 7.5 7.5 4.144531 0 7.5-3.359374 7.5-7.5v-12.792968c0-4.140625-3.355469-7.5-7.5-7.5zm0 0"/><path d="m222.367188 251.902344c-4.144532 0-7.5 3.355468-7.5 7.5v12.792968c0 4.140626 3.355468 7.5 7.5 7.5 4.140624 0 7.5-3.359374 7.5-7.5v-12.792968c0-4.140625-3.359376-7.5-7.5-7.5zm0 0"/><path d="m174.070312 265.65625c-3.121093-2.726562-7.859374-2.40625-10.582031.710938-2.863281 3.273437-7.164062 5.152343-11.800781 5.152343-4.632812 0-8.933594-1.878906-11.796875-5.152343-2.726563-3.121094-7.460937-3.4375-10.582031-.710938-3.117188 2.726562-3.4375 7.464844-.710938 10.582031 5.710938 6.535157 14.128906 10.285157 23.089844 10.285157 8.964844 0 17.382812-3.75 23.09375-10.28125 2.726562-3.121094 2.40625-7.859376-.710938-10.585938zm0 0"/><path d="m0 249.914062v33.894532c0 10.753906 7.039062 19.890625 16.746094 23.054687v10.1875c0 22.53125 18.332031 40.859375 40.863281 40.859375h14.0625l25.0625 118.28125c4.394531 20.75 22.980469 35.808594 44.191406 35.808594h21.53125c21.207031 0 39.792969-15.058594 44.1875-35.808594l25.0625-118.28125h14.066407c22.53125 0 40.859374-18.328125 40.859374-40.859375v-10.1875c9.707032-3.167969 16.746094-12.300781 16.746094-23.054687v-33.894532c0-10.28125-6.433594-19.082031-15.484375-22.601562 1.707031-10.066406 4.191407-29.164062 3.234375-51.089844-1.878906-42.945312-16.320312-75.945312-41.757812-95.4375-6.070313-4.652344-15.148438-1.742187-17.382813 5.550782-2.816406 9.195312-8.144531 13.859374-15.84375 13.859374-4.195312 0-11.636719-5.671874-17.742187-16.507812-9.378906-16.640625-14.25-42.929688.207031-66.8125 4.976563-8.21875-2.566406-18.691406-11.90625-16.605469-19.441406 4.34375-56.648437 16.335938-87.363281 47.863281-2.894532 2.96875-2.832032 7.71875.136718 10.609376 2.964844 2.886718 7.714844 2.828124 10.605469-.140626 24.425781-25.070312 54.113281-36.605468 71.476563-41.546874-12.480469 27.125-6.660156 55.484374 3.773437 74 8.523438 15.117187 20.039063 24.140624 30.816407 24.140624 12.679687 0 22.714843-6.894531 28.191406-19.132812 40.980468 36.285156 32.179687 108.621094 28.59375 129.605469h-17.828125c2.878906-14.519531 5.164062-42.925781-10.652344-73.53125-2.203125-4.265625-6.5625-6.914063-11.375-6.914063-4.003906 0-7.710937 1.816406-10.167969 4.980469-4.289062 5.519531-12.027344 12.097656-24.554687 12.097656-22.625 0-36.800781-15.585937-38.886719-42.761719-.703125-9.148437-11.023438-14.726562-19.035156-10.300781-12.289063 6.792969-40.085938 25.570313-46.527344 59.089844-4.972656-.839844-12.152344-2.703125-19.039062-6.828125-6.015626-3.601562-13.992188-1.675781-17.644532 4.328125-6.25 10.277344-17.597656 34.605469-4.605468 59.839844h-23.503907c-18.394531-43.75-.53125-81.28125 11.65625-99.648438 6.613281 11.164063 17 19.390625 17.527344 19.804688 4.445313 3.492187 11.152344.828125 12.035156-4.726563 3.582031-22.617187 11.042969-42.914062 22.175781-60.332031 2.230469-3.488281 1.210938-8.125-2.277343-10.359375-3.492188-2.230469-8.128907-1.207031-10.359375 2.28125-9.894532 15.480469-17.140625 32.953125-21.625 52.097656-2.644532-3.183594-5.152344-6.84375-6.640625-10.539062-3.179688-7.894532-14.113281-9.246094-19.179688-2.4375-5.910156 7.949218-16.671875 24.539062-22.359375 46.363281-6.1875 23.765625-4.882812 47.210937 3.832032 69.820313-8.207032 3.890624-13.898438 12.253906-13.898438 21.921874zm271.632812 67.136719c0 14.257813-11.601562 25.859375-25.863281 25.859375h-57.832031c-4.140625 0-7.5 3.359375-7.5 7.5 0 4.144532 3.359375 7.5 7.5 7.5h28.433594l-24.402344 115.171875c-2.933594 13.859375-15.347656 23.917969-29.515625 23.917969h-21.53125c-14.167969 0-26.578125-10.058594-29.515625-23.917969l-24.402344-115.171875h71.152344c4.144531 0 7.5-3.355468 7.5-7.5 0-4.140625-3.355469-7.5-7.5-7.5h-100.546875c-14.261719 0-25.863281-11.601562-25.863281-25.859375v-8.992187h239.886718zm16.746094-33.242187c0 5.101562-4.148437 9.246094-9.246094 9.246094h-254.886718c-5.097656 0-9.246094-4.144532-9.246094-9.246094v-33.894532c0-5.097656 4.148438-9.246093 9.246094-9.246093h254.886718c5.097657 0 9.246094 4.148437 9.246094 9.246093zm-219.394531-108.386719c15.339844 8.492187 30.671875 8.59375 31.34375 8.59375 3.886719 0 7.128906-2.96875 7.46875-6.84375 1.101563-12.46875 7.425781-35.613281 37.023437-53.164063 1.832032 16.707032 7.613282 29.90625 17.199219 39.273438 9.386719 9.171875 21.949219 14.019531 36.335938 14.019531 13.382812 0 25.421875-5.410156 34.246093-15.308593 13.152344 27.6875 9.539063 53.238281 7.128907 63.675781h-169.402344c-14.550781-19.199219-7.738281-38.949219-1.34375-50.246094zm0 0"/></svg>