<svg height="512pt" viewBox="0 -17 512.00169 512" width="512pt" xmlns="http://www.w3.org/2000/svg"><path d="m338.792969 250.445312-7.945313 7.945313c-2.929687 2.929687-2.929687 7.679687 0 10.609375 2.894532 2.894531 7.710938 2.894531 10.609375 0l7.945313-7.945312c2.929687-2.929688 2.929687-7.679688 0-10.609376-2.929688-2.929687-7.679688-2.929687-10.609375 0zm0 0"/><path d="m250.988281 162.640625-7.945312 7.945313c-2.929688 2.929687-2.929688 7.679687 0 10.609374 2.816406 2.816407 7.683593 2.921876 10.609375 0l7.945312-7.945312c2.929688-2.929688 2.929688-7.679688 0-10.609375-2.929687-2.929687-7.679687-2.929687-10.609375 0zm0 0"/><path d="m282.46875 200.917969c-4.140625-.277344-7.710938 2.851562-7.988281 6.984375-.527344 7.867187 2.46875 15.683594 8.222656 21.4375 5.320313 5.316406 12.398437 8.28125 19.652344 8.28125 4.6875 0 9.117187-2.820313 8.765625-8.046875-.277344-4.132813-3.847656-7.261719-7.988282-6.980469-3.558593.234375-7.128906-1.171875-9.820312-3.863281-2.691406-2.691407-4.101562-6.273438-3.863281-9.820313.28125-4.136718-2.847657-7.710937-6.980469-7.992187zm0 0"/><path d="m.328125 443.738281c1.101563 5.558594 4.886719 10.171875 10.121094 12.339844l49.59375 20.558594c11.433593 4.738281 24.855469 2.070312 33.605469-6.679688l13.90625-13.90625c.675781-.675781 1.523437-1.167969 2.445312-1.417969l30.613281-8.394531c6.957031-1.90625 12.464844-7.410156 14.371094-14.367187l7.339844-26.785156c.515625-1.875 1.996093-3.355469 3.867187-3.867188l26.785156-7.34375c6.957032-1.90625 12.460938-7.410156 14.371094-14.367188l7.339844-26.785156c.511719-1.871094 1.996094-3.351562 3.867188-3.867187l26.785156-7.339844c6.953125-1.910156 12.460937-7.414063 14.367187-14.371094l6.277344-22.902343c25.441406 14.933593 54.085937 22.402343 82.734375 22.402343 41.84375 0 83.6875-15.925781 115.539062-47.78125 24.652344-24.652343 40.519532-55.847656 45.882813-90.207031.640625-4.09375-2.160156-7.929688-6.253906-8.570312-4.09375-.636719-7.929688 2.160156-8.570313 6.253906-4.871094 31.199218-19.277344 59.527344-41.667968 81.914062-51.292969 51.292969-131.097657 57.105469-188.863282 17.453125-14.667968-10.070312-27.515625-22.789062-37.703125-37.375-36.398437-52.113281-35.070312-124.050781 3.398438-174.699219 4.082031-5.375 8.535156-10.46875 13.308593-15.242187 57.859376-57.859375 152.003907-57.859375 209.859376 0 26.582031 26.582031 41.976562 61.902344 43.355468 99.464844.148438 4.140625 3.628906 7.367187 7.769532 7.222656 4.140624-.152344 7.375-3.632813 7.222656-7.773437-1.515625-41.359376-18.46875-80.253907-47.738282-109.523438-63.707031-63.707031-167.367187-63.707031-231.078124 0-49.914063 49.914062-60.714844 124.347656-32.417969 184.882812l-120.273438 120.273438c-2.929687 2.929688-2.929687 7.679688 0 10.605469 2.929688 2.929687 7.679688 2.929687 10.609375 0l116.984375-116.980469c.355469.601562 5.21875 8.285156 7.449219 11.417969l-158.058594 158.0625c-2.929687 2.929687-2.929687 7.679687 0 10.609375 2.894532 2.894531 7.714844 2.890625 10.609375 0 0 0 156.707031-156.710938 156.765625-156.769532-.613281.625 11.160156 11.738282 12.53125 13.019532 4.839844 4.503906 9.945313 8.726562 15.289063 12.617187.042969.03125.082031.0625.125.09375l-7.554688 27.566407c-.515625 1.871093-1.996093 3.351562-3.867187 3.863281l-26.785156 7.34375c-6.953126 1.90625-12.460938 7.414062-14.367188 14.371093l-7.34375 26.78125c-.511719 1.875-1.992188 3.355469-3.863281 3.867188l-26.785157 7.34375c-6.957031 1.90625-12.464843 7.410156-14.371093 14.367188l-7.339844 26.785156c-.515625 1.871094-1.996094 3.355468-3.867187 3.867187l-30.613282 8.390625c-3.429687.941406-6.574218 2.765625-9.089844 5.28125l-13.90625 13.910156c-4.542968 4.542969-11.316406 5.886719-17.25 3.425782 0 0-49.496093-20.515625-49.59375-20.558594-1.222656-.503906-1.601562-2.167969-.625-3.144531l54.828126-54.828125c2.929687-2.929688 2.929687-7.679688 0-10.609375-2.929688-2.929688-7.679688-2.929688-10.609376 0l-54.828124 54.828125c-4.007813 4.007812-5.738282 9.71875-4.632813 15.273437zm0 0"/><path d="m425.71875 184.617188c27.101562-27.097657 27.101562-71.195313 0-98.292969-27.101562-27.101563-71.195312-27.101563-98.292969 0-27.097656 27.097656-27.097656 71.195312 0 98.292969 13.550781 13.550781 31.347657 20.324218 49.148438 20.324218 17.796875 0 35.59375-6.773437 49.144531-20.324218zm-87.6875-87.683594c10.628906-10.625 24.582031-15.9375 38.539062-15.9375 13.957032 0 27.914063 5.3125 38.539063 15.9375 21.25 21.25 21.25 55.824218 0 77.074218s-55.828125 21.25-77.078125 0-21.25-55.824218 0-77.074218zm0 0"/></svg>