<svg height="512pt" viewBox="0 0 511 512" width="512pt" xmlns="http://www.w3.org/2000/svg"><path d="m189.144531 327.355469c36.972657 0 71.734375-14.398438 97.878907-40.542969 53.96875-53.972656 53.96875-141.785156 0-195.753906-26.144532-26.144532-60.90625-40.542969-97.878907-40.542969-36.972656 0-71.734375 14.394531-97.878906 40.542969-53.96875 53.96875-53.96875 141.785156 0 195.753906 26.144531 26.144531 60.90625 40.542969 97.878906 40.542969zm-87.269531-225.691407c23.308594-23.308593 54.304688-36.148437 87.269531-36.148437 32.964844 0 63.957031 12.839844 87.269531 36.148437 48.121094 48.121094 48.121094 126.421876 0 174.539063-23.3125 23.3125-54.304687 36.148437-87.269531 36.148437-32.964843 0-63.960937-12.835937-87.269531-36.148437-48.121094-48.117187-48.121094-126.417969 0-174.539063zm0 0"/><path d="m229.386719 188.78125c-4.140625 0-7.5 3.359375-7.5 7.5v7.824219c0 4.144531 3.359375 7.503906 7.5 7.503906 4.144531 0 7.5-3.359375 7.5-7.503906v-7.824219c0-4.140625-3.355469-7.5-7.5-7.5zm0 0"/><path d="m148.902344 188.78125c-4.144532 0-7.503906 3.359375-7.503906 7.5v7.824219c0 4.144531 3.359374 7.503906 7.503906 7.503906 4.140625 0 7.5-3.359375 7.5-7.503906v-7.824219c0-4.140625-3.359375-7.5-7.5-7.5zm0 0"/><path d="m201.277344 206.335938c-3.117188-2.726563-7.855469-2.410157-10.582032.710937-.128906.144531-.617187.617187-1.550781.617187-.9375 0-1.421875-.472656-1.550781-.617187-2.726562-3.121094-7.464844-3.441406-10.585938-.710937-3.117187 2.726562-3.4375 7.464843-.710937 10.582031 3.195313 3.652343 7.875 5.75 12.847656 5.75 4.96875 0 9.652344-2.09375 12.84375-5.75 2.726563-3.117188 2.410157-7.855469-.710937-10.582031zm0 0"/><path d="m7.585938 186.328125c4.140624.230469 7.675781-2.941406 7.902343-7.074219 2.371094-42.765625 20.363281-83.007812 50.667969-113.308594 32.851562-32.851562 76.527344-50.945312 122.988281-50.945312 46.460938 0 90.136719 18.09375 122.988281 50.945312 60.101563 60.101563 66.929688 153.601563 20.503907 221.300782-12.386719 18.066406-28.214844 33.757812-46.375 46.007812-.160157.109375-.3125.230469-.464844.347656-28.367187 19.039063-61.722656 29.265626-96.652344 29.265626-46.460937 0-90.136719-18.089844-122.988281-50.941407-28.335938-28.335937-45.597656-64.34375-49.910156-104.125-.449219-4.117187-4.148438-7.09375-8.265625-6.644531-4.121094.445312-7.097657 4.144531-6.648438 8.265625 4.621094 42.597656 23.875 82.769531 54.214844 113.109375 35.6875 35.6875 83.132813 55.339844 133.597656 55.339844 35.480469 0 69.464844-9.726563 98.917969-27.898438 16.617188 26.929688 53.867188 82.546875 108.304688 136.984375 16.527343 16.527344 37.636718 25.042969 57.425781 25.042969 15.800781 0 30.761719-5.429688 41.875-16.542969 25.035156-25.03125 21.222656-69.578125-8.5-99.300781-8.871094-8.871094-18.230469-17.734375-27.820313-26.351562-3.082031-2.769532-7.828125-2.515626-10.59375.566406-2.769531 3.082031-2.515625 7.824218.566406 10.59375 9.394532 8.4375 18.558594 17.117187 27.238282 25.800781 23.871094 23.871094 27.6875 58.898437 8.5 78.085937-19.183594 19.183594-54.210938 15.367188-78.082032-8.5-53.710937-53.710937-90.347656-108.585937-106.457031-134.761718.140625.199218 20.105469-16.941406 22.222657-19.058594 6.929687-6.929688 13.019531-14.472656 19.015624-22.199219.011719-.011719.019532-.023437.027344-.035156 18.609375 11.449219 50.28125 32.363281 85.863282 61.945313 3.1875 2.652343 7.914062 2.214843 10.5625-.972657 2.648437-3.183593 2.210937-7.914062-.972657-10.5625-35.949219-29.886719-68.023437-51.121093-87.09375-62.878906 44.699219-72.777344 35.574219-169.511719-27.402343-232.492187-35.6875-35.683594-83.132813-55.335938-133.597657-55.335938-50.464843 0-97.910156 19.652344-133.597656 55.335938-32.917969 32.917968-52.460937 76.632812-55.035156 123.085937-.230469 4.136719 2.9375 7.675781 7.074219 7.90625zm0 0"/><path d="m189.144531 287.746094c40.699219 0 75.296875-25.789063 87.375-61.410156 14.058594-1.464844 25.054688-13.382813 25.054688-27.820313 0-7.316406-2.824219-13.980469-7.433594-18.96875-7.789063-40.945313-40.664063-74.0625-82.589844-82.820313-.378906-.078124-.765625-.144531-1.148437-.199218-5.121094-.75-9.378906-2.625-12.046875-4.070313-5.644531-3.054687-12.773438-3.054687-18.421875 0-2.671875 1.445313-6.925782 3.320313-12.046875 4.070313-.382813.054687-.769531.121094-1.152344.199218-41.921875 8.757813-74.796875 41.875-82.585937 82.824219-4.609376 4.988281-7.433594 11.652344-7.433594 18.964844 0 14.4375 10.996094 26.355469 25.054687 27.820313 12.074219 35.621093 46.675781 61.410156 87.375 61.410156zm0-15c-37.058593 0-68.078125-25.402344-75.34375-59.101563-3.332031-15.460937-1.578125-31.652343 9.78125-43.488281 16.460938-17.148438 42.570313-14.667969 63.214844-7.871094 1.523437.5 3.171875.5 4.695313 0 14.042968-4.628906 29.691406-7.242187 44.230468-3.367187 11.691406 3.117187 21.683594 11.609375 26.722656 22.695312 4.503907 9.910157 4.292969 21.191407 2.121094 31.65625-.023437.125-.050781.246094-.078125.367188-7.261719 33.703125-38.28125 59.109375-75.34375 59.109375zm91.253907-63.1875c.023437-.15625.035156-.316406.054687-.476563.867187-7.234375.980469-14.671875-.484375-21.839843.789062.449218 1.542969.976562 2.238281 1.597656 2.730469 2.433594 4.367188 5.976562 4.367188 9.675781 0 4.660156-2.472657 8.757813-6.175781 11.042969zm-110.601563-98.144532c.082031-.019531.167969-.03125.253906-.042968 5.859375-.855469 11.582031-2.777344 17.019531-5.71875 1.277344-.691406 2.871094-.691406 4.148438 0 5.4375 2.9375 11.164062 4.863281 17.019531 5.71875.082031.011718.171875.023437.25.042968 31.925781 6.667969 57.746094 29.707032 67.84375 59.261719-.441406-.042969-.890625-.074219-1.335937-.101562-.460938-.023438-.925782-.035157-1.390625-.035157-2.09375-3.621093-4.582031-6.992187-7.421875-10.066406-7.132813-7.722656-16.4375-13.339844-26.59375-16.046875-11.269532-3.007812-23.984375-3.121093-37.765625-.375-4.132813.824219-8.359375 1.894531-12.679688 3.234375-6.28125-1.949218-12.375-3.339844-18.257812-4.195312-11.640625-1.695313-22.453125-1.261719-32.183594 1.332031-14.210937 3.792969-26.664063 13.390625-34.019531 26.117187-.464844 0-2.589844.121094-2.726563.132813 10.097657-29.550781 35.917969-52.589844 67.839844-59.257813zm-71.910156 98.144532c-3.699219-2.285156-6.171875-6.382813-6.171875-11.042969 0-4.648437 2.585937-8.976563 6.605468-11.273437-.042968.21875-.074218.4375-.117187.652343-.496094 2.574219-.820313 5.1875-.945313 7.804688-.214843 4.484375.035157 8.964843.582032 13.417969.019531.148437.03125.296874.046875.441406zm0 0"/></svg>