<svg height="512pt" viewBox="-69 0 512 512.00024" width="512pt" xmlns="http://www.w3.org/2000/svg"><path d="m187.464844 329.707031c78.472656 0 142.3125-63.839843 142.3125-142.308593 0-78.472657-63.839844-142.3125-142.3125-142.3125-32.675782 0-64.597656 11.359374-89.882813 31.984374-3.210937 2.617188-3.691406 7.34375-1.074219 10.554688 2.621094 3.210938 7.34375 3.691406 10.554688 1.070312 22.617188-18.445312 51.171875-28.605468 80.402344-28.605468 70.199218 0 127.308594 57.109375 127.308594 127.308594 0 70.195312-57.109376 127.308593-127.308594 127.308593-70.199219 0-127.308594-57.113281-127.308594-127.308593 0-28.90625 9.445312-56.152344 27.308594-78.792969 2.566406-3.25 2.011718-7.96875-1.242188-10.535157-3.25-2.566406-7.96875-2.007812-10.535156 1.242188-19.976562 25.316406-30.535156 55.773438-30.535156 88.085938 0 78.46875 63.84375 142.308593 142.3125 142.308593zm0 0"/><path d="m123.746094 190.402344v-12.890625c0-4.144531-3.359375-7.5-7.5-7.5-4.144532 0-7.503906 3.355469-7.503906 7.5v12.890625c0 4.140625 3.359374 7.5 7.503906 7.5 4.140625 0 7.5-3.359375 7.5-7.5zm0 0"/><path d="m266.191406 190.402344v-12.890625c0-4.144531-3.359375-7.5-7.503906-7.5-4.140625 0-7.5 3.355469-7.5 7.5v12.890625c0 4.140625 3.359375 7.5 7.5 7.5 4.144531 0 7.503906-3.359375 7.503906-7.5zm0 0"/><path d="m187.464844 204.785156c9.015625 0 17.484375-3.769531 23.226562-10.34375 2.730469-3.121094 2.410156-7.855468-.707031-10.585937-3.121094-2.726563-7.859375-2.40625-10.585937.710937-2.898438 3.3125-7.246094 5.214844-11.933594 5.214844-4.683594 0-9.03125-1.902344-11.929688-5.214844-2.726562-3.117187-7.464844-3.4375-10.585937-.710937-3.117188 2.726562-3.4375 7.464843-.710938 10.585937 5.746094 6.574219 14.210938 10.34375 23.226563 10.34375zm0 0"/><path d="m4.492188 200.289062 11.28125 14.300782-6.308594 17.089844c-3.351563 9.066406-.074219 19.152343 7.964844 24.519531l15.152343 10.117187-.722656 18.199219c-.382813 9.664063 5.847656 18.238281 15.15625 20.863281l17.53125 4.9375 4.941406 17.53125c1.757813 6.253906 6.324219 11.175782 12.085938 13.574219v152.285156c0 13.023438 13.886719 22.070313 25.816406 16.730469l78.714844-35.222656c.863281-.386719 1.855469-.386719 2.71875 0 0 0 78.65625 35.195312 78.714843 35.222656 11.941407 5.34375 25.820313-3.703125 25.820313-16.730469v-43.042969c0-4.140624-3.359375-7.5-7.503906-7.5-4.140625 0-7.5 3.359376-7.5 7.5v43.042969c0 2.390625-2.511719 4.011719-4.6875 3.039063l-78.714844-35.222656c-4.757813-2.132813-10.214844-2.132813-14.972656-.003907 0 0-78.714844 35.226563-78.71875 35.226563-2.199219.976562-4.683594-.660156-4.683594-3.039063v-150.949219l11.96875-.476562 6.523437 9.773438v100.902343c0 7.980469 8.566407 13.511719 15.832032 10.261719 0 0 41.507812-18.574219 41.523437-18.582031 9.871094-4.414063 20.972657-4.074219 30.777344.3125 0 0 40.78125 18.25 40.824219 18.269531 7.3125 3.273438 15.832031-2.253906 15.832031-10.261719v-100.902343l6.523437-9.773438 11.972657.476562v78.042969c0 4.144531 3.355469 7.503907 7.5 7.503907s7.5-3.359376 7.5-7.503907v-79.378906c5.761719-2.398437 10.328125-7.320313 12.089843-13.574219l4.9375-17.535156 17.535157-4.9375c9.304687-2.621094 15.539062-11.199219 15.152343-20.859375l-.722656-18.203125 15.152344-10.113281c8.042969-5.367188 11.316406-15.453125 7.96875-24.519531l-6.3125-17.089844 11.28125-14.300782c5.992188-7.589843 5.992188-18.191406 0-25.785156l-11.28125-14.300781 6.3125-17.085937c3.347656-9.070313.070312-19.15625-7.96875-24.523438l-15.152344-10.113281.722656-18.203125c.382813-9.664063-5.847656-18.242188-15.152343-20.859375l-17.535157-4.9375-4.9375-17.535157c-2.589843-9.199218-11.238281-15.535156-20.859374-15.15625l-18.203126.722657s-10.097656-15.125-10.113281-15.148438c-5.28125-7.910156-15.617187-11.257812-24.523437-7.96875l-17.085938 6.3125s-14.292968-11.277343-14.300781-11.28125c-7.480469-5.902343-18.3125-5.898437-25.785156 0l-14.300781 11.28125s-17.082032-6.3125-17.089844-6.3125c-8.9375-3.300781-19.230469.042969-24.519532 7.96875l-10.113281 15.148438-18.203125-.722657c-9.613281-.378906-18.269531 5.957032-20.859375 15.15625l-4.9375 17.535157-17.535156 4.9375c-9.308594 2.617187-15.539063 11.195312-15.15625 20.859375l.722656 18.199218-15.152343 10.117188c-8.039063 5.367188-11.316407 15.449219-7.964844 24.519531l6.308594 17.089844-11.28125 14.300781c-5.988282 7.59375-5.988282 18.195313 0 25.785156zm240.363281 246.863282s-35.523438-15.894532-35.527344-15.898438c-13.671875-6.117187-29.300781-6.453125-43.03125-.308594l-36.222656 16.207032v-81.308594c.023437.003906.042969.007812.066406.015625 4.242187 1.144531 8.90625 1.070313 13.042969-.457031l17.085937-6.3125 14.300781 11.28125c7.59375 5.988281 18.195313 5.988281 25.785157 0l14.300781-11.28125 17.089844 6.3125c4.183594 1.550781 8.769531 1.660156 13.050781.453125.019531-.003907.039063-.007813.058594-.011719zm-228.585938-263.355469 13.886719-17.601563c1.617188-2.050781 2.054688-4.792968 1.148438-7.246093l-7.769532-21.03125c-.933594-2.53125-.019531-5.347657 2.226563-6.84375l18.644531-12.449219c2.175781-1.453125 3.433594-3.929688 3.332031-6.539062l-.890625-22.402344c-.105468-2.699219 1.632813-5.09375 4.234375-5.824219l21.582031-6.078125c2.511719-.707031 4.476563-2.671875 5.183594-5.1875l6.078125-21.582031c.703125-2.492188 3.003907-4.234375 5.589844-4.234375l22.640625.894531c2.609375.101563 5.085938-1.160156 6.535156-3.332031l12.449219-18.648438c1.082031-1.617187 2.886719-2.585937 4.835937-2.585937.6875 0 1.363282.125 2.011719.363281l21.03125 7.765625c2.449219.90625 5.195313.472656 7.246094-1.144531l17.601563-13.886719c2.070312-1.636719 5.125-1.636719 7.199218 0l17.601563 13.886719c2.050781 1.617187 4.792969 2.050781 7.246093 1.144531 0 0 21.019532-7.761719 21.03125-7.765625 2.5-.925781 5.363282.003906 6.847657 2.222656l12.449219 18.648438c1.449218 2.171875 3.921874 3.433594 6.535156 3.332031l22.402344-.890625.234374-.003906c2.589844 0 4.886719 1.742187 5.589844 4.234375l6.078125 21.582031c.707031 2.515625 2.671875 4.480469 5.1875 5.1875l21.582031 6.078125c2.597657.730469 4.335938 3.125 4.230469 5.824219l-.890625 22.402344c-.101562 2.613281 1.160156 5.085937 3.332032 6.539062l18.648437 12.449219c2.246094 1.496093 3.160156 4.3125 2.222656 6.84375l-7.769531 21.03125c-.902344 2.453125-.46875 5.195312 1.148438 7.246093l13.886718 17.605469c1.671875 2.117188 1.671875 5.078125 0 7.195313l-13.886718 17.601562c-1.617188 2.050782-2.050782 4.796875-1.148438 7.246094l7.769531 21.035156c.9375 2.53125.023438 5.347656-2.222656 6.84375l-18.648437 12.449219c-2.171876 1.449219-3.433594 3.925781-3.332032 6.535156l.890625 22.40625c.105469 2.695313-1.632812 5.089844-4.230469 5.824219l-21.582031 6.074219c-2.515625.710937-4.480469 2.675781-5.1875 5.1875l-6.078125 21.582031c-.695312 2.464844-2.945312 4.183594-5.492187 4.226562-.078125.003907-.160157.003907-.242188.003907l-22.492187-.886719c-2.601563-.101562-5.085938 1.15625-6.539063 3.328125l-12.449219 18.648437c-1.46875 2.203126-4.359374 3.144532-6.84375 2.226563l-21.035156-7.769531c-2.449218-.90625-5.191406-.46875-7.242187 1.148437l-17.605469 13.886719c-2.070312 1.632812-5.125 1.632812-7.195312 0l-17.605469-13.886719c-2.011719-1.589843-4.835938-2.042969-7.242188-1.148437l-21.035156 7.769531c-2.980469 1.105469-5.652344-.4375-7.292969-2.894531l-12.003906-17.980469c-1.449219-2.171875-3.921875-3.433594-6.535156-3.328125 0 0-22.402344.886719-22.414063.886719-2.652343.015625-5.078125-1.625-5.8125-4.230469l-6.078125-21.582031c-.707031-2.511719-2.675781-4.476563-5.1875-5.1875l-21.582031-6.074219c-2.597656-.730469-4.335937-3.128906-4.230469-5.824219l.890625-22.40625c.101563-2.609375-1.160156-5.085937-3.332031-6.535156l-18.648438-12.449219c-2.242187-1.496094-3.15625-4.3125-2.222656-6.84375l7.769532-21.03125c.902343-2.453125.46875-5.195312-1.148438-7.246094l-13.886719-17.605468c-1.671875-2.117188-1.671875-5.078125 0-7.199219zm0 0"/></svg>