<svg height="512pt" viewBox="0 -48 512.00025 512" width="512pt" xmlns="http://www.w3.org/2000/svg"><path d="m183.039062 79.242188c4.140626 0 7.5-3.359376 7.5-7.5v-13.207032c0-4.140625-3.359374-7.5-7.5-7.5-4.140624 0-7.5 3.359375-7.5 7.5v13.207032c0 4.140624 3.359376 7.5 7.5 7.5zm0 0"/><path d="m328.957031 79.242188c4.144531 0 7.5-3.359376 7.5-7.5v-13.207032c0-4.140625-3.355469-7.5-7.5-7.5-4.140625 0-7.5 3.359375-7.5 7.5v13.207032c0 4.140624 3.359375 7.5 7.5 7.5zm0 0"/><path d="m256 86.289062c9.183594 0 17.804688-3.839843 23.652344-10.53125 2.726562-3.117187 2.410156-7.855468-.710938-10.582031-3.117187-2.730469-7.855468-2.410156-10.582031.707031-3 3.433594-7.507813 5.402344-12.359375 5.402344-4.855469 0-9.359375-1.96875-12.363281-5.402344-2.726563-3.117187-7.460938-3.4375-10.582031-.707031-3.121094 2.726563-3.4375 7.464844-.710938 10.582031 5.851562 6.691407 14.472656 10.53125 23.65625 10.53125zm0 0"/><path d="m509.660156 126.367188c3.746094-10.753907 2.96875-22.761719-2.136718-32.960938l-35.085938-69.980469c-7.238281-14.449219-21.777344-23.425781-37.941406-23.425781h-356.992188c-16.167968 0-30.707031 8.976562-37.941406 23.425781l-35.089844 69.984375c-5.101562 10.195313-5.878906 22.207032-2.125 32.992188 1.804688 5.191406 4.574219 9.933594 8.238282 14.089844l32.644531 37.046874c2.738281 3.109376 7.476562 3.40625 10.585937.667969s3.40625-7.480469.667969-10.585937l-31.898437-36.195313h93.992187l109.75 231.199219-152.164063-172.671875c-2.738281-3.109375-7.476562-3.40625-10.585937-.667969-3.105469 2.738282-3.40625 7.480469-.667969 10.585938 0 0 187.367188 212.621094 187.410156 212.667968 1.441407 1.636719 3.523438 2.597657 5.703126 2.601563 2.140624.007813 4.164062-.984375 5.601562-2.539063l.027344-.027343c.007812-.011719 239.761718-272.082031 239.761718-272.082031 3.660157-4.15625 6.433594-8.898438 8.246094-14.125zm-172.050781-111.367188 41.855469 101.421875h-246.933594l41.859375-101.421875zm96.886719 0c10.453125 0 19.851562 5.804688 24.53125 15.148438l35.082031 69.980468c2.527344 5.039063 3.414063 10.769532 2.609375 16.292969h-101.023438l-41.859374-101.421875zm-416.609375 85.128906 35.085937-69.984375c4.675782-9.339843 14.078125-15.144531 24.53125-15.144531h80.65625l-41.855468 101.421875h-101.023438c-.804688-5.523437.082031-11.253906 2.605469-16.292969zm308.230469 177.289063c1.773437-3.742188.183593-8.214844-3.558594-9.992188-3.746094-1.773437-8.21875-.179687-9.996094 3.5625l-56.5625 119.160157-122.8125-258.722657h245.625l-53.476562 112.65625c-1.777344 3.742188-.183594 8.21875 3.558593 9.992188 3.742188 1.777343 8.214844.183593 9.992188-3.558594l56.53125-119.089844h93.992187l-203.742187 231.199219zm0 0"/></svg>