<svg height="512pt" viewBox="0 -4 512.00023 512" width="512pt" xmlns="http://www.w3.org/2000/svg"><path d="m256 219c-68.574219 0-124.367188 55.789062-124.367188 124.363281s55.792969 124.367188 124.367188 124.367188 124.367188-55.792969 124.367188-124.367188-55.792969-124.363281-124.367188-124.363281zm0 233.730469c-60.304688 0-109.367188-49.0625-109.367188-109.367188 0-60.304687 49.0625-109.363281 109.367188-109.363281s109.367188 49.058594 109.367188 109.363281c0 60.304688-49.0625 109.367188-109.367188 109.367188zm0 0"/><path d="m192.582031 327.0625c-4.140625 0-7.5 3.355469-7.5 7.5v11.476562c0 4.140626 3.359375 7.5 7.5 7.5s7.5-3.359374 7.5-7.5v-11.476562c0-4.144531-3.359375-7.5-7.5-7.5zm0 0"/><path d="m319.417969 327.0625c-4.140625 0-7.5 3.355469-7.5 7.5v11.476562c0 4.140626 3.359375 7.5 7.5 7.5 4.144531 0 7.5-3.359374 7.5-7.5v-11.476562c0-4.144531-3.355469-7.5-7.5-7.5zm0 0"/><path d="m276.589844 339.59375c-3.121094-2.726562-7.855469-2.40625-10.585938.710938-2.421875 2.769531-6.066406 4.359374-10.003906 4.359374s-7.582031-1.589843-10.003906-4.359374c-2.726563-3.121094-7.464844-3.4375-10.585938-.710938-3.117187 2.726562-3.4375 7.464844-.710937 10.582031 5.273437 6.03125 13.035156 9.488281 21.300781 9.488281s16.027344-3.457031 21.300781-9.488281c2.726563-3.117187 2.40625-7.855469-.710937-10.582031zm0 0"/><path d="m511.074219 3.890625c-1.316407-2.398437-3.835938-3.890625-6.574219-3.890625h-150.488281c-2.566407 0-4.953125 1.3125-6.328125 3.476562l-91.683594 144.191407-91.683594-144.191407c-1.375-2.164062-3.761718-3.476562-6.328125-3.476562h-150.488281c-2.738281 0-5.253906 1.492188-6.574219 3.890625-1.316406 2.398437-1.222656 5.324219.246094 7.632813l139.65625 219.644531c-28.261719 29.003906-45.703125 68.597656-45.703125 112.195312 0 88.707031 72.167969 160.875 160.875 160.875 38.394531 0 75.574219-13.75 104.6875-38.722656 3.144531-2.699219 3.507812-7.433594.808594-10.578125-2.699219-3.144531-7.433594-3.507812-10.574219-.808594-26.398437 22.640625-60.105469 35.109375-94.921875 35.109375-80.4375 0-145.875-65.4375-145.875-145.875 0-64.070312 41.519531-118.625 99.066406-138.171875.074219-.027344.152344-.050781.226563-.078125 30.175781-10.089843 63.246093-10.003906 93.398437.078125 57.542969 19.550782 99.0625 74.105469 99.0625 138.171875 0 33.371094-10.972656 64.78125-31.734375 90.832031-2.582031 3.238282-2.046875 7.957032 1.191407 10.539063 3.238281 2.582031 7.957031 2.046875 10.539062-1.191406 22.898438-28.734375 35-63.375 35-100.179688 0-43.597656-17.441406-83.191406-45.703125-112.195312l139.65625-219.644531c1.46875-2.308594 1.5625-5.234376.246094-7.632813zm-102.78125 11.109375h32.386719l-116.203126 182.761719c-8.460937-3.988281-17.238281-7.21875-26.246093-9.664063zm-50.164063 0h32.386719l-107.898437 169.695312c-.125-.019531-2.394532-.378906-3.410157-.527343l-14.320312-22.523438zm-97.726562 167.546875c-.023438 0-.050782 0-.074219 0-.566406-.015625-1.136719-.015625-1.707031-.027344-9.695313-.15625-19.601563.558594-29.242188 2.175781l-107.894531-169.695312h32.386719zm-206.859375-167.546875s35.40625 55.683594 35.417969 55.703125c2.191406 3.449219 6.90625 4.496094 10.355468 2.304687 3.492188-2.222656 4.527344-6.859374 2.304688-10.355468l-30.300782-47.652344h32.386719l110.0625 173.097656c-9.007812 2.445313-17.785156 5.675782-26.246093 9.664063l-70.378907-110.691407c-2.191406-3.441406-6.90625-4.496093-10.351562-2.304687-3.496094 2.222656-4.527344 6.859375-2.304688 10.355469l69.738281 109.679687c-7.863281 4.648438-15.320312 9.960938-22.292968 15.878907l-130.777344-205.679688zm306.523437 205.679688c-6.972656-5.917969-14.429687-11.230469-22.292968-15.878907l120.683593-189.800781h32.386719zm0 0"/></svg>