<svg height="511pt" viewBox="-5 1 511 511.9995" width="511pt" xmlns="http://www.w3.org/2000/svg"><path d="m120.625 425.273438c34.152344 37.296874 74.738281 65.847656 120.628906 84.855468 6.015625 2.496094 12.96875 2.492188 18.988282 0 45.890624-19.007812 86.472656-47.558594 120.625-84.855468 28.34375-30.953126 52.53125-68.203126 71.882812-110.714844 34.863281-76.566406 45.265625-151.429688 48.121094-180.0625 1.25-12.53125-7.125-24.007813-19.480469-26.6875-106.84375-23.207032-186.117187-79.359375-215.242187-102.421875-9.070313-7.179688-21.734376-7.183594-30.800782 0-15.847656 12.546875-49.328125 37.019531-95.5625 59.933593-3.710937 1.839844-5.226562 6.339844-3.386718 10.050782 1.835937 3.710937 6.335937 5.230468 10.050781 3.390625 47.460937-23.527344 81.902343-48.703125 98.210937-61.617188 3.582032-2.839843 8.589844-2.839843 12.175782 0 29.941406 23.714844 111.457031 81.449219 221.371093 105.316407 4.90625 1.066406 8.230469 5.601562 7.738281 10.546874-2.78125 27.890626-12.914062 100.804688-46.84375 175.335938-41.5 91.148438-103.609374 154.375-184.601562 187.925781-2.386719.988281-5.121094.988281-7.507812 0-80.992188-33.550781-143.101563-96.777343-184.601563-187.925781-33.929687-74.53125-44.0625-147.445312-46.84375-175.335938-.492187-4.945312 2.835937-9.476562 7.742187-10.542968 32.28125-7.011719 64.851563-17.597656 96.796876-31.460938 3.800781-1.648437 5.542968-6.066406 3.898437-9.867187-1.648437-3.796875-6.066406-5.542969-9.867187-3.894531-31.054688 13.476562-62.683594 23.757812-94.011719 30.5625-12.355469 2.683593-20.730469 14.160156-19.480469 26.691406 2.851562 28.632812 13.257812 103.496094 48.117188 180.0625 19.355468 42.511718 43.539062 79.761718 71.882812 110.714844zm0 0"/><path d="m356.5625 368.921875c-2.550781 3.265625-1.96875 7.980469 1.296875 10.527344s7.976563 1.96875 10.527344-1.296875c18.253906-23.386719 34.394531-50.359375 47.964843-80.167969 21.230469-46.628906 35.054688-96.800781 42.277344-147.484375.539063-3.78125-1.847656-7.359375-5.542968-8.320312-92.449219-23.957032-163.671876-69.722657-197.898438-94.871094-2.515625-1.851563-6.363281-1.851563-8.882812 0-34.226563 25.148437-105.449219 70.917968-197.894532 94.863281-3.699218.957031-6.085937 4.539063-5.546875 8.316406 7.230469 50.695313 21.039063 100.847657 42.28125 147.5 37.207031 81.722657 91.875 139.363281 162.511719 171.332031 1.910156.867188 4.269531.867188 6.207031-.011718 35.550781-16.089844 67.433594-38.992188 94.765625-68.078125 2.835938-3.015625 2.691406-7.765625-.328125-10.601563-3.019531-2.835937-7.765625-2.6875-10.601562.332032-23.242188 24.726562-49.925781 44.75-79.453125 59.632812v-185.171875h155.460937c-3.453125 9.023437-7.144531 17.851563-11.007812 26.351563-13.082031 28.734374-28.605469 54.691406-46.136719 77.148437zm-113.316406-300.996094v182.496094h-160.929688c-12.851562-37.105469-19.859375-71.269531-23.621094-95.464844 82.09375-22.375 147.210938-61.089843 184.550782-87.03125zm-144.449219 223.847657c-3.871094-8.5-7.558594-17.328126-11.011719-26.351563h155.460938v185.175781c-62.125-31.285156-110.683594-84.660156-144.449219-158.824218zm159.449219-41.351563v-182.496094c37.339844 25.9375 102.457031 64.65625 184.554687 87.042969-3.761719 24.183594-10.769531 58.339844-23.625 95.453125zm0 0"/></svg>