<svg height="512pt" viewBox="0 -104 512 512" width="512pt" xmlns="http://www.w3.org/2000/svg"><path d="m355.136719 114.085938c-3.660157 1.9375-5.050781 6.480468-3.109375 10.140624 1.941406 3.660157 6.480468 5.050782 10.140625 3.109376 9.5625-5.074219 20.359375-7.757813 31.226562-7.757813 36.808594 0 66.753907 29.949219 66.753907 66.757813 0 36.804687-29.945313 66.753906-66.753907 66.753906-36.804687 0-66.753906-29.949219-66.753906-66.753906 0-15.5 5.433594-30.605469 15.300781-42.527344 2.640625-3.191406 2.195313-7.917969-.996094-10.5625-3.191406-2.640625-7.917968-2.191406-10.558593.996094-12.089844 14.609374-18.746094 33.105468-18.746094 52.089843 0 45.082031 36.675781 81.753907 81.753906 81.753907 45.082031 0 81.753907-36.671876 81.753907-81.753907 0-45.078125-36.671876-81.753906-81.753907-81.753906-13.308593 0-26.539062 3.289063-38.257812 9.507813zm0 0"/><path d="m118.605469 268.085938c45.078125 0 81.753906-36.675782 81.753906-81.753907s-36.675781-81.753906-81.753906-81.753906c-45.082031 0-81.753907 36.675781-81.753907 81.757813 0 45.078124 36.671876 81.75 81.753907 81.75zm0-148.507813c36.808593 0 66.753906 29.945313 66.753906 66.753906 0 36.808594-29.945313 66.753907-66.753906 66.753907-36.808594 0-66.753907-29.945313-66.753907-66.75 0-36.8125 29.945313-66.757813 66.753907-66.757813zm0 0"/><path d="m256 88.503906c14.105469 0 25.578125-11.472656 25.578125-25.578125s-11.472656-25.578125-25.578125-25.578125-25.578125 11.472656-25.578125 25.578125 11.472656 25.578125 25.578125 25.578125zm0-36.15625c5.832031 0 10.578125 4.746094 10.578125 10.578125s-4.746094 10.578125-10.578125 10.578125-10.578125-4.746094-10.578125-10.578125 4.746094-10.578125 10.578125-10.578125zm0 0"/><path d="m118.605469 304.9375c55.367187 0 75.074219-10.613281 92.464843-19.976562 12.460938-6.710938 22.308594-12.011719 44.929688-12.011719s32.464844 5.300781 44.929688 12.011719c17.390624 9.363281 37.097656 19.976562 92.464843 19.976562 65.398438 0 118.605469-53.207031 118.605469-118.605469 0-65.398437-53.207031-118.601562-118.605469-118.601562-21.125 0-32.636719-11.597657-47.210937-26.285157-18.328125-18.464843-41.140625-41.445312-90.183594-41.445312s-71.855469 22.980469-90.183594 41.445312c-14.574218 14.6875-26.085937 26.285157-47.210937 26.285157-23.277344 0-45.816407 6.746093-65.183594 19.511719-3.457031 2.277343-4.414063 6.929687-2.136719 10.386718 2.28125 3.460938 6.933594 4.417969 10.390625 2.136719 16.910157-11.144531 36.597657-17.035156 56.929688-17.035156 57.125 0 103.601562 46.472656 103.601562 103.601562 0 57.128907-46.476562 103.605469-103.601562 103.605469-57.128907 0-103.605469-46.476562-103.605469-103.605469 0-25.238281 9.1875-49.558593 25.867188-68.476562 2.738281-3.109375 2.441406-7.847657-.667969-10.585938-3.105469-2.742187-7.84375-2.441406-10.582031.664063-19.097657 21.660156-29.617188 49.503906-29.617188 78.398437 0 65.398438 53.207031 118.605469 118.605469 118.605469zm378.394531-118.605469c0 57.128907-46.476562 103.605469-103.605469 103.605469-57.125 0-103.601562-46.476562-103.601562-103.605469 0-55.976562 47.554687-103.601562 103.601562-103.601562 57.128907 0 103.605469 46.476562 103.605469 103.601562zm-344.324219-113.617187c8.949219-5.75 16.429688-13.289063 23.785157-20.699219 18.0625-18.199219 36.742187-37.015625 79.539062-37.015625s61.476562 18.816406 79.539062 37.015625c7.355469 7.410156 14.839844 14.949219 23.785157 20.699219-.125.039062-.246094.082031-.371094.121094-21.519531 6.539062-40.964844 19.398437-55.609375 36.445312-18.203125 21.183594-28.550781 48.921875-28.550781 77.050781 0 24.1875 7.800781 48.796875 21.941406 68.65625 4.855469 6.820313 10.445313 13.207031 16.65625 18.820313.441406.40625 1.800781 1.621094 2.039063 1.828125-2.582032-1.292969-5.007813-2.601563-7.386719-3.882813-13.1875-7.097656-25.640625-13.804687-52.042969-13.804687s-38.855469 6.707031-52.042969 13.804687c-2.378906 1.28125-4.804687 2.589844-7.386719 3.882813 5.503907-4.804688 10.574219-10.132813 15.101563-15.867188 17.5625-22.242187 26.679687-50.488281 25.410156-78.800781-1.128906-25.214844-10.574219-49.882812-26.519531-69.449219-.089844-.113281-.179688-.230469-.273438-.34375-14.828124-18.054687-34.917968-31.484375-57.242187-38.339843-.125-.039063-.246094-.082032-.371094-.121094zm0 0"/></svg>