<svg height="511pt" viewBox="0 0 511.996 511" width="511pt" xmlns="http://www.w3.org/2000/svg"><path d="m27.757812 321.777344c-11.980468 0-20.878906 12.09375-17.109374 23.515625 13.753906 41.652343 52.488281 69.636719 96.378906 69.636719s82.621094-27.984376 96.375-69.636719c3.777344-11.441407-5.128906-23.515625-17.109375-23.515625h-4.914063l-26.285156-136.640625h66.410156v200.796875c0 36.375-53.570312 61.664062-62.320312 65.546875-28.714844.878906-51.808594 24.496093-51.808594 53.417969 0 4.144531 3.359375 7.5 7.5 7.5h282.246094c4.140625 0 7.5-3.355469 7.5-7.5 0-28.921876-23.09375-52.539063-51.808594-53.417969-8.75-3.882813-62.320312-29.171875-62.320312-65.546875v-200.796875h66.414062l-26.289062 136.640625s-4.910157 0-4.914063 0c-11.988281 0-20.878906 12.09375-17.109375 23.515625 13.757812 41.652343 52.488281 69.640625 96.378906 69.640625 16.480469 0 32.859375-4.054688 47.363282-11.726563 3.660156-1.933593 5.0625-6.472656 3.125-10.136719-1.9375-3.660156-6.476563-5.058593-10.136719-3.121093-12.351563 6.53125-26.304688 9.980469-40.351563 9.980469-37.40625 0-70.414062-23.847657-82.136718-59.339844-.621094-1.894532.9375-3.8125 2.867187-3.8125h158.535156c1.945313 0 3.492188 1.921875 2.867188 3.8125-4.046875 12.25-10.976563 23.671875-20.039063 33.023437-2.882812 2.976563-2.808594 7.726563.167969 10.605469 2.976563 2.882812 7.722656 2.808594 10.605469-.164062 10.628906-10.972657 18.757812-24.375 23.507812-38.761719 3.773438-11.433594-5.136718-23.515625-17.109375-23.515625h-4.914062l-26.289063-136.640625h42.585938c9.027344 0 16.375-7.347657 16.375-16.375v-20.910157c0-9.03125-7.347656-16.375-16.375-16.375h-205.128906v-26.40625c14.242187-10.574218 23.496093-27.515624 23.496093-46.582031 0-31.976562-26.015625-57.992187-57.992187-57.992187-31.976563 0-57.992188 26.015625-57.992188 57.992187 0 19.066407 9.253906 36.007813 23.496094 46.582031v26.402344h-130.90625c-4.140625 0-7.5 3.359375-7.5 7.5 0 4.144532 3.359375 7.5 7.5 7.5h130.910156v23.660156h-205.128906c-.757812 0-1.375-.617187-1.375-1.375v-20.910156c0-.757812.617188-1.375 1.375-1.375h44.375c4.144531 0 7.5-3.359375 7.5-7.5s-3.355469-7.5-7.5-7.5h-44.375c-9.03125.003906-16.375 7.351563-16.375 16.378906v20.910157c0 9.027343 7.34375 16.375 16.375 16.375h42.585938l-26.289063 136.640625s-4.90625 0-4.914063 0zm361.132813 175.621094h-265.777344c3.496094-17.628907 19.082031-30.957032 37.726563-30.957032h190.320312c18.644532 0 34.230469 13.328125 37.730469 30.957032zm-42.996094-175.621094 26.285157-136.640625h15.269531l-26.285157 136.640625zm61.328125-136.640625 26.285156 136.640625h-57.070312l26.289062-136.640625zm56.832032 136.640625h-15.273438l-26.285156-136.640625h15.269531zm31.570312-175.300782c.757812 0 1.375.617188 1.375 1.375v20.910157c0 .757812-.617188 1.375-1.375 1.375h-205.128906v-23.660157zm-282.617188-87.984374c0-23.707032 19.289063-42.992188 42.992188-42.992188s42.992188 19.285156 42.992188 42.992188c0 15.398437-8.144532 28.921874-20.34375 36.519531-13.71875 8.535156-31.578126 8.535156-45.292969 0-12.203125-7.59375-20.347657-21.121094-20.347657-36.519531zm26.125 55.484374c11.835938 3.59375 24.714844 3.289063 36.363282-.867187v272.824219c0 29.550781 25.230468 52.015625 46.011718 65.507812h-131.015624c20.78125-13.492187 46.011718-35.957031 46.011718-65.507812v-272.824219c.871094.3125 1.746094.601563 2.628906.867187zm-50.402343 224.074219c.515625.710938.730469 1.632813.429687 2.539063-11.722656 35.492187-44.726562 59.339844-82.132812 59.339844s-70.414063-23.847657-82.136719-59.34375c-.632813-1.929688.917969-3.808594 2.867187-3.808594h158.542969c.988281 0 1.882813.515625 2.429688 1.273437zm-79.457031-152.914062 26.285156 136.640625h-57.066406l26.285156-136.640625zm30.546874 0 26.285157 136.640625h-15.269531l-26.285157-136.640625zm-65.585937 0h15.269531l-26.285156 136.640625h-15.273438zm0 0"/></svg>