<svg height="512pt" viewBox="-35 0 512 512" width="512pt" xmlns="http://www.w3.org/2000/svg"><path d="m64.867188 133.917969c-41.828126 41.828125-64.867188 97.449219-64.867188 156.605469 0 59.160156 23.039062 114.777343 64.867188 156.609374 41.832031 41.828126 97.453124 64.867188 156.609374 64.867188 59.160157 0 114.777344-23.039062 156.609376-64.867188 41.828124-41.832031 64.867187-97.449218 64.867187-156.609374 0-56.855469-21.519531-110.90625-60.589844-152.195313-2.84375-3.007813-7.59375-3.140625-10.601562-.292969-3.007813 2.847656-3.140625 7.59375-.292969 10.605469 36.425781 38.488281 56.484375 88.878906 56.484375 141.882813 0 113.851562-92.625 206.476562-206.476563 206.476562-113.851562 0-206.476562-92.625-206.476562-206.476562 0-104.738282 78.390625-191.503907 179.578125-204.722657 19.03125-2.488281 38.714844-2.035156 57.726563.5 35.980468 5.320313 69.574218 20.011719 98.472656 43.253907 3.230468 2.597656 7.949218 2.085937 10.546875-1.140626 2.59375-3.226562 2.082031-7.949218-1.144531-10.546874-28.980469-23.308594-63.503907-38.851563-99.894532-45.359376v-23.867187c10.078125-3.1875 17.402344-12.625 17.402344-23.742187 0-13.730469-11.171875-24.898438-24.902344-24.898438h-62.617187c-13.730469 0-24.898438 11.167969-24.898438 24.898438 0 11.117187 7.324219 20.554687 17.398438 23.742187v23.78125c-44.390625 7.800781-85.265625 28.960937-117.800781 61.496094zm125.300781-118.917969h62.621093c5.457032 0 9.898438 4.441406 9.898438 9.898438 0 5.457031-4.441406 9.898437-9.898438 9.898437h-62.621093c-.003907 0-.003907 0-.003907 0-5.457031 0-9.898437-4.441406-9.898437-9.898437 0-5.457032 4.441406-9.898438 9.902344-9.898438zm7.5 34.796875h47.617187v20.527344c-7.90625-.847657-15.851562-1.277344-23.808594-1.277344-7.949218 0-15.90625.433594-23.808593 1.269531zm0 0"/><path d="m107.511719 420.835938c-2.589844 3.230468-2.070313 7.953124 1.160156 10.542968 31.808594 25.503906 72.046875 39.613282 112.804687 39.613282 59.886719 0 116.964844-30.574219 150.203126-80.378907 19.671874-29.476562 30.265624-64.664062 30.265624-100.089843 0-79.820313-54.511718-152.039063-131.375-173.707032-8.292968-2.335937-16.75-4.074218-25.289062-5.199218-15.757812-2.078126-31.851562-2.078126-47.621094 0-80.652344 10.640624-144.414062 74.390624-155.078125 155.039062 0 .019531-.007812.035156-.007812.054688-2.082031 15.785156-2.082031 31.839843 0 47.628906 0 .015625.007812.03125.007812.050781 4.707031 35.59375 19.816407 68.675781 43.699219 95.667969 2.746094 3.105468 7.488281 3.394531 10.589844.648437 3.101562-2.746093 3.390625-7.484375.644531-10.585937-20.550781-23.230469-34.015625-51.363282-39.160156-81.703125l37.609375-12.9375c13.792968-4.742188 13.796875-25.167969 0-29.914063l-37.609375-12.9375c11.722656-69.078125 66.152343-123.507812 135.226562-135.226562 0 0 12.914063 37.550781 12.9375 37.609375 4.785157 13.910156 25.132813 13.894531 29.914063 0l12.9375-37.609375c69.078125 11.71875 123.503906 66.148437 135.226562 135.226562l-37.613281 12.9375c-11.070313 3.800782-14.226563 19.085938-5.347656 26.835938 1.519531 1.328125 3.324219 2.378906 5.347656 3.078125l37.613281 12.9375c-11.71875 69.074219-66.148437 123.503906-135.230468 135.226562 0 0-13.222657-38.398437-13.394532-38.800781-5.269531-12.292969-23.699218-12.253906-28.992187 0-.167969.386719-13.398438 38.800781-13.398438 38.800781-27.574219-4.6875-53.570312-16.363281-75.527343-33.964843-3.230469-2.59375-7.953126-2.074219-10.542969 1.15625zm-16.421875-131.085938c.746094.257812.726562 1.296875 0 1.546875l-34.601563 11.898437c-.640625-8.433593-.640625-16.914062 0-25.34375 0 0 34.523438 11.875 34.601563 11.898438zm143.058594-164.210938s-11.886719 34.566407-11.898438 34.597657c-.128906.375-.367188.550781-.773438.550781-.386718 0-.644531-.183594-.773437-.550781l-11.898437-34.597657c8.453124-.644531 16.890624-.644531 25.34375 0zm117.71875 164.210938 34.597656-11.898438c.640625 8.433594.640625 16.910157 0 25.34375 0 0-34.519532-11.871093-34.597656-11.898437-.746094-.257813-.730469-1.296875 0-1.546875zm-143.0625 165.761719 11.898437-34.601563c.019531-.054687.042969-.121094.074219-.183594.089844-.1875.261718-.367187.699218-.367187s.609376.179687.699219.367187c.03125.0625.054688.125.074219.183594l11.898438 34.601563c-8.453126.640625-16.890626.640625-25.34375 0zm0 0"/><path d="m156.992188 369.441406c2.585937.023438 5.203124-.648437 7.5625-2.082031l58.589843-35.703125c10.371094-.410156 20.066407-4.636719 27.445313-12.019531 7.597656-7.59375 11.59375-17.441407 12-27.410157 0 0 35.648437-58.511718 35.722656-58.625 7.722656-12.675781-7.3125-27.589843-19.914062-19.914062l-58.589844 35.703125c-10.371094.410156-20.066406 4.636719-27.445313 12.019531-7.597656 7.59375-11.59375 17.441406-12 27.414063 0 0-35.632812 58.480469-35.722656 58.621093-5.808594 9.539063 1.28125 21.914063 12.351563 21.996094zm127.410156-141.84375-26.558594 43.589844c-3.824219-7.179688-9.84375-13.203125-17.023438-17.035156zm-81.433594 44.417969c15.253906-15.253906 42.445312-5.511719 44.546875 15.957031.003906.042969.007813.089844.011719.132813 1.367187 14.828125-10.835938 28.457031-25.820313 28.589843-.078125 0-.152343 0-.230469 0-12.652343.066407-24.039062-9.941406-25.886718-22.382812-.003906-.03125-.007813-.0625-.011719-.09375-1.148437-8.089844 1.613281-16.421875 7.390625-22.203125zm-17.859375 37.84375c.113281.210937.246094.410156.363281.617187 3.816406 6.882813 9.691406 12.695313 16.664063 16.417969l-43.582031 26.554688zm0 0"/></svg>