<svg height="512pt" viewBox="-8 0 512 512.002" width="512pt" xmlns="http://www.w3.org/2000/svg"><path d="m300.1875 250.308594c4.140625 0 7.5-3.359375 7.5-7.5v-15.777344c0-4.140625-3.359375-7.5-7.5-7.5s-7.5 3.359375-7.5 7.5v15.777344c0 4.140625 3.359375 7.5 7.5 7.5zm0 0"/><path d="m289.445312 273.496094h21.484376c4.144531 0 7.5-3.359375 7.5-7.5 0-4.144532-3.355469-7.5-7.5-7.5h-21.484376c-4.144531 0-7.5 3.355468-7.5 7.5 0 4.140625 3.355469 7.5 7.5 7.5zm0 0"/><path d="m137.917969 250.308594c4.144531 0 7.5-3.359375 7.5-7.5v-15.777344c0-4.140625-3.355469-7.5-7.5-7.5-4.140625 0-7.5 3.359375-7.5 7.5v15.777344c0 4.140625 3.359375 7.5 7.5 7.5zm0 0"/><path d="m148.664062 258.496094h-21.488281c-4.140625 0-7.5 3.355468-7.5 7.5 0 4.140625 3.359375 7.5 7.5 7.5h21.488281c4.140626 0 7.5-3.359375 7.5-7.5s-3.359374-7.5-7.5-7.5zm0 0"/><path d="m219.054688 272.605469c7.820312 0 15.167968-3.277344 20.160156-8.984375 2.722656-3.121094 2.40625-7.859375-.710938-10.585938-3.121094-2.722656-7.859375-2.40625-10.585937.710938-2.140625 2.453125-5.371094 3.859375-8.863281 3.859375-3.492188 0-6.722657-1.40625-8.867188-3.859375-2.722656-3.117188-7.460938-3.433594-10.582031-.707032-3.117188 2.726563-3.4375 7.464844-.710938 10.582032 4.992188 5.707031 12.339844 8.984375 20.160157 8.984375zm0 0"/><path d="m317.414062 345.316406c0 20.65625 16.804688 37.460938 37.457032 37.460938 20.65625 0 37.460937-16.804688 37.460937-37.460938s-16.804687-37.460937-37.460937-37.460937c-20.652344 0-37.457032 16.804687-37.457032 37.460937zm59.917969 0c0 12.382813-10.074219 22.460938-22.460937 22.460938-12.382813 0-22.457032-10.078125-22.457032-22.460938 0-12.382812 10.074219-22.460937 22.457032-22.460937 12.386718 0 22.460937 10.078125 22.460937 22.460937zm0 0"/><path d="m494.3125 132.289062c3.003906-7.128906-2.640625-15.109374-10.332031-14.722656-13.230469.675782-23.179688-2.875-29.414063-10.507812-5.214844-6.386719-7.972656-15.71875-7.972656-26.988282 0-13.085937 0-32.855468-8.167969-49.566406-9.894531-20.242187-28.933593-30.503906-56.589843-30.503906-38.519532 0-59.039063 25.507812-66.5 52.402344-29.523438-15.0625-62.539063-23.109375-96.28125-23.109375-43.046876 0-84.375 12.769531-119.523438 36.929687-3.414062 2.34375-4.28125 7.015625-1.933594 10.429688 2.34375 3.410156 7.015625 4.277344 10.429688 1.933594 32.636718-22.433594 71.027344-34.292969 111.027344-34.292969 37.425781 0 73.894531 10.636719 104.996093 30.3125 26.761719 16.929687 49.261719 40.566406 64.671875 68.242187 7.445313 13.367188 13.308594 27.914063 17.195313 42.816406-.65625-.238281-7.0625-2.03125-9.660157-2.40625-2.210937-.320312-4.441406-.488281-6.671874-.5-1.28125-4.203124-6.835938-18.460937-8.289063-21.371093-.003906-.007813-.011719-.019531-.015625-.027344-9.070312-18.070313-25.390625-39.898437-53.59375-49.960937-34.148438-12.191407-72.109375-2.210938-103.886719 12.226562-1.574219.714844-3.15625 1.445312-4.746093 2.207031-1.589844-.757812-3.171876-1.488281-4.746094-2.203125-31.851563-14.480468-69.667969-24.445312-103.890625-12.230468-31.695313 11.3125-52.382813 40.144531-61.894531 71.359374-4.863282.027344-9.710938.785157-14.351563 2.234376-.660156.210937-1.320313.433593-1.972656.667968 8.851562-33.765625 27.550781-65.027344 53.703125-89.347656 3.03125-2.820312 3.203125-7.566406.382812-10.597656-2.820312-3.035156-7.566406-3.207032-10.597656-.386719-32.09375 29.847656-53.796875 69.414063-61.3125 111.664063-8.871094 8.839843-14.375 21.0625-14.375 34.542968 0 26.820313 21.757812 48.648438 48.546875 48.773438 15.792969 51.757812 56.046875 93.4375 107.734375 112.40625-5.980469 3.652344-12.859375 8.628906-19.730469 15.269531-16.960937 16.382813-37.179687 46.425781-37.179687 96.519531 0 4.140625 3.359375 7.5 7.5 7.5h224.359375c4.140625 0 7.5-3.359375 7.5-7.5 0-6.28125-.335938-12.472656-.980469-18.488281l15.292969-10.097656c1.085937-.71875 2.566406-.71875 3.652343 0 0 0 20.875 13.777343 20.878907 13.78125 11.980469 7.910156 28.40625-.972657 28.40625-15.285157v-85.578124c8.460937-5.921876 12.847656-16.445313 10.550781-27.0625-.628906-2.90625-.105469-5.890626 1.480469-8.402344 7.25-11.503906 4.609375-26.460938-6.132813-34.789063-2.351562-1.820312-3.863281-4.445312-4.269531-7.390625-1.535156-11.226562-10.136719-20.066406-20.917969-22.222656 1.046875-2.867188 2.011719-5.753906 2.898438-8.664062 26.773437-.144532 48.511718-21.960938 48.511718-48.769532 0-13.484375-5.5-25.707031-14.375-34.546875-1.609374-9.050781-3.847656-17.949219-6.691406-26.640625 3.265625.242188 6.460938.382813 9.554688.382813 46.488281 0 62.847656-26.878907 67.722656-38.441407zm-449.660156 132.773438c-16.683594-2.042969-29.648438-16.300781-29.648438-33.527344 0-16.671875 12.808594-31.3125 29.355469-33.484375.09375-.011719.1875-.019531.28125-.03125-2.234375 10.964844-3.359375 22.164063-3.359375 33.515625 0 11.238282 1.128906 22.511719 3.371094 33.527344zm15.804687 1.945312c-7.722656-32.234374-5.234375-69.011718 9.753907-98.878906 7.203124-14.363281 19.625-31.421875 40.152343-40.558594 27.425781-12.203124 58.71875-5.886718 85.59375 4.578126 6.699219 2.609374 13.257813 5.542968 19.710938 8.710937.023437.011719.050781.023437.074219.035156 2.082031 1.007813 4.546874 1.015625 6.625 0 .023437-.011719.046874-.023437.070312-.035156 6.453125-3.128906 13.003906-6.140625 19.703125-8.710937 26.835937-10.449219 58.195313-16.726563 85.597656-4.578126 20.53125 9.132813 32.953125 26.191407 40.160157 40.558594 15.617187 31.128906 17.714843 69.027344 8.875 102.4375-1.304688 4.9375-2.855469 9.816406-4.664063 14.625-4.722656-4.105468-10.984375-6.445312-17.238281-6.445312-6.492188 0-12.851563 2.457031-17.660156 6.820312-2.1875 1.984375-5.0625 3.03125-8.019532 2.917969-13.515625-.527344-25.242187 9.414063-27.058594 22.707031-.796874 5.816406-6.257812 8.34375-9.445312 12.707032-4.296875 5.882812-5.925781 13.261718-4.570312 20.34375.605468 3.152343 1.796874 6.246093 3.613281 9.125 3.433593 5.449218.234375 12.316406 1.230469 18.320312-11.230469 5.535156-23.109376 9.769531-35.347657 12.648438-23.566406 5.539062-48.417969 5.925781-72.140625 1.101562-61.804687-12.574219-110.808594-59.125-125.015625-118.429688zm185.679688 134.804688c-8.488281 12.152344-19.222657 23.453125-27.082031 23.453125-7.863282 0-18.59375-11.300781-27.074219-23.441406.117187.164062 18.457031 1.992187 27.074219 1.992187 9.050781-.003906 18.125-.664062 27.082031-2.003906zm57.625-12.976562v21.351562c-7.597657-7.757812-15.3125-13.433594-21.929688-17.476562 6.035157-2.203126 11.949219-4.722657 17.710938-7.558594 1.257812 1.367187 2.671875 2.597656 4.21875 3.683594zm-157.34375 30.476562c8.242187-8.089844 16.574219-13.402344 22.734375-16.660156v94.347656h-54.613282c1.421876-32.199219 12.125-58.308594 31.878907-77.6875zm37.730469-2.75c9.117187 11.734375 21.660156 23.703125 34.90625 23.703125 10.929687 0 22.644531-7.980469 34.808593-23.714844.03125-.039062.0625-.078125.09375-.117187v80.566406h-69.808593zm84.808593 80.4375v-94.328125c9.21875 4.894531 23.316407 14.414063 34.804688 30.972656v40.769531c0 10.410157 9.144531 19.003907 19.546875 18.292969.105468 1.421875.1875 2.851563.253906 4.292969zm122.027344-22.585938c0 2.59375-2.992187 4.1875-5.144531 2.765626 0 0-20.867188-13.777344-20.875-13.78125-6.0625-4-14.125-4-20.183594 0 0 0-20.863281 13.769531-20.886719 13.785156-2.132812 1.34375-5.132812-.1875-5.132812-2.769532v-74.285156c1.800781 2.71875 4.109375 5.101563 6.78125 6.980469 7.261719 5.105469 16.847656 6.175781 25.0625 2.824219 2.707031-1.105469 5.828125-1.109375 8.53125 0 11.4375 4.675781 25.019531.484375 31.847656-9.804688zm1.769531-161.191406c.9375 6.859375 4.464844 12.972656 9.9375 17.214844 4.613282 3.574219 5.746094 9.996094 2.632813 14.933594-3.691407 5.859375-4.917969 12.808594-3.453125 19.574218 1.214844 5.601563-2.152344 11.367188-7.582032 13.136719-6.527343 2.125-12.019531 6.6875-15.226562 12.777344-2.777344 5.273437-9.101562 7.214844-14.511719 5.085937-3.09375-1.226562-6.347656-1.851562-9.679687-1.851562-3.328125 0-6.582032.625-9.675782 1.851562-2.433593.957032-5.035156 1.234376-7.582031.523438-.074219-.023438-.140625-.058594-.214843-.078125-2.847657-.859375-5.28125-2.816406-6.714844-5.535156-2.175782-4.125-5.453125-7.660157-9.425782-10.109375-5.460937-3.367188-12.578124-4.40625-13.550781-12.003906-.375-2.996094.703125-5.90625.761719-8.882813.070312-3.601563-.609375-7.164063-1.988281-10.496094-1.386719-3.34375-3.753907-6.46875-3.800781-10.222656-.039063-3.367187 1.738281-6.660156 4.375-8.703125 5.394531-4.183594 9.011718-10.453125 9.9375-17.214844.78125-5.707031 5.824218-9.96875 11.617187-9.75 6.902344.265625 13.582031-2.171875 18.679687-6.796875 4.25-3.855469 10.914063-3.855469 15.164063 0 5.0625 4.589844 11.851563 7.058594 18.679687 6.796875 5.808594-.234375 10.839844 4.039063 11.621094 9.75zm.710938-48.160156c1.953125-9.59375 3.0625-19.367188 3.308594-29.277344.3125-12.660156-.777344-25.355468-3.304688-37.765625.09375.011719.1875.019531.28125.03125 16.582031 2.152344 29.355469 16.800781 29.355469 33.484375 0 17.222656-12.960938 31.480469-29.640625 33.527344zm33.121094-109.332031c-4.859376 0-10.023438-.34375-15.394532-1.027344-.238281-.554687-8.15625-17.332031-12.605468-24.761719-17.097657-28.550781-41.28125-52.683594-69.683594-69.984375 3.457031-14.976562 15.121094-44.957031 52.933594-44.957031 45.914062 0 49.757812 32.144531 49.757812 65.070312 0 14.769532 3.925781 27.378907 11.351562 36.476563 7.976563 9.761719 19.816407 15.257813 34.402344 16.011719-12.890625 20.773437-39.292968 23.171875-50.761718 23.171875zm0 0"/></svg>