<svg height="512pt" viewBox="0 0 512 512" width="512pt" xmlns="http://www.w3.org/2000/svg"><path d="m488.152344 313.523438c13.148437 0 23.847656-10.699219 23.847656-23.847657v-67.351562c0-13.148438-10.699219-23.847657-23.847656-23.847657h-21.65625c-4.828125-17.71875-11.863282-34.707031-20.980469-50.640624l15.316406-15.316407c9.296875-9.296875 9.296875-24.425781 0-33.726562l-47.628906-47.625c-4.503906-4.503907-10.492187-6.984375-16.859375-6.984375-6.371094 0-12.359375 2.480468-16.863281 6.984375l-15.316407 15.316406c-15.933593-9.117187-32.921874-16.152344-50.640624-20.980469v-21.65625c0-13.148437-10.699219-23.847656-23.847657-23.847656h-67.351562c-13.148438 0-23.847657 10.699219-23.847657 23.847656v21.65625c-17.71875 4.828125-34.707031 11.863282-50.640624 20.976563l-15.316407-15.3125c-4.503906-4.503907-10.492187-6.984375-16.863281-6.984375-6.367188 0-12.355469 2.476562-16.859375 6.984375l-47.628906 47.625c-9.300781 9.300781-9.300781 24.429687 0 33.726562l15.3125 15.316407c-9.113281 15.933593-16.148438 32.921874-20.976563 50.640624h-21.65625c-13.148437 0-23.847656 10.695313-23.847656 23.847657v67.351562c0 13.148438 10.699219 23.847657 23.847656 23.847657h21.65625c4.828125 17.71875 11.863282 34.707031 20.976563 50.640624l-15.3125 15.316407c-9.300781 9.296875-9.300781 24.425781 0 33.722656l47.625 47.628906c4.503906 4.503907 10.492187 6.984375 16.863281 6.984375s12.359375-2.480468 16.863281-6.984375l15.3125-15.316406c15.9375 9.117187 32.925781 16.152344 50.644531 20.980469v21.65625c0 13.148437 10.695313 23.847656 23.84375 23.847656h67.355469c13.148438 0 23.847657-10.699219 23.847657-23.847656v-21.65625c17.71875-4.828125 34.703124-11.863282 50.640624-20.980469 0 0 15.308594 15.304687 15.316407 15.316406 9.195312 9.195313 24.539062 9.183594 33.722656 0l47.628906-47.628906c9.296875-9.296875 9.296875-24.425781 0-33.722656l-15.316406-15.316407c9.117187-15.933593 16.152344-32.921874 20.980469-50.640624zm-34.753906-9.273438c-4.921876 20.203125-12.894532 39.453125-23.699219 57.210938-1.800781 2.957031-1.34375 6.757812 1.101562 9.203124l19.425781 19.425782c3.449219 3.445312 3.449219 9.0625 0 12.511718 0 0-47.511718 47.511719-47.628906 47.625-3.308594 3.308594-9.054687 3.457032-12.511718 0l-19.421876-19.421874c-2.445312-2.449219-6.25-2.902344-9.203124-1.105469-17.757813 10.804687-37.007813 18.78125-57.210938 23.699219-3.359375.820312-5.726562 3.832031-5.726562 7.289062v27.464844c0 4.878906-3.96875 8.847656-8.847657 8.847656h-67.351562c-4.878907 0-8.847657-3.96875-8.847657-8.847656v-27.464844c0-3.457031-2.367187-6.46875-5.726562-7.289062-20.203125-4.917969-39.453125-12.894532-57.210938-23.699219-2.933593-1.785157-6.773437-1.320313-9.203124 1.105469 0 0-19.359376 19.359374-19.421876 19.421874-3.421874 3.421876-9.105468 3.40625-12.511718 0l-47.628906-47.625c-3.449219-3.449218-3.449219-9.0625 0-12.511718l19.425781-19.425782c2.445312-2.445312 2.902343-6.246093 1.101562-9.203124-10.804687-17.757813-18.777343-37.007813-23.699219-57.210938-.820312-3.359375-3.828124-5.726562-7.289062-5.726562h-27.464844c-4.878906 0-8.847656-3.96875-8.847656-8.84375v-67.355469c0-4.878907 3.96875-8.847657 8.847656-8.847657h27.464844c3.457031 0 6.46875-2.363281 7.289062-5.722656 4.917969-20.207031 12.894532-39.457031 23.699219-57.214844 1.796875-2.953124 1.34375-6.753906-1.105469-9.199218l-19.421874-19.425782c-3.449219-3.449218-3.449219-9.0625 0-12.511718 0 0 47.570312-47.570313 47.625-47.625 3.417968-3.417969 9.09375-3.417969 12.511718 0l19.425782 19.421875c2.445312 2.445312 6.25 2.902343 9.203124 1.105469 17.757813-10.808594 37.007813-18.78125 57.210938-23.703126 3.359375-.816406 5.726562-3.828124 5.726562-7.285156v-27.46875c0-4.878906 3.96875-8.847656 8.84375-8.847656h67.355469c4.878907 0 8.847657 3.96875 8.847657 8.847656v27.464844c0 3.460938 2.363281 6.46875 5.722656 7.289062 20.207031 4.917969 39.457031 12.894532 57.214844 23.699219 2.957031 1.800781 6.757812 1.34375 9.199218-1.105469 0 0 19.410156-19.40625 19.425782-19.421874 3.417968-3.417969 9.089843-3.421876 12.511718 0l47.628906 47.625c3.449219 3.449218 3.449219 9.0625 0 12.511718l-19.425781 19.425782c-2.445312 2.445312-2.902343 6.246093-1.105469 9.199218 10.808594 17.761719 18.78125 37.007813 23.703126 57.214844.816406 3.359375 3.828124 5.722656 7.285156 5.722656h27.46875c4.875 0 8.847656 3.96875 8.847656 8.847656v67.355469c0 4.878907-3.96875 8.847657-8.847656 8.847657h-27.46875c-3.457032 0-6.464844 2.367187-7.285156 5.726562zm0 0"/><path d="m377.410156 132.988281c-31.246094-30.84375-74.140625-49.914062-121.410156-49.914062s-90.164062 19.070312-121.410156 49.914062c-.304688.222657-1.378906 1.300781-1.601563 1.601563-30.84375 31.246094-49.914062 74.140625-49.914062 121.410156s19.070312 90.164062 49.914062 121.410156c.222657.300782.460938.59375.734375.867188.273438.273437.566406.511718.867188.734375 31.246094 30.84375 74.140625 49.914062 121.410156 49.914062s90.164062-19.070312 121.410156-49.914062c.300782-.222657 1.378906-1.300781 1.601563-1.601563 30.84375-31.25 49.917969-74.140625 49.917969-121.410156s-19.074219-90.164062-49.917969-121.410156c-.222657-.300782-1.300781-1.378906-1.601563-1.601563zm7.589844 130.511719h28.742188c-1.777344 37.902344-16.976563 72.351562-40.945313 98.691406l-20.277344-20.277344c-2.929687-2.929687-7.679687-2.929687-10.605469 0-2.929687 2.929688-2.929687 7.679688 0 10.605469l20.277344 20.277344c-26.339844 23.96875-60.789062 39.167969-98.691406 40.945313v-28.742188c0-4.140625-3.359375-7.5-7.5-7.5s-7.5 3.359375-7.5 7.5v28.746094c-37.902344-1.78125-72.351562-16.980469-98.691406-40.949219l20.277344-20.277344c2.929687-2.929687 2.929687-7.675781 0-10.605469-2.925782-2.929687-7.675782-2.929687-10.605469 0l-20.277344 20.277344c-23.96875-26.339844-39.167969-60.789062-40.945313-98.691406h28.742188c4.140625 0 7.5-3.359375 7.5-7.5s-3.359375-7.5-7.5-7.5h-28.746094c1.78125-37.902344 16.980469-72.351562 40.949219-98.691406 0 0 20.269531 20.269531 20.277344 20.277344 2.890625 2.890624 7.714843 2.890624 10.605469 0 2.929687-2.929688 2.929687-7.679688 0-10.605469l-20.277344-20.277344c26.339844-23.96875 60.789062-39.167969 98.691406-40.949219v28.746094c0 4.140625 3.355469 7.5 7.5 7.5 4.140625 0 7.5-3.359375 7.5-7.5v-28.746094c37.898438 1.78125 72.351562 16.980469 98.6875 40.949219l-20.277344 20.277344c-2.925781 2.925781-2.925781 7.675781 0 10.605469 2.855469 2.851562 7.695313 2.910156 10.609375 0l20.277344-20.277344c23.96875 26.339844 39.164063 60.789062 40.945313 98.691406h-28.742188c-4.140625 0-7.5 3.355469-7.5 7.5 0 4.140625 3.359375 7.5 7.5 7.5zm0 0"/><path d="m352.898438 245.46875-16.550782-11.871094c-2.226562-1.597656-4.832031-2.441406-7.535156-2.441406-7.15625 0-12.980469 5.820312-12.980469 12.972656v4.371094h-37.039062c-2.378907-7.210938-8.082031-12.914062-15.292969-15.292969v-37.039062h4.371094c4.882812 0 9.300781-2.699219 11.53125-7.042969 2.230468-4.34375 1.847656-9.503906-1-13.472656l-11.875-16.550782c-2.425782-3.382812-6.363282-5.40625-10.527344-5.40625-4.167969 0-8.101562 2.023438-10.53125 5.40625l-11.875 16.550782c-2.84375 3.96875-3.226562 9.128906-.996094 13.472656 2.226563 4.34375 6.644532 7.042969 11.527344 7.042969h4.371094v37.039062c-9.566406 3.15625-16.496094 12.179688-16.496094 22.792969 0 13.234375 10.765625 24 24 24 10.613281 0 19.636719-6.929688 22.792969-16.5h37.039062v4.371094c0 7.152344 5.824219 12.972656 12.980469 12.972656 2.703125 0 5.308594-.847656 7.535156-2.441406l16.546875-11.871094c3.386719-2.429688 5.40625-6.367188 5.40625-10.53125s-2.019531-8.101562-5.402343-10.53125zm-96.898438-75.3125 7.898438 11.011719h-15.796876zm0 94.84375c-4.960938 0-9-4.039062-9-9s4.035156-8.996094 8.996094-9h.003906.003906c4.957032.003906 8.988282 4.03125 8.996094 8.988281v.011719.011719c-.007812 4.957031-4.039062 8.988281-9 8.988281zm74.832031-1.101562v-15.796876l11.011719 7.898438zm0 0"/></svg>