<svg height="512pt" viewBox="0 -78 512 512" width="512pt" xmlns="http://www.w3.org/2000/svg"><path d="m177.699219 218.269531v-15.527343c0-4.140626-3.355469-7.5-7.5-7.5-4.140625 0-7.5 3.359374-7.5 7.5v15.527343c0 4.144531 3.359375 7.5 7.5 7.5 4.144531 0 7.5-3.355469 7.5-7.5zm0 0"/><path d="m349.300781 218.269531v-15.527343c0-4.140626-3.359375-7.5-7.5-7.5-4.144531 0-7.5 3.359374-7.5 7.5v15.527343c0 4.144531 3.355469 7.5 7.5 7.5 4.140625 0 7.5-3.355469 7.5-7.5zm0 0"/><path d="m256 234.058594c10.417969 0 20.195312-4.347656 26.824219-11.933594 2.726562-3.117188 2.40625-7.855469-.710938-10.582031-3.121093-2.726563-7.855469-2.40625-10.585937.710937-3.777344 4.324219-9.4375 6.804688-15.527344 6.804688s-11.75-2.480469-15.53125-6.804688c-2.722656-3.117187-7.460938-3.4375-10.582031-.710937-3.121094 2.726562-3.4375 7.464843-.710938 10.582031 6.628907 7.585938 16.40625 11.933594 26.824219 11.933594zm0 0"/><path d="m28.777344 172.519531c4.628906 8.105469 10.972656 19.789063 17.578125 33.722657 1.777343 3.742187 6.25 5.335937 9.992187 3.5625 3.742188-1.773438 5.335938-6.246094 3.5625-9.988282-4.464844-9.417968-9.34375-18.945312-14.351562-28.039062.085937-.027344.167968-.058594.253906-.085938 6.480469-1.9375 12.285156-5.714844 16.71875-10.820312 3.609375-4.15625 6.269531-9.21875 7.628906-14.554688.007813-.027344.019532-.058594.023438-.085937 12.84375 8.289062 25.347656 14.207031 37.464844 17.742187.050781.015625.101562.039063.15625.054688 12.019531 3.449218 24.785156 4.859375 37.214843 3.121094 26.648438-3.730469 48.660157-21.253907 64.492188-42.195313 14.082031-18.628906 24.027343-40.089844 30.5625-57.445313 2.125 1.066407 4.359375 1.898438 6.660156 2.515626 8.339844 2.238281 17.464844 1.355468 25.1875-2.515626 6.535156 17.359376 16.480469 38.820313 30.566406 57.449219 15.824219 20.929688 37.414063 38.351563 64.058594 42.128907 12.632813 1.792968 25.59375.449218 37.804687-3.113282 12.121094-3.539062 24.621094-9.457031 37.460938-17.746094.007812.03125.019531.0625.027344.09375 2.992187 11.980469 12.554687 21.835938 24.347656 25.375.085938.023438.167969.058594.25.082032-11.398438 20.71875-27.574219 53.582031-38.957031 91.078125h-48.820313c-4.140625 0-7.5 3.359375-7.5 7.5 0 4.144531 3.359375 7.5 7.5 7.5h44.597656c-3.8125 14.722656-6.527343 29.105469-8.082031 42.882812-1.292969 11.476563-10.964843 20.128907-22.5 20.128907h-273.351562c-11.535157 0-21.210938-8.652344-22.503907-20.132813-1.554687-13.773437-4.265624-28.15625-8.078124-42.878906h259.957031c4.144531 0 7.5-3.355469 7.5-7.5 0-4.140625-3.355469-7.5-7.5-7.5h-264.183594c-3.503906-11.550781-7.6875-23.402344-12.457031-35.296875-1.542969-3.84375-5.90625-5.710938-9.753906-4.167969-3.84375 1.542969-5.710938 5.910156-4.167969 9.753906 11.472656 28.597657 20.316406 58.585938 23.78125 89.273438 2.144531 19.070312 18.226562 33.449219 37.40625 33.449219h273.351562c19.179688 0 35.261719-14.378907 37.410157-33.445313 1.796874-15.917969 5.230468-32.734375 10.210937-49.992187 12.261719-42.671876 31.457031-79.828126 42.925781-99.910157 16.378906-3.203125 28.777344-17.660156 28.777344-34.960937 0-19.644532-15.980469-35.628906-35.628906-35.628906-16.277344 0-30.03125 10.980468-34.269532 25.921874-12.054687 8.71875-23.6875 15.171876-34.851562 19.339844-5.007812-20.035156-6.285156-40.46875-6.308594-55.796875 6.464844-4.183593 11.578125-10.417969 14.261719-18.003906 8.015625-22.636719-9.589844-47.523437-33.582031-47.523437-15.058594 0-28.554688 9.542968-33.585938 23.746093-2.660156 7.523438-2.722656 15.535157-.261718 22.992188-9.085938 11.179687-22.054688 25.398437-37.511719 37.472656-.375-.542969-.753907-1.070313-1.125-1.625-11.703125-17.507813-19.855469-36.785156-24.945313-51.082031 4.65625-6.019532 7.4375-13.5625 7.4375-21.742188 0-19.648437-15.984375-35.628906-35.628906-35.628906s-35.625 15.980469-35.625 35.628906c0 8.179688 2.777344 15.722656 7.433594 21.742188-5.089844 14.296875-13.242188 33.574218-24.945313 51.082031-.371093.554687-.746093 1.082031-1.121093 1.625-15.457032-12.078125-28.425782-26.292969-37.515626-37.472656 2.464844-7.457031 2.402344-15.46875-.261718-22.992188-6.019532-17.003906-24.746094-27.074219-42.238282-22.675781-16.171874 4.066406-27.621093 19.351562-26.945312 36.023438.460938 11.484374 6.644531 22.199218 16.28125 28.433593-.027344 15.328125-1.304688 35.765625-6.3125 55.792969-11.160156-4.164062-22.792969-10.617188-34.851562-19.335938-4.238282-14.941406-17.992188-25.921874-34.269532-25.921874-19.648437 0-35.628906 15.984374-35.628906 35.628906 0 17.300781 12.398438 31.757812 28.777344 34.960937zm447.59375-55.589843c11.375 0 20.628906 9.253906 20.628906 20.628906s-9.253906 20.625-20.628906 20.625c-11.1875 0-20.625-9.453125-20.625-20.625 0-11.210938 9.429687-20.628906 20.625-20.628906zm-114.195313-62.3125c2.914063-8.222657 10.726563-13.75 19.445313-13.75 13.957031 0 24.105468 14.355468 19.441406 27.519531-2.996094 8.472656-11.476562 14.125-20.4375 13.707031-.011719 0-.019531 0-.03125 0-13.367188-.667969-22.894531-14.828125-18.417969-27.476562zm-6.210937 31.621093c.027344.027344.058594.054688.085937.082031 3.777344 3.878907 8.539063 6.945313 13.679688 8.765626 5.171875 1.828124 10.820312 2.457031 16.265625 1.773437.3125 15.617187 1.933594 35.175781 6.816406 54.488281-9.429688 1.894532-19.226562 2.109375-28.65625.066406-12.742188-2.765624-24.308594-9.546874-33.964844-18.179687-.914062-.816406-11.089844-11.011719-10.84375-11.207031 14.707032-11.46875 27.238282-24.671875 36.617188-35.789063zm-99.964844-71.238281c11.375 0 20.628906 9.253906 20.628906 20.628906 0 11.058594-9.585937 20.625-20.628906 20.625-11.160156 0-20.628906-9.457031-20.628906-20.625 0-11.375 9.253906-20.628906 20.628906-20.628906zm-144.238281 37.621094c3.378906-7.082032 10.769531-11.753906 18.617187-11.753906 8.71875 0 16.535156 5.527343 19.445313 13.75 4.519531 12.769531-4.90625 26.832031-18.445313 27.476562-15.230468.726562-26.191406-15.6875-19.617187-29.472656zm14.242187 44.238281c.277344.035156.554688.050781.832032.078125 10.664062 1.089844 21.652343-2.921875 29.109374-10.613281.03125-.027344.0625-.054688.089844-.085938 9.375 11.117188 21.910156 24.320313 36.617188 35.792969-7.601563 8.953125-16.492188 16.953125-26.847656 22.597656-.574219.3125-1.152344.617188-1.738282.917969-13.964844 7.132813-29.5625 8.875-44.882812 5.800781 4.886718-19.3125 6.507812-38.871094 6.820312-54.488281zm-90.375 20.070313c11.0625 0 20.578125 9.457031 20.621094 20.539062 0 .03125.003906.058594.003906.089844.003906 11.195312-9.453125 20.625-20.628906 20.625-11.371094 0-20.625-9.25-20.625-20.625s9.253906-20.628906 20.628906-20.628906zm0 0"/></svg>