<svg height="512pt" viewBox="-2 0 512 512" width="512pt" xmlns="http://www.w3.org/2000/svg"><path d="m307.988281 139.976562c4.140625 0 7.5-3.359374 7.5-7.5v-11.203124c0-4.144532-3.359375-7.5-7.5-7.5-4.144531 0-7.5 3.355468-7.5 7.5v11.203124c0 4.140626 3.355469 7.5 7.5 7.5zm0 0"/><path d="m431.808594 139.976562c4.140625 0 7.5-3.359374 7.5-7.5v-11.203124c0-4.144532-3.359375-7.5-7.5-7.5-4.144532 0-7.5 3.355468-7.5 7.5v11.203124c0 4.140626 3.355468 7.5 7.5 7.5zm0 0"/><path d="m369.898438 145.957031c8.121093 0 15.746093-3.398437 20.925781-9.324219 2.726562-3.117187 2.410156-7.855468-.710938-10.582031-3.117187-2.726562-7.855469-2.410156-10.582031.710938-2.332031 2.667969-5.84375 4.195312-9.632812 4.195312-3.792969 0-7.300782-1.53125-9.632813-4.195312-2.726563-3.121094-7.464844-3.4375-10.582031-.710938-3.121094 2.722657-3.441406 7.460938-.710938 10.582031 5.175782 5.925782 12.804688 9.324219 20.925782 9.324219zm0 0"/><path d="m307.988281 219.4375h123.820313c4.140625 0 7.5-3.359375 7.5-7.5s-3.359375-7.5-7.5-7.5h-123.820313c-4.144531 0-7.5 3.359375-7.5 7.5s3.355469 7.5 7.5 7.5zm0 0"/><path d="m307.988281 252.367188h123.820313c4.140625 0 7.5-3.355469 7.5-7.5 0-4.140626-3.359375-7.5-7.5-7.5h-123.820313c-4.144531 0-7.5 3.359374-7.5 7.5 0 4.144531 3.355469 7.5 7.5 7.5zm0 0"/><path d="m307.988281 285.296875h123.820313c4.140625 0 7.5-3.355469 7.5-7.5 0-4.140625-3.359375-7.5-7.5-7.5h-123.820313c-4.144531 0-7.5 3.359375-7.5 7.5 0 4.144531 3.355469 7.5 7.5 7.5zm0 0"/><path d="m21.667969 394.292969h203.265625v56.789062h-4.148438c-24.859375 0-45.085937 20.226563-45.085937 45.085938v8.332031c0 4.140625 3.359375 7.5 7.5 7.5h151.539062c4.144531 0 7.5-3.359375 7.5-7.5v-8.332031c0-24.859375-20.226562-45.085938-45.085937-45.085938h-4.144532v-56.789062h194.269532c11.949218 0 21.667968-9.722657 21.667968-21.667969v-29.375c0-9.3125-5.90625-17.269531-14.167968-20.328125v-251.550781c8.261718-3.058594 14.167968-11.015625 14.167968-20.332032v-29.371093c0-11.949219-9.722656-21.667969-21.667968-21.667969h-376.390625c-4.140625 0-7.5 3.359375-7.5 7.5s3.359375 7.5 7.5 7.5h376.390625c3.675781 0 6.667968 2.992188 6.667968 6.667969v29.375c0 3.675781-2.992187 6.667969-6.667968 6.667969h-465.609375c-3.675781 0-6.667969-2.992188-6.667969-6.667969v-29.375c0-3.675781 2.992188-6.667969 6.667969-6.667969h59.222656c4.140625 0 7.5-3.359375 7.5-7.5s-3.359375-7.5-7.503906-7.5h-59.21875c-11.949219 0-21.667969 9.71875-21.667969 21.667969v29.375c0 9.3125 5.90625 17.269531 14.167969 20.328125v251.550781c-8.261719 3.058594-14.167969 11.015625-14.167969 20.328125v29.375c0 11.945312 9.71875 21.667969 21.667969 21.667969zm305.570312 101.875v.832031h-136.539062v-.832031c0-16.589844 13.496093-30.085938 30.085937-30.085938h76.367188c16.589844 0 30.085937 13.496094 30.085937 30.085938zm-49.234375-45.085938h-38.070312v-56.789062h38.070312zm201.773438-378.371093v248.871093h-50.164063c-4.140625 0-7.5 3.359375-7.5 7.5s3.359375 7.5 7.5 7.5h57.664063c3.675781 0 6.667968 2.992188 6.667968 6.667969v29.375c0 3.675781-2.992187 6.667969-6.667968 6.667969h-465.609375c-3.675781 0-6.667969-2.992188-6.667969-6.667969v-29.375c0-3.675781 2.992188-6.667969 6.667969-6.667969h378.34375c4.140625 0 7.5-3.359375 7.5-7.5s-3.359375-7.5-7.5-7.5h-370.84375v-248.871093zm0 0"/><path d="m161.855469 301.765625c57.683593 0 104.613281-46.933594 104.613281-104.621094 0-27.945312-10.878906-54.214843-30.640625-73.972656-19.757813-19.757813-46.023437-30.636719-73.964844-30.640625-.003906 0-.003906 0-.007812 0-57.679688 0-104.609375 46.929688-104.609375 104.613281 0 57.6875 46.929687 104.621094 104.609375 104.621094zm89.304687-112.121094h-71.195312l50.34375-50.34375c12.085937 14.253907 19.320312 31.714844 20.851562 50.34375zm-81.804687-81.804687c18.628906 1.53125 36.089843 8.765625 50.347656 20.851562l-50.347656 50.347656zm-15 .003906v89.300781c0 4.042969 3.46875 7.5 7.5 7.5h89.300781c-3.816406 45.921875-42.410156 82.121094-89.300781 82.121094-49.410157 0-89.609375-40.203125-89.609375-89.621094 0-46.886719 36.191406-85.480469 82.109375-89.300781zm0 0"/></svg>