<svg height="511pt" viewBox="0 0 511.99853 511" width="511pt" xmlns="http://www.w3.org/2000/svg"><path d="m507.777344 102.242188c-10.261719-53.652344-36.496094-78.558594-56.695313-90.003907-3.605469-2.042969-8.179687-.777343-10.222656 2.828125-2.042969 3.601563-.773437 8.179688 2.828125 10.21875 17.445312 9.886719 40.171875 31.753906 49.355469 79.773438 8.972656 46.914062 2.710937 106.46875-18.613281 177.007812-.476563 1.574219-1.699219 2.800782-3.277344 3.277344-57.691406 17.4375-108.25 24.800781-150.539063 21.949219-.027343-.246094-.054687-.496094-.082031-.742188-4.949219-40.609375-19.792969-72.871093-42.929688-93.292969-19.21875-16.964843-43.679687-24.824218-68.273437-22.851562.707031-1.960938 1.484375-3.917969 2.347656-5.859375 7.21875-16.25 19.382813-30.132813 35.179688-40.152344 17.355469-11.007812 38.785156-16.96875 61.980469-17.234375 4.074218-.046875 7.367187-3.339844 7.414062-7.414062.394531-34.628906 13.234375-64.382813 36.144531-83.777344 18.90625-16.003906 42.890625-23.136719 65.800781-19.570312 4.09375.632812 7.925782-2.164063 8.5625-6.257813.636719-4.09375-2.164062-7.925781-6.257812-8.5625-27.214844-4.234375-55.566406 4.128906-77.796875 22.945313-24.660156 20.875-39.140625 51.886718-41.207031 87.886718-23.246094 1.355469-44.789063 7.976563-62.671875 19.320313-18.300781 11.605469-32.429688 27.765625-40.851563 46.726562-2.160156 4.855469-3.875 9.796875-5.191406 14.777344-4.980469 1.316406-9.921875 3.035156-14.777344 5.191406-18.960937 8.421875-35.121094 22.550781-46.726562 40.851563-11.347656 17.886718-17.96875 39.429687-19.320313 62.679687-44.09375 2.574219-81.101562 24.1875-99.90625 58.710938-16.726562 30.703125-16.003906 66.042969 1.929688 94.535156 13.820312 21.953125 49.34375 57.214844 134.871093 57.210937 5.511719 0 11.238282-.144531 17.171876-.453124 4.136718-.210938 7.316406-3.738282 7.101562-7.875-.210938-4.132813-3.726562-7.324219-7.875-7.101563-90.386719 4.664063-125.617188-29.183594-138.574219-49.773437-15-23.832032-15.542969-53.503907-1.453125-79.371094 17.183594-31.542969 52.347656-50.660156 94.074219-51.140625 4.074219-.046875 7.367187-3.335938 7.414063-7.410157.265624-23.195312 6.226562-44.625 17.234374-61.984374 10.816407-17.054688 26.941407-30.65625 46.007813-37.523438-1.972656 24.59375 5.890625 49.054688 22.855469 68.273438 20.421875 23.136718 52.679687 37.980468 93.292968 42.929687.246094.027344.496094.054687.742188.082031 2.851562 42.289063-4.511719 92.847656-21.949219 150.539063-.476562 1.578125-1.703125 2.804687-3.28125 3.277343-30.980469 9.367188-60.34375 15.898438-87.273437 19.410157-4.105469.535156-7 4.300781-6.464844 8.40625s4.300781 7 8.40625 6.464843c27.734375-3.617187 57.90625-10.320312 89.671875-19.921874 6.394531-1.933594 11.363281-6.90625 13.296875-13.296876 17.640625-58.363281 25.246094-109.914062 22.691406-153.546874 5.488282.320312 11.097656.484374 16.832032.484374 39.871093 0 85.695312-7.761718 136.722656-23.183593 6.394531-1.933594 11.363281-6.902344 13.296875-13.296875 22.027343-72.878906 28.414062-134.839844 18.984375-184.160156zm-283.726563 165.890624c-15.628906-17.707031-22.0625-39.945312-18.660156-62.289062 22.34375-3.402344 44.582031 3.03125 62.289063 18.660156 19.855468 17.527344 32.835937 45.585938 37.625 81.253906-35.667969-4.789062-63.730469-17.769531-81.253907-37.625zm0 0"/></svg>