<svg height="512pt" viewBox="0 0 512 512.00038" width="512pt" xmlns="http://www.w3.org/2000/svg"><path d="m297.089844 217.851562c2.898437 2.898438 7.714844 2.894532 10.609375 0 2.925781-2.929687 2.925781-7.675781 0-10.605468l-6.492188-6.492188c-2.929687-2.929687-7.679687-2.929687-10.609375 0-2.929687 2.929688-2.929687 7.679688 0 10.605469zm0 0"/><path d="m368.832031 146.113281c2.820313 2.820313 7.667969 2.933594 10.605469 0 2.929688-2.929687 2.929688-7.679687 0-10.609375l-6.492188-6.492187c-2.929687-2.929688-7.679687-2.925781-10.605468 0-2.929688 2.929687-2.929688 7.679687 0 10.609375 0 0 6.488281 6.488281 6.492187 6.492187zm0 0"/><path d="m328.457031 192.5625c6.882813.46875 13.71875-2.257812 18.574219-7.117188 4.980469-4.980468 7.574219-11.75 7.117188-18.574218-.277344-4.132813-3.855469-7.265625-7.984376-6.980469-4.132812.277344-7.257812 3.851563-6.980468 7.984375.167968 2.507812-.835938 5.042969-2.757813 6.964844-1.917969 1.917968-4.449219 2.921875-6.964843 2.753906-4.132813-.28125-7.707032 2.847656-7.984376 6.980469-.277343 4.136719 2.847657 7.710937 6.980469 7.988281zm0 0"/><path d="m64.523438 512c5.9375 0 11.515624-2.3125 15.714843-6.507812 0 0 18.605469-18.605469 18.621094-18.621094 6.542969-6.546875 8.320313-16.835938 4.367187-25.195313l26.492188-26.492187c2.929688-2.929688 2.929688-7.679688 0-10.605469-2.925781-2.929687-7.675781-2.929687-10.605469 0l-25.558593 25.558594-31.773438-31.773438 90.085938-90.085937 31.773437 31.773437-43.503906 43.503907c-2.929688 2.925781-2.929688 7.675781 0 10.605468 2.929687 2.929688 7.675781 2.929688 10.605469 0l44.210937-44.207031c4.277344 2.457031 9.136719 3.773437 14.203125 3.773437 7.636719 0 14.816406-2.972656 20.214844-8.375l75.46875-75.46875c5.519531 3.53125 11.9375 5.433594 18.648437 5.433594 9.269531 0 17.980469-3.605468 24.53125-10.160156l113.582031-113.582031c2.929688 1.386719 6.140626 2.140625 9.480469 2.140625 5.9375 0 11.515625-2.3125 15.714844-6.511719 0 0 18.605469-18.601563 18.621094-18.617187 8.5625-8.566407 8.554687-22.878907 0-31.433594l-71.65625-71.652344c-2.929688-2.929688-7.675781-2.929688-10.605469 0s-2.929688 7.679688 0 10.605469c0 0 71.578125 71.578125 71.652344 71.65625 2.796875 2.792969 2.796875 7.417969 0 10.214843 0 0-18.578125 18.582032-18.621094 18.621094-2.796875 2.800782-7.425781 2.789063-10.214844 0l-110.65625-110.652344c-2.816406-2.820312-2.816406-7.402343 0-10.21875l18.621094-18.621093c2.8125-2.816407 7.398438-2.816407 10.214844 0l17.9375 17.9375c2.929687 2.929687 7.679687 2.929687 10.609375 0 2.925781-2.929688 2.925781-7.675781 0-10.605469l-17.941407-17.9375c-8.664062-8.667969-22.765624-8.664062-31.429687 0l-18.621094 18.617188c-6.800781 6.804687-8.238281 16.945312-4.363281 25.1875l-113.585938 113.589843c-11.707031 11.707031-13.273437 29.761719-4.71875 43.175781l-75.476562 75.476563c-9.3125 9.308594-10.835938 23.492187-4.59375 34.410156l-91.730469 91.730469c-2.925781-1.382812-6.140625-2.140625-9.476562-2.140625-5.9375 0-11.519531 2.3125-15.714844 6.511719 0 0-18.609375 18.605468-18.621094 18.621094-8.570312 8.570312-8.5625 22.867187 0 31.429687l42.378907 42.382813c4.199218 4.195312 9.78125 6.507812 15.71875 6.507812zm172.839843-337.5 112.648438-112.648438 100.050781 100.050782s-112.542969 112.546875-112.648438 112.648437c-7.597656 7.601563-20.261718 7.585938-27.847656 0l-72.203125-72.199219c-7.675781-7.679687-7.675781-20.171874 0-27.851562zm-80.195312 118.652344 74.894531-74.890625 61.59375 61.59375s-74.769531 74.769531-74.890625 74.890625c-5.25 5.25-13.976563 5.238281-19.214844 0l-42.382812-42.382813c-5.296875-5.296875-5.296875-13.914062 0-19.210937zm-142.21875 154.242187c0-1.863281.695312-3.71875 2.082031-5.109375 0 0 18.585938-18.582031 18.621094-18.621094 2.785156-2.785156 7.4375-2.777343 10.21875 0 0 0 42.304687 42.308594 42.378906 42.382813 2.792969 2.792969 2.785156 7.433594 0 10.214844 0 0-18.578125 18.582031-18.621094 18.621093-2.785156 2.785157-7.441406 2.777344-10.214844 0 0 0-42.320312-42.320312-42.382812-42.378906-1.390625-1.390625-2.082031-3.25-2.082031-5.109375zm0 0"/></svg>