<svg height="512pt" viewBox="0 -10 512.001 512" width="512pt" xmlns="http://www.w3.org/2000/svg"><path d="m266.894531 229.191406c4.140625 0 7.5-3.355468 7.5-7.5v-13.980468c0-4.140626-3.359375-7.5-7.5-7.5-4.144531 0-7.5 3.359374-7.5 7.5v13.980468c0 4.144532 3.355469 7.5 7.5 7.5zm0 0"/><path d="m257.371094 249.742188h19.042968c4.140626 0 7.5-3.359376 7.5-7.5 0-4.140626-3.359374-7.5-7.5-7.5h-19.042968c-4.140625 0-7.5 3.359374-7.5 7.5 0 4.140624 3.359375 7.5 7.5 7.5zm0 0"/><path d="m123.082031 229.191406c4.144531 0 7.5-3.355468 7.5-7.5v-13.980468c0-4.140626-3.355469-7.5-7.5-7.5-4.140625 0-7.5 3.359374-7.5 7.5v13.980468c0 4.144532 3.359375 7.5 7.5 7.5zm0 0"/><path d="m113.5625 249.742188h19.039062c4.144532 0 7.5-3.359376 7.5-7.5 0-4.140626-3.355468-7.5-7.5-7.5h-19.039062c-4.144531 0-7.5 3.359374-7.5 7.5 0 4.140624 3.355469 7.5 7.5 7.5zm0 0"/><path d="m194.988281 248.953125c7.175781 0 13.921875-3.007813 18.507813-8.253906 2.726562-3.117188 2.40625-7.855469-.710938-10.582031-3.121094-2.726563-7.855468-2.410157-10.582031.710937-1.738281 1.984375-4.367187 3.125-7.214844 3.125-2.847656 0-5.476562-1.140625-7.214843-3.125-2.722657-3.121094-7.464844-3.4375-10.582032-.710937-3.121094 2.726562-3.4375 7.464843-.710937 10.582031 4.582031 5.246093 11.332031 8.253906 18.507812 8.253906zm0 0"/><path d="m455.074219 43.289062c4.910156 9.90625 15.125 16.738282 26.910156 16.738282 16.550781.003906 30.015625-13.460938 30.015625-30.011719s-13.464844-30.015625-30.015625-30.015625c-15.96875 0-29.0625 12.542969-29.960937 28.292969-30.390626 12.160156-50.460938 41.496093-50.460938 74.644531v286.851562c0 33.1875 20.054688 62.492188 50.464844 74.648438.894531 15.75 13.988281 28.289062 29.960937 28.289062 16.546875 0 30.011719-13.464843 30.011719-30.015624 0-16.546876-13.464844-30.011719-30.011719-30.011719-11.789062 0-22.007812 6.832031-26.914062 16.746093-23.304688-10.46875-38.507813-33.589843-38.507813-59.65625v-27.75h36.355469c3.339844 12.933594 15.105469 22.511719 29.066406 22.511719 16.546875 0 30.011719-13.460937 30.011719-30.011719 0-16.550781-13.464844-30.015624-30.011719-30.015624-13.960937 0-25.726562 9.582031-29.066406 22.515624h-36.355469v-93.175781h36.355469c3.339844 12.933594 15.105469 22.515625 29.066406 22.515625 16.546875 0 30.011719-13.464844 30.011719-30.015625 0-16.546875-13.464844-30.011719-30.015625-30.011719-13.960937 0-25.722656 9.582032-29.0625 22.511719h-36.359375v-93.171875h36.359375c3.339844 12.929688 15.101563 22.511719 29.0625 22.511719 16.550781 0 30.015625-13.464844 30.015625-30.011719 0-16.550781-13.464844-30.015625-30.015625-30.015625-13.960937 0-25.722656 9.582031-29.0625 22.515625h-36.359375v-27.753906c0-26.035156 15.214844-49.179688 38.511719-59.648438zm26.910156-28.289062c8.28125 0 15.015625 6.734375 15.015625 15.015625 0 8.277344-6.734375 15.011719-15.015625 15.011719-8.277344 0-15.011719-6.734375-15.011719-15.011719 0-8.28125 6.734375-15.015625 15.011719-15.015625zm0 432.699219c8.28125 0 15.015625 6.734375 15.015625 15.015625 0 8.277344-6.734375 15.011718-15.015625 15.011718-8.277344 0-15.011719-6.734374-15.011719-15.011718 0-8.28125 6.734375-15.015625 15.011719-15.015625zm0-108.171875c8.28125 0 15.015625 6.734375 15.015625 15.011718 0 8.28125-6.734375 15.015626-15.015625 15.015626-8.277344 0-15.011719-6.734376-15.011719-15.015626 0-8.277343 6.734375-15.011718 15.011719-15.011718zm0-108.175782c8.28125 0 15.015625 6.734376 15.015625 15.011719 0 8.28125-6.734375 15.015625-15.015625 15.015625-8.277344 0-15.011719-6.734375-15.011719-15.015625 0-8.277343 6.734375-15.011719 15.011719-15.011719zm0-108.175781c8.28125 0 15.015625 6.734375 15.015625 15.015625 0 8.277344-6.734375 15.011719-15.015625 15.011719-8.277344 0-15.011719-6.734375-15.011719-15.011719 0-8.28125 6.734375-15.015625 15.011719-15.015625zm0 0"/><path d="m379.945312 276.328125v-36.664063c6.261719-7.613281 10.03125-17.355468 10.03125-27.964843 0-12.082031-4.890624-23.046875-12.796874-31.015625-6.289063-35.152344-23.058594-67.40625-48.617188-93.40625-2.902344-2.953125-7.648438-2.996094-10.605469-.09375-2.953125 2.902344-2.992187 7.652344-.089843 10.605468 20.082031 20.4375 34.25 45.058594 41.511718 71.9375-.054687-.015624-.105468-.027343-.15625-.046874-6.324218-2.011719-13.121094-2.542969-19.683594-1.597657-4.71875.683594-9.25 2.113281-13.492187 4.253907-33.476563 8.929687-67.957031 4.730468-96.8125-3.226563-.0625-.015625-.128906-.035156-.191406-.050781-32.191407-8.894532-64.125-23.597656-91.578125-42.753906-3.265625-2.277344-7.824219-2.425782-10.632813.960937-7.707031 9.296875-16.824219 17.527344-26.933593 24.222656-14.527344 9.621094-32.515626 16.453125-50.148438 16.457031-3.085938 0-6.085938-.433593-9.195312-.183593-3.320313.269531-6.613282.910156-9.792969 1.917969-.046875.015624-.097657.03125-.148438.042968 8.703125-32.058594 27.335938-61.117187 53.53125-83.0625 30.828125-25.824218 70.195313-40.046875 110.84375-40.046875 36.71875 0 71.703125 11.25 101.171875 32.53125 3.355469 2.425781 8.042969 1.667969 10.472656-1.6875 2.421876-3.359375 1.667969-8.046875-1.691406-10.472656-32.042968-23.140625-70.0625-35.371094-109.953125-35.371094-44.167969 0-86.953125 15.464844-120.476562 43.550781-32.546875 27.265626-54.390625 64.65625-61.710938 105.511719-7.90625 7.972657-12.800781 18.9375-12.800781 31.023438 0 10.609375 3.765625 20.351562 10.03125 27.964843v36.664063c0 19.804687 4.761719 39.609375 13.769531 57.277344 1.882813 3.691406 6.398438 5.15625 10.089844 3.273437 3.6875-1.878906 5.15625-6.394531 3.273437-10.085937-7.9375-15.570313-12.132812-33.019531-12.132812-50.464844v-24.839844c3.207031 1.539063 6.601562 2.667969 10.117188 3.382813 2.640624.542968 5.363281.851562 8.0625.90625 14.023437 45.507812 48.929687 81.917968 94.15625 98.988281-5.378907 3.421875-11.445313 8.015625-17.445313 14.035156-.050781.050781-.101563.101563-.152344.152344-5.328125 5.367187-10.597656 11.855469-15.273437 19.6875l-29.71875-19.6875c-8.332032-5.519531-15.894532-12.15625-22.480469-19.730469-2.714844-3.125-7.453125-3.457031-10.578125-.738281-3.128906 2.714844-3.460938 7.453125-.742188 10.582031 7.472657 8.59375 16.054688 16.128906 25.515626 22.394532l31.238281 20.695312c-5.730469 13.648438-9.664063 30.609375-9.664063 51.460938 0 4.140624 3.359375 7.5 7.5 7.5h198.839844c4.140625 0 7.5-3.359376 7.5-7.5 0-20.851563-3.933594-37.8125-9.667969-51.460938l31.242188-20.695312c35.355469-23.421876 56.464843-62.722657 56.464843-105.132813zm-14.710937-42.929687c-4.085937 3.65625-9.195313 6.109374-14.609375 7 .082031-.417969.152344-.835938.230469-1.253907 1.683593-9.042969 2.535156-18.246093 2.535156-27.445312 0-8.210938-.675781-16.4375-2.023437-24.539063-.226563-1.386718-.472657-2.769531-.738282-4.148437 4.234375.703125 8.300782 2.339843 11.828125 4.792969 7.558594 5.257812 12.519531 14.007812 12.519531 23.894531 0 8.175781-3.648437 16.25-9.742187 21.699219zm-339.671875.710937c-6.628906-5.480469-10.5625-13.808594-10.5625-22.410156 0-9.886719 4.960938-18.636719 12.527344-23.894531.03125-.019532.058594-.042969.089844-.066407 3.226562-2.210937 7.039062-3.835937 10.949218-4.589843.257813-.050782.519532-.09375.78125-.136719-.273437 1.398437-.519531 2.796875-.75 4.203125-1.335937 8.078125-2.015625 16.292968-2.015625 24.484375 0 9.617187.925781 19.261719 2.769531 28.699219-5.160156-.847657-9.867187-3.058594-13.738281-6.25-.015625-.011719-.035156-.027344-.050781-.039063zm41.003906-52.945313c21.867188-4.222656 42.328125-15.398437 58.625-30.40625 1.882813-1.734374 8.621094-8.796874 8.699219-8.75 19.011719 12.5 82.429687 50.410157 152.109375 50.410157 17.453125 0 34.148438-2.4375 49.753906-7.253907.023438.128907.054688.253907.082032.378907 3.515624 17.921875 3.425781 36.730469-.484376 54.582031-11.605468 53.558594-55.324218 95.84375-110.734374 107.132812-19.449219 3.960938-39.816407 4.007813-59.261719 0-55.40625-11.292968-99.121094-53.574218-110.730469-107.125-2.371094-10.949218-3.367188-22.4375-2.925781-33.726562.3125-7.953125 1.324219-15.886719 3.035156-23.664062 3.976563-.292969 7.925781-.824219 11.832031-1.578126zm128.421875 184.074219c7.117188 0 21.835938-1.453125 22.109375-1.488281-7.15625 9.875-15.867187 18.792969-22.109375 18.792969-6.246093 0-14.957031-8.925781-22.113281-18.792969.277344.035156 15.003906 1.488281 22.113281 1.488281zm-81.292969 37.828125c.066407-.113281.144532-.21875.203126-.339844 10.304687-20.882812 25.949218-32.328124 36.007812-37.910156v81.300782h-46.652344c.8125-16.152344 4.320313-30.527344 10.441406-43.050782zm51.210938-24.964844c8.0625 9.90625 18.757812 19.441407 30.082031 19.441407s22.019531-9.535157 30.078125-19.441407v68.015626h-60.160156zm75.160156 68.015626v-81.300782c10.0625 5.582032 25.703125 17.027344 36.007813 37.910156.089843.183594.195312.351563.296875.523438 6.066406 12.476562 9.539062 26.792969 10.351562 42.867188zm45.410156-57.472657c-9.984374-16.738281-22.671874-27.398437-32.859374-33.878906 45.222656-17.074219 80.121093-53.480469 94.148437-98.988281.230469-.003906.457031-.023438.683594-.03125 6.039062-.207032 12.046875-1.640625 17.496093-4.257813v24.84375c0 37.363281-18.597656 71.992188-49.75 92.625zm0 0"/></svg>