<svg height="512pt" viewBox="0 -20 512 512" width="512pt" xmlns="http://www.w3.org/2000/svg"><path d="m41.820312 376.5625c-4.144531 0-7.5 3.359375-7.5 7.5v51.402344c0 19.773437 16.085938 35.859375 35.855469 35.859375h44.414063c4.140625 0 7.5-3.359375 7.5-7.5 0-14.789063 12.03125-26.820313 26.820312-26.820313 14.789063 0 26.820313 12.03125 26.820313 26.820313 0 4.140625 3.355469 7.5 7.5 7.5h145.539062c4.140625 0 7.5-3.359375 7.5-7.5 0-14.789063 12.03125-26.820313 26.820313-26.820313 14.789062 0 26.820312 12.03125 26.820312 26.820313 0 4.140625 3.359375 7.5 7.5 7.5h44.410156c19.773438 0 35.859376-16.085938 35.859376-35.859375v-44.574219c19.492187-3.546875 34.320312-20.648437 34.320312-41.148437s-14.828125-37.601563-34.320312-41.144532v-152.695312c0-4.144532-3.359376-7.5-7.5-7.5-14.789063 0-26.820313-12.03125-26.820313-26.820313 0-14.789062 12.03125-26.820312 26.820313-26.820312 4.140624 0 7.5-3.359375 7.5-7.5v-51.402344c0-19.773437-16.085938-35.859375-35.859376-35.859375h-44.410156c-4.140625 0-7.5 3.359375-7.5 7.5 0 14.789062-12.03125 26.820312-26.820312 26.820312-14.789063 0-26.820313-12.03125-26.820313-26.820312 0-4.140625-3.355469-7.5-7.5-7.5h-146.253906c-2.257813 0-4.390625 1.015625-5.816406 2.765625-2.863281 3.515625-.90625 8.125-.972657 12.179687-.246093 14.785157-12.019531 26.363282-26.800781 26.367188-.183593 0-.363281-.003906-.546875-.007812-14.496094-.277344-26.289062-12.308594-26.289062-26.8125 0-4.050782 1.90625-8.191407-.972656-11.726563-1.421876-1.75-3.558594-2.765625-5.8125-2.765625h-45.125c-19.773438 0-35.859376 16.085938-35.859376 35.859375v44.574219c-19.492187 3.546875-34.320312 20.648437-34.320312 41.148437 0 20.496094 14.828125 37.601563 34.320312 41.144531v152.699219c0 4.140625 3.355469 7.5 7.5 7.5 14.789063 0 26.820313 12.027344 26.820313 26.816407 0 14.789062-12.03125 26.820312-26.820313 26.820312zm455.179688-26.820312c0 14.789062-12.03125 26.820312-26.820312 26.820312-4.140626 0-7.5 3.359375-7.5 7.5v51.402344c0 11.503906-9.355469 20.859375-20.859376 20.859375h-37.585937c-3.542969-19.492188-20.644531-34.320313-41.144531-34.320313s-37.601563 14.828125-41.144532 34.320313h-58.445312v-65.433594c19.492188-3.546875 34.320312-20.648437 34.320312-41.148437s-14.828124-37.601563-34.320312-41.144532v-65.4375h65.984375c3.554687 0 6.625-2.496094 7.34375-5.976562 2.5625-12.371094 13.605469-21.351563 26.261719-21.351563 12.4375 0 23.738281 9.164063 26.261718 21.351563.71875 3.480468 3.785157 5.976562 7.34375 5.976562h65.984376v72.261719c0 4.144531 3.355468 7.5 7.5 7.5 14.789062 0 26.820312 12.03125 26.820312 26.820313zm-233.5-262.480469v-72.261719h58.445312c3.542969 19.492188 20.644532 34.320312 41.144532 34.320312s37.601562-14.828124 41.144531-34.320312h37.585937c11.503907 0 20.859376 9.355469 20.859376 20.859375v44.574219c-19.492188 3.546875-34.320313 20.648437-34.320313 41.148437 0 20.496094 14.828125 37.601563 34.320313 41.144531v65.433594h-60.355469c-5.976563-16.144531-21.601563-27.328125-39.234375-27.328125-17.628906 0-33.253906 11.183594-39.234375 27.328125h-60.355469v-72.261718c0-4.140626-3.359375-7.5-7.5-7.5-14.789062 0-26.820312-12.03125-26.820312-26.816407 0-14.789062 12.03125-26.820312 26.820312-26.820312 4.140625 0 7.5-3.359375 7.5-7.5zm-248.5 34.320312c0-14.789062 12.03125-26.820312 26.820312-26.820312 4.140626 0 7.5-3.359375 7.5-7.5v-51.402344c0-11.503906 9.355469-20.859375 20.855469-20.859375h36.917969c.269531 22.390625 18.558594 40.871094 40.996094 41.304688.28125.003906.558594.007812.839844.007812 23.050781-.003906 41.410156-18.0625 41.792968-41.117188 0-.0625.003906-.128906.003906-.195312h57.773438v65.4375c-19.492188 3.542969-34.320312 20.644531-34.320312 41.144531s14.828124 37.601563 34.320312 41.144531v65.433594s-65.933594 0-65.984375 0c-3.605469 0-6.878906 2.714844-7.398437 6.3125-.507813 3.527344.820312 7.289063.46875 10.921875-1.34375 13.871094-14.578126 25.34375-28.621094 24.003907-12.925782-.9375-23.398438-11.210938-24.730469-23.992188-.316406-3.175781.4375-6.300781.550781-9.46875.15625-4.191406-3.28125-7.777344-7.480468-7.777344h-65.984376v-72.261718c0-4.140626-3.359374-7.5-7.5-7.5-14.789062.003906-26.820312-12.03125-26.820312-26.816407zm34.320312 187.015625v-65.4375h57.773438c.09375.695313.039062 1.445313.082031 2.148438 1.289063 21.0625 17.648438 37.519531 38.554688 39.039062 23.058593 1.671875 43.484375-15.875 44.910156-39.027344.046875-.71875.074219-1.4375.085937-2.160156h57.773438v72.261719c0 4.144531 3.359375 7.5 7.5 7.5 14.789062 0 26.820312 12.03125 26.820312 26.820313 0 14.789062-12.03125 26.820312-26.820312 26.820312-4.140625 0-7.5 3.359375-7.5 7.5v72.261719h-58.445312c-3.542969-19.492188-20.644532-34.320313-41.144532-34.320313s-37.601562 14.828125-41.144531 34.320313h-37.585937c-11.503907 0-20.859376-9.355469-20.859376-20.859375v-44.574219c19.492188-3.546875 34.320313-20.648437 34.320313-41.148437s-14.828125-37.601563-34.320313-41.144532zm0 0"/></svg>