<svg height="512pt" viewBox="0 -34 512 512" width="512pt" xmlns="http://www.w3.org/2000/svg"><path d="m422.898438 347.792969c4.140624 0 7.5-3.355469 7.5-7.5v-9.871094c0-4.140625-3.359376-7.5-7.5-7.5-4.140626 0-7.5 3.359375-7.5 7.5v9.871094c0 4.144531 3.359374 7.5 7.5 7.5zm0 0"/><path d="m321.367188 347.792969c4.144531 0 7.5-3.355469 7.5-7.5v-9.871094c0-4.140625-3.355469-7.5-7.5-7.5-4.140626 0-7.5 3.359375-7.5 7.5v9.871094c0 4.144531 3.359374 7.5 7.5 7.5zm0 0"/><path d="m386.148438 344.582031c-3.117188-2.726562-7.855469-2.410156-10.582032.707031-.808594.925782-2.058594 1.453126-3.433594 1.453126s-2.625-.527344-3.433593-1.453126c-2.726563-3.117187-7.464844-3.4375-10.582031-.710937-3.121094 2.726563-3.4375 7.464844-.710938 10.585937 3.65625 4.179688 9.023438 6.578126 14.726562 6.578126 5.703126 0 11.070313-2.394532 14.726563-6.578126 2.726563-3.117187 2.410156-7.855468-.710937-10.582031zm0 0"/><path d="m512 333.238281c0-13.21875-7.738281-24.664062-18.921875-30.046875v-38.984375c0-46.828125-35.582031-85.5-81.136719-90.433593-5.679687-34.84375-20.207031-67.527344-41.988281-95.046876-.042969-.054687-.085937-.109374-.128906-.164062-41.242188-48.417969-98.011719-78.5625-162.492188-78.5625-65.402343 0-123.816406 30.449219-161.84375 77.902344-.5.625-1.058593 1.125-1.460937 1.828125-27.570313 35.207031-44.027344 79.515625-44.027344 127.601562 0 48.082031 16.457031 92.394531 44.03125 127.601563.09375.167968 1.03125 1.441406 1.460938 1.832031 38.023437 47.449219 96.433593 77.894531 161.851562 77.898437 25.746094-.003906 50.804688-4.660156 74.582031-13.839843 20.875 26.148437 53.546875 43.019531 90.207031 43.019531 50.941407 0 94.1875-32.566406 108.773438-77.359375 17.335938-1.15625 31.09375-15.617187 31.09375-33.246094zm-33.921875-69.03125v27.496094c-.558594-1.347656-4.914063-10.570313-6.9375-13.585937-9.648437-14.507813-25.863281-23.3125-43.550781-23.3125h-110.910156c-12.496094 0-24.882813 4.585937-34.316407 12.789062-9.710937 8.445312-15.34375 20.335938-19.203125 32.40625-.097656.007812-.191406.011719-.289062.019531v-37.253906c0-22.914063 18.644531-41.558594 41.558594-41.558594 3.191406 0 6.035156-2.023437 7.085937-5.039062.613281-1.777344 2.171875-3.09375 3.472656-4.371094 21.59375-21.230469 60.046875-24.136719 88.746094-23.519531 41.140625.890625 74.34375 34.59375 74.34375 75.929687zm-462.917969-49.375h78.503906c1.101563 29.476563 8.578126 56.53125 18.757813 80.199219-22.316406 6.484375-42.679687 15.273438-60.054687 26.082031-22.085938-30.003906-35.679688-66.621093-37.207032-106.28125zm37.207032-121.285156c17.367187 10.804687 37.730468 19.59375 60.039062 26.078125-13.332031 31.109375-17.917969 58.695312-18.75 80.207031h-78.496094c1.527344-39.664062 15.121094-76.28125 37.207032-106.285156zm194.957031 238.277344c.582031-7 5.410156-13.402344 12.050781-15.804688-1.082031 6.976563-1.457031 14.054688-1.203125 21.113281.15625 4.394532.5625 8.796876 1.273437 13.136719.011719.078125.019532.152344.03125.226563-7.628906-2.722656-12.824218-10.558594-12.152343-18.671875zm.546875-69.058594v21.511719c-10.859375-1.21875-21.917969-1.949219-33.039063-2.175782v-67.269531h59.625c-15.953125 10.007813-26.585937 27.75-26.585937 47.933594zm57.925781-62.933594h-90.964844v-67.273437c25.246094-.515625 49.832031-3.628906 72.734375-9.066406 9.914063 22.476562 17.269532 48.207031 18.414063 76.167968-.0625.058594-.121094.113282-.183594.171875zm-90.964844-82.277343v-93.65625c9.832031 9.078124 24.421875 23.761718 38.984375 42.921874 8.949219 11.769532 18.59375 26.226563 27.144532 42.835938-20.859376 4.710938-43.1875 7.414062-66.128907 7.898438zm-15-93.652344v93.652344c-22.945312-.484376-45.273437-3.1875-66.132812-7.898438 8.257812-16.054688 17.535156-30.074219 26.203125-41.589844 14.878906-19.773437 29.882812-34.894531 39.929687-44.164062zm0 108.65625v67.273437h-91.152343c1.132812-28.046875 8.496093-53.839843 18.414062-76.339843 22.90625 5.4375 47.492188 8.550781 72.738281 9.066406zm-91.152343 82.273437h91.152343v67.269531c-25.246093.515626-49.835937 3.632813-72.738281 9.066407-9.921875-22.496094-17.28125-48.289063-18.414062-76.335938zm91.152343 82.273438v93.65625c-10.046875-9.273438-25.050781-24.394531-39.929687-44.167969-8.667969-11.515625-17.945313-25.535156-26.203125-41.589844 20.859375-4.707031 43.1875-7.410156 66.132812-7.898437zm15 93.660156v-93.660156c11.136719.234375 22.199219.992187 33.039063 2.261719v5.644531c-9.519532 5.972656-15.605469 17-15.605469 28.226562 0 9.851563 4.65625 19.59375 12.28125 25.820313.066406.054687.136719.113281.207031.167968-11.371094 13.648438-22.136718 24.351563-29.921875 31.539063zm180.5-217.296875c-25.414062 1.402344-51.875 4.945312-74.890625 16.457031-.015625.007813-.03125.015625-.046875.019531-2.207031-25.640624-9.105469-49.308593-18.144531-70.316406 22.339844-6.496094 42.726562-15.300781 60.109375-26.121094 17.335937 23.585938 29.136719 50.886719 34.308594 79.882813-.449219.023437-.890625.050781-1.335938.078125zm-42.386719-91.765625c-16.492187 10.050781-35.851562 18.199219-57.078124 24.183594-9.453126-18.949219-20.328126-35.316407-30.375-48.492188-13.539063-17.761719-26.914063-31.699219-36.921876-41.214843 39.175782 4.339843 76.195313 20.613281 105.984376 46.914062 6.582031 5.808594 12.714843 12.035156 18.390624 18.609375zm-166.855468-65.523437c-10.253906 9.746093-24.035156 24.128906-37.90625 42.515624-12.265625 16.25-21.882813 32.066407-29.410156 47.183594-21.191407-5.972656-40.519532-14.105468-56.992188-24.136718 30.933594-35.800782 74.824219-60.101563 124.308594-65.5625zm-124.308594 316.742187c16.480469-10.039063 35.820312-18.171875 57.023438-24.148437 9.148437 18.351562 19.625 34.273437 29.378906 47.195312 13.871094 18.382812 27.652344 32.765625 37.90625 42.515625-49.484375-5.464844-93.375-29.761719-124.308594-65.5625zm166.757812 65.589844c8.335938-7.925781 19.015626-18.929688 30.191407-32.660157.777343.164063 1.558593.300782 2.34375.402344.753906.097656 1.511719.1875 2.269531.238282 2.441406 7.523437 5.710938 14.753906 9.773438 21.621093-14.417969 5.253907-29.324219 8.730469-44.578126 10.398438zm143.59375 30.332031c-34.738281 0-65.351562-17.359375-83.035156-43.554688-9.992187-14.804687-15.628906-32.511718-15.988281-50.371093-.53125-26.496094 11.148437-65.113281 43.570313-65.113281h110.910156c23.003906 0 35.238281 19.214843 40.507812 39.203124 3.75 14.238282 4.097656 29.433594.980469 43.828126-9.394531 43.347656-49.292969 76.007812-96.945313 76.007812zm112.652344-78.324219c.011719-.082031.023438-.167969.035156-.25.878907-5.566406 1.351563-11.34375 1.351563-17.027343 0-5.769532-.402344-11.542969-1.285156-17.246094 7.054687 2.554687 12.113281 9.320312 12.113281 17.246094 0 7.960937-5.105469 14.753906-12.214844 17.277343zm0 0"/></svg>