<svg height="512pt" viewBox="0 0 512 512" width="512pt" xmlns="http://www.w3.org/2000/svg"><path d="m203.039062 129.058594c0 3.253906-2.636718 5.886718-5.886718 5.886718-3.253906 0-5.886719-2.632812-5.886719-5.886718 0-3.25 2.632813-5.886719 5.886719-5.886719 3.25 0 5.886718 2.636719 5.886718 5.886719zm0 0"/><path d="m146.019531 448.34375c0 3.25-2.636719 5.886719-5.886719 5.886719-3.253906 0-5.890624-2.636719-5.890624-5.886719s2.636718-5.886719 5.890624-5.886719c3.25 0 5.886719 2.636719 5.886719 5.886719zm0 0"/><path d="m377.757812 448.34375c0 3.25-2.636718 5.886719-5.890624 5.886719-3.25 0-5.886719-2.636719-5.886719-5.886719s2.636719-5.886719 5.886719-5.886719c3.253906 0 5.890624 2.636719 5.890624 5.886719zm0 0"/><path d="m439.105469 301.6875c3.554687-14.597656 5.375-29.613281 5.375-44.714844 0-68.324218-36.707031-130.839844-96.082031-164.277344v-85.195312c0-4.140625-3.359376-7.5-7.5-7.5h-165.964844c-4.140625 0-7.5 3.359375-7.5 7.5v83.09375c-28.96875 15.449219-53.464844 38.195312-71.019532 66.058594-18.902343 30.003906-28.894531 64.691406-28.894531 100.320312 0 15.097656 1.820313 30.117188 5.375 44.714844l-70.699219 70.695312c-1.40625 1.40625-2.195312 3.3125-2.195312 5.304688v126.8125c0 4.140625 3.359375 7.5 7.5 7.5h107.894531c1.988281 0 3.898438-.789062 5.304688-2.195312l65.496093-65.5s11.558594 11.558593 11.566407 11.566406c10.894531 10.894531 29.066406 10.878906 39.949219-.003906 3.089843-3.089844 5.367187-6.773438 6.742187-10.789063 3.867187.238281 7.730469.371094 11.546875.371094s7.679688-.132813 11.546875-.371094c1.375 4.015625 3.652344 7.699219 6.742187 10.789063 10.894532 10.890624 29.066407 10.886718 39.949219.003906l11.566407-11.566406 65.496093 65.5c1.40625 1.40625 3.316407 2.195312 5.304688 2.195312h107.894531c4.140625 0 7.5-3.359375 7.5-7.5v-126.8125c0-1.988281-.789062-3.898438-2.195312-5.304688zm-156.515625 78.09375c-4.445313-5.464844-3.566406-14.144531 1.875-18.617188 5.101562-4.191406 13.097656-3.773437 17.753906.882813 6.84375 6.84375 17.4375-3.773437 10.605469-10.605469-5.105469-5.105468-5.089844-13.640625.007812-18.734375 5.105469-5.109375 13.625-5.101562 18.726563-.003906 6.300781 6.304687 16.925781-2.917969 11.125-10.03125-4.855469-5.953125-5.980469-14.925781.480468-20.203125.046876-.039062.097657-.070312.144532-.109375 5.105468-4.078125 12.976562-3.601563 17.589844 1.003906 6.636718 6.628907 17.53125-3.683593 10.609374-10.605469-5.164062-5.164062-5.164062-13.566406 0-18.730468 5.101563-5.097656 13.636719-5.089844 18.730469 0l58.4375 58.4375-106.75 106.75s-59.058593-59.089844-59.335937-59.433594zm-115.15625-173.800781h-16.359375c-7.300781 0-13.242188-5.941407-13.242188-13.242188 0-7.304687 5.941407-13.25 13.242188-13.25h16.359375zm15-49.292969h150.964844v82.640625c0 7.304687-5.941407 13.246094-13.246094 13.246094-7.300782 0-13.242188-5.941407-13.242188-13.242188 0-9.648437-15-9.707031-15-.003906 0 7.304687-5.945312 13.246094-13.25 13.246094-7.304687 0-13.246094-5.941407-13.246094-13.242188 0-9.660156-15-9.695312-15-.003906 0 7.304687-5.941406 13.246094-13.242187 13.246094-7.308594 0-13.25-5.941407-13.25-13.242188-.003906-9.671875-15-9.6875-15-.003906 0 7.304687-5.941406 13.246094-13.246094 13.246094-7.300781 0-13.242187-5.941407-13.242187-13.246094zm0-141.6875h150.964844v86.429688h-26.160157c-4.140625 0-7.5 3.359374-7.5 7.5 0 4.144531 3.359375 7.5 7.5 7.5h26.160157v25.257812h-150.964844v-25.257812h94.917968c4.140626 0 7.5-3.355469 7.5-7.5 0-4.140626-3.359374-7.5-7.5-7.5h-94.917968zm-60.671875 259.03125c5.105469-5.105469 13.628906-5.101562 18.730469 0 5.164062 5.160156 5.164062 13.5625 0 18.726562-6.789063 6.792969 3.722656 17.492188 10.605468 10.609376 4.941406-4.941407 13.722656-5.007813 18.734375.003906 5.800781 5.800781 4.136719 13.597656-.511719 19.296875-5.261718 6.449219 2.96875 15.601562 9.941407 11 6.335937-4.179688 13.667969-7.203125 19.90625-.960938 5.105469 5.109375 5.105469 13.632813.007812 18.734375-6.816406 6.820313 3.738281 17.472656 10.605469 10.605469 5.0625-5.0625 13.683594-5.046875 18.730469 0 5.089843 5.09375 5.082031 13.648437 0 18.730469l-58.4375 58.4375-106.746094-106.746094s58.398437-58.402344 58.433594-58.4375zm19.847656 193.648438-65.925781-65.921876c-2.925782-2.933593-7.675782-2.929687-10.605469 0-2.929687 2.925782-2.929687 7.675782 0 10.605469l65.925781 65.921875-18.714844 18.714844h-97.289062v-116.207031l9.253906-9.253907 19.753906 19.753907c2.929688 2.929687 7.679688 2.929687 10.605469 0 1.464844-1.464844 2.199219-3.382813 2.199219-5.300781 0-1.921876-.734375-3.839844-2.199219-5.304688l-19.753906-19.753906 17.859375-17.859375 106.746094 106.746093zm76.125-18.636719c-3.40625.003906-6.824219-1.234375-9.363281-3.777344l-11.566406-11.566406 18.734374-18.734375s11.5625 11.566406 11.566407 11.566406c5.078125 5.082031 5.066406 13.660156 0 18.730469-2.496094 2.496093-5.925781 3.773437-9.371094 3.78125zm27.65625-18.917969c-.957031-4.628906-3.0625-8.925781-6.171875-12.554688-4.003906-4.679687-8.722656-8.855468-13.074219-13.210937 0 0 12.957031-12.960937 12.972657-12.976563 10.785156-10.785156 10.765624-29.179687 0-39.941406-5.273438-5.273437-12.515626-8.273437-19.972657-8.273437-.375 0-.746093.007812-1.113281.023437.015625-.371094.019531-.742187.019531-1.117187 0-15.800781-13.589843-28.839844-29.375-28.222657.09375-2.375-.109375-4.757812-.613281-7.09375-2.757812-12.835937-14.476562-22.269531-27.601562-22.269531-.371094 0-.742188.007813-1.109376.023438.011719-.371094.019532-.742188.019532-1.113281 0-7.546876-2.9375-14.636719-8.273438-19.972657-10.886718-10.890625-29.066406-10.878906-39.941406 0l-25.660156 25.65625c-1.980469-10.558593-2.976563-21.3125-2.976563-32.109375 0-32.792968 9.191407-64.71875 26.582031-92.324218 14.71875-23.363282 34.730469-42.832032 58.328126-56.867188v56.707031h-16.355469c-15.574219 0-28.246094 12.671875-28.246094 28.25 0 15.574219 12.671875 28.242188 28.246094 28.242188h16.355469v18.347656c0 15.574219 12.671874 28.246094 28.246093 28.246094 8.191407 0 15.582031-3.507813 20.746094-9.097657 5.164063 5.589844 12.554687 9.097657 20.75 9.097657 8.191406 0 15.578125-3.503907 20.742187-9.09375 5.164063 5.589843 12.550782 9.09375 20.742188 9.09375 8.195312 0 15.585938-3.507813 20.75-9.097657 5.164062 5.589844 12.554688 9.097657 20.746094 9.097657 15.574218 0 28.246094-12.671875 28.246094-28.246094v-129.203125c50.316406 31.664062 81.082031 86.828125 81.082031 146.84375 0 10.800781-1 21.554688-2.976563 32.113281 0 0-25.640625-25.640625-25.660156-25.660156-10.75-10.746094-29.210938-10.730469-39.941406 0-5.335938 5.335937-8.273438 12.429687-8.273438 19.976563 0 .371093.007813.742187.019532 1.109374-.371094-.011718-.738282-.019531-1.109376-.019531-15.816406 0-28.835937 13.585938-28.214843 29.363281-.375-.015624-.75-.023437-1.128907-.023437-15.382812 0-28.246093 12.867187-28.246093 28.246094 0 .371093.003906.746093.019531 1.113281-.371094-.011719-.777344-.023438-1.117188-.019531-21.113281.273437-35.246093 24.414062-24.25 42.738281 1.179688 1.972656 17.253907 18.453125 17.253907 18.453125-7.628907 7.628906-16.941407 14.609375-19.246094 25.765625-7.105469.429688-14.113281.429688-21.21875 0zm69.808594 3.574219s-11.550781 11.550781-11.566407 11.566406c-5.113281 5.113281-13.625 5.101563-18.734374-.003906-5.054688-5.058594-5.074219-13.664063 0-18.730469l11.566406-11.566406zm144.082031-90.625 17.859375 17.859375-106.75 106.746094-17.859375-17.859376zm37.71875 153.925781h-97.289062l-18.714844-18.714844 106.75-106.746094 9.253906 9.253907zm0 0"/></svg>