<svg height="512pt" viewBox="0 0 512 512.00238" width="512pt" xmlns="http://www.w3.org/2000/svg"><path d="m166.800781 288.097656c1.921875 0 3.855469-.707031 5.304688-2.160156 2.929687-2.929688 2.929687-7.683594 0-10.613281l-10.296875-10.296875c-2.929688-2.929688-7.679688-2.929688-10.609375 0-2.933594 2.933594-2.933594 7.683594 0 10.613281 0 0 10.292969 10.292969 10.296875 10.296875 1.425781 1.429688 3.363281 2.15625 5.304687 2.160156zm0 0"/><path d="m280.585938 174.292969c1.941406 0 3.878906-.714844 5.304687-2.140625 2.929687-2.929688 2.929687-7.679688 0-10.609375l-10.296875-10.296875c-2.929688-2.933594-7.679688-2.933594-10.609375 0-2.933594 2.929687-2.933594 7.679687 0 10.609375 0 0 10.292969 10.292969 10.296875 10.296875 1.425781 1.425781 3.363281 2.140625 5.304688 2.140625zm0 0"/><path d="m209.4375 229.578125c-4.144531-.28125-7.710938 2.847656-7.988281 6.984375-.367188 5.449219 4.386719 8.0625 9.144531 8.0625 8.816406 0 17.425781-3.609375 23.902344-10.082031 7.003906-7.003907 10.652344-16.503907 10.007812-26.066407-.277344-4.132812-3.855468-7.273437-7.988281-6.980468-4.136719.273437-7.261719 3.851562-6.984375 7.988281.351562 5.238281-1.707031 10.503906-5.648438 14.445313-3.941406 3.941406-9.210937 6-14.445312 5.648437zm0 0"/><path d="m314.878906 2.164062c-2.886718-2.882812-7.730468-2.886718-10.617187-.003906l-83.265625 83.265625s-15.09375-15.089843-15.101563-15.101562c-22.5-22.5-60.167969-22.476563-82.644531 0 0 0-52.945312 52.945312-52.96875 52.96875-22.507812 22.507812-22.484375 60.164062 0 82.644531l15.101562 15.101562-24.78125 24.78125c-2.929687 2.933594-2.929687 7.683594 0 10.613282 2.933594 2.929687 7.683594 2.929687 10.613282 0l236.996094-236.996094s73.375 117.164062 73.398437 117.203125c9.25 14.769531 8.742187 34.648437-1.277344 48.910156-1.453125 2.050781-76.695312 77.605469-76.695312 77.605469s-11.117188-11.117188-11.121094-11.121094c-6.570313-6.570312-17.5625-6.5625-24.125 0 0 0-16.390625 16.390625-16.402344 16.402344-6.410156 6.410156-6.421875 17.703125 0 24.121094l11.121094 11.125-32.773437 32.773437s.5625-21.882812.5625-21.910156c-.082032-7.898437-6.339844-14.613281-14.429688-14.40625 0 0-91.316406 2.339844-91.390625 2.339844-12.097656.3125-18.152344 15.457031-9.589844 24.019531l11.359375 11.359375-23.179687 23.175781-84.277344-52.777344 31.179687-31.179687c2.929688-2.929687 2.929688-7.679687 0-10.609375-2.929687-2.929688-7.683593-2.929688-10.613281 0 0 0-37.863281 37.871094-37.875 37.882812-2.78125 2.78125-2.773437 7.757813.007813 10.539063.011718.011719 73.863281 73.863281 73.863281 73.863281l-48.570313 48.570313c-8.066406 8.066406-8.066406 21.191406 0 29.257812 0 0 37.03125 37.03125 37.074219 37.074219 7.980469 7.980469 21.289063 7.972656 29.261719 0l48.566406-48.566406s40.523438 40.523437 40.546875 40.542968c21.832031 21.835938 58.261719 21.816407 80.074219 0l181.257812-181.257812c2.929688-2.929688 2.929688-7.679688 0-10.609375-2.929687-2.929687-7.683593-2.929687-10.609374 0 0 0-181.148438 181.144531-181.257813 181.257813-16.050781 16.046874-42.816406 16.035156-58.851563 0l-40.546874-40.546876 40.285156-40.28125s11.328125 11.328126 11.355468 11.355469c8.414063 8.414063 23.71875 2.273438 24.019532-9.589843l1.222656-47.71875 43.945312-43.941407 11.125 11.121094c6.492188 6.492187 17.625 6.496094 24.121094 0l16.402344-16.40625c6.523438-6.519531 6.53125-17.59375 0-24.121094l-11.121094-11.125s71.753906-71.753906 71.765625-71.761719c19.34375-19.347656 22.851563-50.144531 8.316407-73.332031l-43.289063-69.121093 133.929687 133.929687c16.042969 16.046875 16.027344 42.824219 0 58.855469l-32.402343 32.398437c-2.929688 2.933594-2.929688 7.683594 0 10.613281 2.929687 2.929688 7.683593 2.929688 10.609375 0 0 0 32.386718-32.386718 32.402344-32.402343 21.828124-21.824219 21.808593-58.265625 0-80.074219 0 0-180.6875-180.691406-180.707032-180.710938zm-255.375 348.921876 33.273438 20.835937-6.214844 6.21875zm23.597656 141.957031c-2.191406 2.195312-5.84375 2.191406-8.035156 0l-37.074218-37.074219c-2.214844-2.214844-2.214844-5.820312 0-8.035156l104.769531-104.769532c2.929687-2.929687 2.929687-7.683593 0-10.613281l-15.121094-15.121093 88.230469-2.261719-2.261719 88.230469s-15.117187-15.117188-15.125-15.125c-2.894531-2.894532-7.722656-2.890626-10.613281 0 0 0-104.703125 104.703124-104.769532 104.769531zm215.253907-178.238281c-.777344.78125-2.117188.785156-2.898438 0 0 0-32.855469-32.855469-32.859375-32.855469-.78125-.785157-.78125-2.117188 0-2.902344l16.40625-16.402344c.792969-.792969 2.109375-.789062 2.898438 0 0 0 32.847656 32.847657 32.859375 32.855469.789062.792969.785156 2.113281 0 2.902344zm-176.1875-130.550782s-15.101563-15.101562-15.101563-15.101562c-2.476562-2.476563-2.472656-6.597656 0-9.070313l52.96875-52.96875c2.472656-2.472656 6.605469-2.464843 9.070313 0l15.105469 15.101563zm72.652343-72.648437s-15.089843-15.09375-15.101562-15.105469c-8.253906-8.253906-22.046875-8.246094-30.292969 0 0 0-52.929687 52.933594-52.96875 52.96875-8.25 8.25-8.238281 22.058594 0 30.292969l15.101563 15.105469-15.566406 15.5625s-15.097657-15.097657-15.101563-15.101563c-16.722656-16.722656-16.703125-44.71875 0-61.421875l52.96875-52.96875c16.722656-16.71875 44.71875-16.703125 61.421875 0l15.105469 15.101562zm0 0"/></svg>