<svg height="512pt" viewBox="0 0 512 512.001" width="512pt" xmlns="http://www.w3.org/2000/svg"><path d="m497.570312 221.167969c-9.304687-9.304688-21.671874-14.429688-34.832031-14.429688-13.160156 0-25.53125 5.125-34.832031 14.429688-7.515625 7.511719-12.296875 17.023437-13.863281 27.332031h-53.082031c-1.65625-23.382812-10.980469-44.679688-25.472657-61.382812l37.59375-37.589844c8.160157 5.996094 18.222657 9.546875 29.105469 9.546875 27.164062 0 49.261719-22.097657 49.261719-49.261719s-22.097657-49.261719-49.261719-49.261719-49.265625 22.097657-49.265625 49.261719c0 10.882812 3.554687 20.945312 9.550781 29.109375l-37.589844 37.589844c-16.699218-14.492188-38-23.816407-61.382812-25.472657v-53.082031c10.3125-1.566406 19.824219-6.347656 27.335938-13.859375 19.207031-19.210937 19.207031-50.460937 0-69.667968-9.304688-9.304688-21.675782-14.429688-34.835938-14.429688-13.15625 0-25.527344 5.125-34.832031 14.429688-9.304688 9.304687-14.429688 21.675781-14.429688 34.832031 0 13.160156 5.125 25.53125 14.429688 34.835937 7.511719 7.511719 17.023437 12.292969 27.332031 13.859375v53.085938c-23.382812 1.652343-44.679688 10.976562-61.382812 25.46875l-37.589844-37.589844c5.996094-8.164063 9.550781-18.226563 9.550781-29.105469 0-27.164062-22.101563-49.265625-49.265625-49.265625-27.160156 0-49.261719 22.101563-49.261719 49.265625 0 27.160156 22.101563 49.261719 49.261719 49.261719 10.882812 0 20.945312-3.554687 29.105469-9.550781l37.59375 37.589844c-14.492188 16.703124-23.816407 38-25.46875 61.382812h-53.085938c-1.566406-10.308594-6.347656-19.820312-13.859375-27.332031-9.304687-9.304688-21.675781-14.429688-34.835937-14.429688-26.847657 0-49.261719 22.449219-49.261719 49.261719 0 26.570312 22.269531 49.261719 49.261719 49.261719 23.988281 0 45.089843-18.027344 48.695312-41.761719h53.085938c1.652343 23.382812 10.976562 44.679688 25.46875 61.382812l-37.59375 37.589844c-8.160157-5.996094-18.222657-9.546875-29.105469-9.546875-27.160156 0-49.261719 22.097657-49.261719 49.261719s22.101563 49.261719 49.261719 49.261719c27.164062 0 49.265625-22.097657 49.265625-49.261719 0-10.882812-3.554687-20.945312-9.550781-29.105469l37.589844-37.59375c16.703124 14.492188 38 23.816407 61.382812 25.472657v53.082031c-10.308594 1.566406-19.820312 6.347656-27.332031 13.859375-9.304688 9.308594-14.429688 21.675781-14.429688 34.835937 0 26.824219 22.472657 49.261719 49.261719 49.261719 43.074219.003906 65.164062-53.765625 34.835938-84.097656-7.511719-7.511719-17.027344-12.292969-27.335938-13.859375v-53.082031c23.382812-1.65625 44.679688-10.980469 61.382812-25.472657l37.589844 37.59375c-5.996094 8.160157-9.550781 18.222657-9.550781 29.105469 0 27.164062 22.101563 49.261719 49.265625 49.261719s49.261719-22.097657 49.261719-49.261719-22.097657-49.261719-49.261719-49.261719c-10.882812 0-20.945312 3.550781-29.105469 9.550781l-37.59375-37.59375c14.492188-16.699218 23.816407-38 25.472657-61.382812h53.082031c1.566406 10.3125 6.347656 19.824219 13.863281 27.335938 9.300781 9.304687 21.671875 14.429687 34.832031 14.429687 13.160157 0 25.527344-5.125 34.832031-14.429687 9.304688-9.304688 14.429688-21.675782 14.429688-34.835938 0-13.15625-5.125-25.527344-14.429688-34.832031zm-95.382812-145.617188c18.890625 0 34.261719 15.371094 34.261719 34.265625 0 18.890625-15.371094 34.261719-34.261719 34.261719-18.894531 0-34.265625-15.371094-34.265625-34.261719 0-18.894531 15.371094-34.265625 34.265625-34.265625zm-180.449219-26.289062c0-18.6875 15.589844-34.261719 34.261719-34.261719 29.949219 0 45.332031 37.386719 24.226562 58.488281-6.46875 6.472657-15.070312 10.035157-24.230468 10.035157-18.664063.003906-34.257813-15.632813-34.257813-34.261719zm-146.1875 60.554687c0-18.894531 15.371094-34.265625 34.265625-34.265625 18.890625 0 34.261719 15.371094 34.261719 34.265625 0 18.890625-15.371094 34.261719-34.261719 34.261719-18.894531 0-34.265625-15.371094-34.265625-34.261719zm-26.289062 180.445313c-18.699219 0-34.261719-15.582031-34.261719-34.261719 0-18.683594 15.585938-34.261719 34.261719-34.261719 18.691406 0 34.261719 15.597657 34.265625 34.269531.003906 18.695313-15.589844 34.253907-34.265625 34.253907zm60.554687 146.1875c-18.894531 0-34.265625-15.371094-34.265625-34.265625 0-18.890625 15.371094-34.261719 34.265625-34.261719 18.890625 0 34.261719 15.371094 34.261719 34.261719 0 18.894531-15.371094 34.265625-34.261719 34.265625zm170.410156 50.515625c-6.46875 6.472656-15.074218 10.035156-24.226562 10.035156-18.6875 0-34.261719-15.589844-34.261719-34.261719 0-18.683593 15.589844-34.261719 34.261719-34.261719 9.152344 0 17.753906 3.5625 24.226562 10.035157 13.359376 13.359375 13.359376 35.09375 0 48.453125zm156.222657-84.777344c0 18.890625-15.371094 34.261719-34.265625 34.261719-18.890625 0-34.261719-15.371094-34.261719-34.261719 0-18.894531 15.371094-34.261719 34.261719-34.261719 18.894531 0 34.265625 15.367188 34.265625 34.261719zm-180.449219-55.957031c-49.75 0-90.226562-40.476563-90.226562-90.230469 0-49.75 40.46875-90.222656 90.21875-90.230469h.007812.007812c49.75.003907 90.222657 40.480469 90.222657 90.230469 0 49.753906-40.476563 90.230469-90.230469 90.230469zm230.875-66.09375c-6.234375 6.230469-14.800781 10.125-24.136719 10.125-18.6875 0-34.261719-15.585938-34.261719-34.261719 0-18.691406 15.578126-34.261719 34.261719-34.261719 18.671875 0 34.261719 15.609375 34.261719 34.261719 0 9.34375-3.894531 17.910156-10.125 24.136719zm0 0"/><path d="m199.234375 240.621094c-4.140625 0-7.5 3.359375-7.5 7.5v10.273437c0 4.140625 3.359375 7.5 7.5 7.5 4.144531 0 7.5-3.359375 7.5-7.5v-10.273437c0-4.140625-3.355469-7.5-7.5-7.5zm0 0"/><path d="m312.765625 240.621094c-4.140625 0-7.5 3.359375-7.5 7.5v10.273437c0 4.140625 3.359375 7.5 7.5 7.5s7.5-3.359375 7.5-7.5v-10.273437c0-4.140625-3.359375-7.5-7.5-7.5zm0 0"/><path d="m274.945312 252.03125c-3.117187-2.722656-7.855468-2.40625-10.582031.710938-2.019531 2.3125-5.066406 3.636718-8.363281 3.636718s-6.34375-1.324218-8.363281-3.636718c-2.726563-3.117188-7.464844-3.4375-10.582031-.710938-3.121094 2.726562-3.4375 7.464844-.710938 10.582031 4.867188 5.570313 12.03125 8.765625 19.65625 8.765625s14.789062-3.195312 19.65625-8.765625c2.726562-3.117187 2.410156-7.855469-.710938-10.582031zm0 0"/></svg>