<svg height="511pt" viewBox="-31 1 511 511.999" width="511pt" xmlns="http://www.w3.org/2000/svg"><path d="m311.339844 249.160156c4.144531 0 7.5-3.355468 7.5-7.5v-15.84375c0-4.140625-3.355469-7.5-7.5-7.5-4.140625 0-7.5 3.359375-7.5 7.5v15.84375c0 4.144532 3.359375 7.5 7.5 7.5zm0 0"/><path d="m322.128906 257.449219h-21.578125c-4.144531 0-7.5 3.359375-7.5 7.5 0 4.144531 3.355469 7.5 7.5 7.5h21.578125c4.144532 0 7.5-3.355469 7.5-7.5 0-4.140625-3.355468-7.5-7.5-7.5zm0 0"/><path d="m148.363281 249.160156c4.140625 0 7.5-3.355468 7.5-7.5v-15.84375c0-4.140625-3.359375-7.5-7.5-7.5-4.144531 0-7.5 3.359375-7.5 7.5v15.84375c0 4.144532 3.355469 7.5 7.5 7.5zm0 0"/><path d="m159.152344 257.449219h-21.582032c-4.140624 0-7.5 3.359375-7.5 7.5 0 4.144531 3.359376 7.5 7.5 7.5h21.582032c4.140625 0 7.5-3.355469 7.5-7.5 0-4.140625-3.359375-7.5-7.5-7.5zm0 0"/><path d="m249.363281 251.960938c-3.121093-2.726563-7.859375-2.40625-10.585937.710937-2.15625 2.46875-5.410156 3.882813-8.929688 3.882813-3.515625 0-6.769531-1.414063-8.925781-3.882813-2.726563-3.117187-7.464844-3.4375-10.582031-.710937-3.121094 2.726562-3.4375 7.464843-.710938 10.582031 5.003906 5.726562 12.375 9.011719 20.21875 9.011719 7.847656 0 15.21875-3.285157 20.222656-9.011719 2.726563-3.117188 2.410157-7.855469-.707031-10.582031zm0 0"/><path d="m435.382812 195.652344c-10.144531-57.160156-45.054687-107.414063-96.125-138.164063-3.546874-2.136719-8.15625-.992187-10.292968 2.558594-2.136719 3.546875-.992188 8.15625 2.558594 10.292969 43.136718 25.976562 73.84375 66.910156 86.066406 113.980468-.667969-.242187-1.34375-.46875-2.023438-.683593-4.671875-1.46875-9.566406-2.230469-14.460937-2.253907-1.285157-4.210937-2.730469-8.382812-4.351563-12.507812-1.203125-3.046875-2.570312-6.015625-3.976562-8.972656-.003906-.011719-.011719-.019532-.015625-.03125-9.109375-18.144532-25.496094-40.058594-53.8125-50.164063-34.347657-12.253906-72.351563-2.242187-104.320313 12.28125-1.585937.722657-3.175781 1.457031-4.777344 2.222657-1.605468-.765626-3.195312-1.5-4.78125-2.222657-31.984374-14.53125-69.953124-24.542969-104.320312-12.28125-28.316406 10.105469-44.703125 32.023438-53.820312 50.1875-1.957032 3.898438-3.675782 8.042969-5.207032 12.183594-.125-.003906-.25-.011719-.371094-.015625v-34.269531c34.457032-58.988281 98.832032-95.546875 168.5-95.546875 27.722657 0 54.511719 5.605468 79.621094 16.660156 3.789063 1.667969 8.21875-.050781 9.886719-3.84375 1.667969-3.789062-.050781-8.214844-3.84375-9.882812-27.027344-11.898438-55.847656-17.933594-85.664063-17.933594-66.992187 0-129.460937 31.453125-168.5 83.488281v-93.308594c0-9.609375-7.816406-17.425781-17.425781-17.425781h-10.28125c-9.609375 0-17.425781 7.816406-17.425781 17.425781v173.136719c-9.742188 10.429688-15.71875 24.414062-15.71875 39.777344 0 15.359375 5.976562 29.347656 15.71875 39.773437v43.933594c0 33.921875 27.601562 61.523437 61.527344 61.523437h55.089844c10.765624 6.769532 22.167968 12.34375 34.027343 16.679688-22.441406 13.664062-57.183593 45.597656-57.183593 112.25 0 4.140625 3.355468 7.5 7.5 7.5h225.34375c4.140624 0 7.5-3.359375 7.5-7.5 0-50.300781-20.300782-80.46875-37.332032-96.917969-6.011718-5.804687-12.796875-11.027343-19.890625-15.359375 51.953125-19.039062 92.414063-60.917968 108.277344-112.933594 26.898437-.113281 48.75-22.027343 48.75-48.953124 0-13.539063-5.527344-25.8125-14.445313-34.683594zm-351.125 134.789062h-6.511718c-9.042969 0-16.394532-7.355468-16.394532-16.394531v-25.433594c.140626-.007812.277344-.019531.417969-.023437 5.46875 14.820312 13.015625 28.917968 22.488281 41.851562zm-41.546874-156.15625c-3.917969 1.121094-7.859376 2.722656-11.492188 4.683594v-104.710938h15.132812v99.101563c-.0625.253906-3.351562.84375-3.640624.925781zm-11.492188-156.859375c0-1.339843 1.085938-2.425781 2.425781-2.425781h10.28125c1.335938 0 2.425781 1.085938 2.425781 2.425781v41.832031h-15.132812zm-.714844 180.148438c7.277344-6.300781 16.800782-10.074219 26.476563-10.519531-2.773438 10.40625-4.53125 21.046874-5.253907 31.851562-1.234374 18.367188.519532 36.933594 5.25 54.726562-3.769531-.160156-7.511718-.824218-11.113281-1.953124-.0625-.019532-.121093-.039063-.183593-.0625-17.6875-5.625-30.179688-22.714844-30.179688-41.277344 0-13.074219 5.820312-24.816406 15.003906-32.765625zm.714844 116.472656v-32.339844c1.140625.613281 2.304688 1.179688 3.484375 1.71875 3.726563 1.703125 7.644531 3.011719 11.648437 3.890625v26.730469c0 17.308594 14.082032 31.394531 31.394532 31.394531h96.582031v15.128906h-96.582031c-25.65625 0-46.527344-20.871093-46.527344-46.523437zm233.722656 182.953125h-9.808594l-5.875-69.058594 5.234376-4.816406c5.058593-4.65625 7.960937-11.269531 7.960937-18.144531v-4.535157c.832031-.148437 1.660156-.289062 2.488281-.449218zm-49.574218-84.910156c-1.984376-1.824219-3.121094-4.417969-3.121094-7.113282v-2.472656c.0625.007813.128906.011719.191406.015625 5.726562.535157 11.609375.820313 17.410156.820313 5.875 0 11.753906-.28125 17.605469-.839844v2.476562c0 2.695313-1.136719 5.289063-3.121094 7.113282l-5.785156 5.324218h-17.394531zm-58.472657 6.804687c8.296875-8.136719 16.679688-13.476562 22.867188-16.742187v94.847656h-54.917969c1.421875-32.378906 12.1875-58.628906 32.050781-78.105469zm37.867188-18.90625c.828125.160157 1.65625.320313 2.484375.46875v4.523438c0 6.875 2.902344 13.488281 7.964844 18.148437l5.234374 4.816406-5.878906 69.054688h-9.804687zm24.859375 97.011719 5.496094-64.585938h9.46875l5.496093 64.585938zm115.238281 0h-54.917969v-94.878906c6.019532 3.175781 14.148438 8.347656 22.328125 16.25 20.207031 19.519531 31.152344 45.945312 32.589844 78.628906zm-71.238281-112.054688c-24.523438 4.992188-50.25 4.453126-74.542969-1.5625-8.101563-2.011718-16.027344-4.617187-23.71875-7.8125h58.402344c9.152343 0 16.601562-7.449218 16.601562-16.601562v-11.925781c0-9.152344-7.449219-16.601563-16.601562-16.601563h-120.417969c-21.609375-25.476562-34.402344-56.882812-36.652344-89.671875-.007812-.109375-.015625-.21875-.023437-.332031-.695313-10.449219-.308594-20.96875 1.136719-31.339844 4.65625-33.351562 20.410156-68.761718 52.871093-83.207031 34.128907-15.191406 73.746094-2.351563 105.359375 13.132813 2.28125 1.117187 4.785156 1.417968 7.128906.25 31.761719-15.882813 71.445313-28.652344 105.882813-13.375 26.417969 11.765624 42.097656 38.25 49.238281 65.253906 6.164063 23.3125 6.707032 48.035156 1.617188 71.601562-13.234375 61.085938-63.09375 109.320313-126.28125 122.191406zm-74.289063-39.503906h34.429688c.882812 0 1.601562.71875 1.601562 1.601563v11.925781c0 .882812-.71875 1.601562-1.601562 1.601562h-34.429688zm215.644531-81.390625c.1875-.914062.351563-1.832031.523438-2.75 3.964844-21.207031 3.820312-43.417969-.515625-64.664062.105469.015625.210937.023437.316406.039062 5.859375.773438 11.503907 3.113281 16.199219 6.707031 8.273438 6.339844 13.328125 16.460938 13.328125 26.957032 0 17.335937-13.054687 31.675781-29.851563 33.710937zm0 0"/></svg>