<svg height="512pt" viewBox="0 0 511 512" width="512pt" xmlns="http://www.w3.org/2000/svg"><path d="m170.753906 316.566406c-2.929687 2.929688-2.929687 7.679688 0 10.609375l9.5 9.5c2.816406 2.816407 7.671875 2.929688 10.605469 0 2.929687-2.929687 2.929687-7.679687 0-10.609375l-9.5-9.5c-2.929687-2.925781-7.679687-2.925781-10.605469 0zm0 0"/><path d="m290.539062 233.816406c1.929688.003906 3.871094-.691406 5.304688-2.125 2.929688-2.929687 2.929688-7.675781 0-10.605468l-9.5-9.5c-2.929688-2.929688-7.679688-2.929688-10.605469 0-2.929687 2.929687-2.929687 7.675781 0 10.605468 0 0 9.492188 9.496094 9.5 9.5 1.398438 1.398438 3.34375 2.121094 5.300781 2.125zm0 0"/><path d="m224.933594 283.691406c-4.140625-.289062-7.707032 2.847656-7.984375 6.980469-.277344 4.132813 2.847656 7.707031 6.980469 7.984375 8.960937.601562 18.066406-2.976562 24.492187-9.402344 6.582031-6.578125 10.007813-15.507812 9.40625-24.492187-.277344-4.132813-3.851563-7.273438-7.988281-6.980469-4.132813.277344-7.257813 3.851562-6.980469 7.984375.3125 4.667969-1.523437 9.363281-5.042969 12.882813-3.519531 3.519531-8.21875 5.355468-12.882812 5.042968zm0 0"/><path d="m485.121094 358.582031c-17.40625-16.734375-40.691406-25.597656-65.210938-24.664062l-63.945312-63.941407 48.648437-48.648437c5.304688 3.347656 11.453125 5.148437 17.882813 5.148437 8.980468 0 17.429687-3.5 23.78125-9.851562 10.941406-10.941406 12.964844-28.5625 4.707031-41.664062l40.746094-40.75c15.074219-15.070313 15.074219-39.597657 0-54.671876 0 0-58.722657-58.722656-58.769531-58.769531-14.910157-14.910156-39.78125-14.894531-54.671876 0l-40.757812 40.753907c-12.984375-8.152344-30.367188-6.589844-41.65625 4.699218-10.949219 10.949219-12.972656 28.546875-4.707031 41.664063l-48.644531 48.644531-63.84375-63.839844c.992187-24.855468-8.378907-48.953125-26.011719-66.589844-16.835938-16.832031-39.214844-26.101562-63.019531-26.101562-4.820313 0-9.675782.394531-14.425782 1.167969-12.214844 1.992187-17.121094 17.53125-8.394531 26.257812 0 0 26.648437 26.648438 26.675781 26.675781 3.777344 3.777344 3.769532 10.128907 0 13.894532 0 0-24.988281 24.988281-25.007812 25.011718-3.796875 3.792969-10.101563 3.789063-13.894532 0 0 0-26.644531-26.644531-26.675781-26.675781-8.773437-8.777343-24.273437-3.796875-26.265625 8.421875-4.710937 28.945313 5.089844 58.351563 26.214844 78.667969 16.59375 15.953125 38.527344 24.738281 61.761719 24.742187 2.890625 0 5.800781-.140624 8.691406-.421874l61.492187 61.492187s-116.523437 116.523437-116.527343 116.527344c-.835938.835937-1.367188 1.824219-1.804688 2.910156 0 0-31.148437 92.765625-31.210937 93.28125-3.542969 28.59375 21.734375 53.734375 50.269531 50.269531.507813-.0625 93.023437-31.125 93.023437-31.125 1.371094-.402344 2.574219-1.183594 3.5-2.222656l46.519532-46.519531c2.925781-2.929688 2.925781-7.675781 0-10.605469-2.929688-2.929688-7.679688-2.929688-10.605469 0l-41.546875 41.546875-92.230469-92.234375 241.972657-241.972656 92.230468 92.230468-179.371094 179.371094c-2.929687 2.929688-2.929687 7.675782 0 10.605469 2.929688 2.929687 7.679688 2.929687 10.605469 0l48.621094-48.617187 61.40625 61.40625c-2.667969 26.730468 6.570313 52.722656 25.660156 71.8125 16.832031 16.832031 39.210938 26.101562 63.019531 26.101562 4.820313 0 9.671876-.394531 14.425782-1.167969 12.234375-1.996093 17.121094-17.527343 8.390625-26.257812 0 0-26.65625-26.652344-26.675781-26.675781-3.792969-3.792969-3.785157-10.105469 0-13.894532 0 0 24.988281-24.984375 25.011718-25.007812 3.789063-3.789063 10.105469-3.789063 13.894532 0 0 0 26.652343 26.652344 26.671874 26.671875 8.765626 8.769531 24.273438 3.816406 26.265626-8.421875 4.710937-28.945313-5.089844-58.351563-26.214844-78.664063zm-427.097656 128.828125c-9.554688.933594-19.136719-2.859375-25.5-10.042968-5.636719-6.355469-8.261719-14.460938-7.433594-22.890626l5.878906-17.492187 44.542969 44.542969zm79.554687-26.761718-46.191406 15.542968-55.078125-55.082031 15.542968-46.191406zm168.902344-383.820313c7.195312-7.195313 19.164062-7.1875 26.351562 0l22.015625 22.015625c2.929688 2.925781 7.675782 2.925781 10.605469 0 2.929687-2.929688 2.929687-7.679688 0-10.609375l-16.710937-16.707031s40.109374-40.113282 40.152343-40.152344c9.117188-9.121094 24.347657-9.109375 33.457031 0l58.773438 58.773438c9.222656 9.222656 9.222656 24.234374 0 33.457031l-40.152344 40.152343-54.671875-54.675781c-2.929687-2.929687-7.679687-2.929687-10.605469 0-2.929687 2.929688-2.929687 7.679688 0 10.605469l59.976563 59.980469c7.265625 7.265625 7.265625 19.085937 0 26.351562-7.265625 7.261719-19.085937 7.261719-26.351563 0 0 0-102.730468-102.734375-102.835937-102.839843-7.1875-7.1875-7.179687-19.175782-.003906-26.351563zm-200.113281 87.738281c-3.984376-3.984375-11.757813-1.40625-16.730469-1.40625-19.335938 0-37.578125-7.300781-51.363281-20.554687-17.574219-16.898438-25.726563-41.363281-21.804688-65.441407.066406-.410156.589844-.488281.851562-.226562 0 0 26.664063 26.664062 26.675782 26.675781 9.566406 9.566407 25.550781 9.554688 35.105468 0 0 0 25-25 25.011719-25.011719 9.566407-9.570312 9.558594-25.546874 0-35.105468 0 0-26.613281-26.613282-26.679687-26.675782-.253906-.253906-.1875-.785156.203125-.847656 3.957031-.644531 7.996093-.972656 12.011719-.972656 19.796874 0 38.410156 7.710938 52.410156 21.707031 15.355468 15.355469 23.179687 36.609375 21.460937 58.3125-.175781 2.1875.621094 4.34375 2.171875 5.894531l66.222656 66.222657-61.488281 61.492187s-63.96875-63.972656-64.058593-64.0625zm390.164062 270.269532c-.066406.410156-.59375.488281-.855469.226562 0 0-26.65625-26.660156-26.671875-26.675781-9.574218-9.574219-25.542968-9.566407-35.105468 0 0 0-24.996094 24.996093-25.011719 25.011719-9.5625 9.566406-9.550781 25.554687 0 35.105468 0 0 26.613281 26.613282 26.675781 26.675782.253906.253906.1875.785156-.199219.847656-3.957031.644531-7.996093.972656-12.011719.972656-19.800781 0-38.414062-7.710938-52.414062-21.707031-16.621094-16.625-24.261719-39.542969-20.957031-62.878907.332031-2.335937-.457031-4.6875-2.121094-6.355468l-63.988281-63.984375 61.488281-61.488281s66.257813 66.253906 66.320313 66.316406c3.175781 3.175781 7.683593 1.953125 11.691406 1.953125 19.339844 0 37.578125 7.292969 51.351562 20.539062 17.574219 16.898438 25.726563 41.363281 21.808594 65.441407zm0 0"/></svg>