<svg height="512pt" viewBox="-8 0 512 512.001" width="512pt" xmlns="http://www.w3.org/2000/svg"><path d="m295.109375 254.847656c4.144531 0 7.5-3.359375 7.5-7.5v-15.5c0-4.144531-3.355469-7.5-7.5-7.5-4.140625 0-7.5 3.355469-7.5 7.5v15.5c0 4.140625 3.359375 7.5 7.5 7.5zm0 0"/><path d="m313.167969 270.132812c0-4.140624-3.359375-7.5-7.5-7.5h-21.113281c-4.144532 0-7.5 3.359376-7.5 7.5 0 4.144532 3.355468 7.5 7.5 7.5h21.113281c4.140625 0 7.5-3.355468 7.5-7.5zm0 0"/><path d="m135.65625 254.847656c4.144531 0 7.5-3.359375 7.5-7.5v-15.5c0-4.144531-3.355469-7.5-7.5-7.5-4.140625 0-7.5 3.355469-7.5 7.5v15.5c0 4.140625 3.359375 7.5 7.5 7.5zm0 0"/><path d="m146.214844 262.632812h-21.113282c-4.144531 0-7.5 3.359376-7.5 7.5 0 4.144532 3.355469 7.5 7.5 7.5h21.113282c4.140625 0 7.5-3.355468 7.5-7.5 0-4.140624-3.359375-7.5-7.5-7.5zm0 0"/><path d="m234.578125 257.300781c-3.117187-2.726562-7.855469-2.40625-10.582031.710938-2.078125 2.382812-5.21875 3.746093-8.613282 3.746093-3.394531 0-6.53125-1.363281-8.613281-3.746093-2.726562-3.117188-7.464843-3.4375-10.582031-.710938-3.117188 2.726563-3.4375 7.464844-.710938 10.585938 4.929688 5.636719 12.183594 8.871093 19.90625 8.871093 7.722657 0 14.980469-3.234374 19.90625-8.871093 2.726563-3.121094 2.410157-7.859375-.710937-10.585938zm0 0"/><path d="m395.9375 312.757812c-23.449219 0-42.523438 19.078126-42.523438 42.523438 0 23.449219 19.074219 42.527344 42.523438 42.527344s42.523438-19.078125 42.523438-42.527344c0-23.445312-19.074219-42.523438-42.523438-42.523438zm0 70.050782c-15.179688 0-27.523438-12.347656-27.523438-27.527344 0-15.175781 12.347657-27.523438 27.523438-27.523438s27.523438 12.347657 27.523438 27.523438c0 15.179688-12.347657 27.527344-27.523438 27.527344zm0 0"/><path d="m482.398438 329.152344h-4.550782c-1.460937-4.585938-3.304687-9.039063-5.515625-13.3125 0 0 3.214844-3.210938 3.21875-3.214844 5.234375-5.238281 5.230469-13.988281 0-19.21875 0 0-17.714843-17.714844-17.738281-17.734375-5.242188-5.242187-13.980469-5.238281-19.214844 0l-3.21875 3.214844c-4.273437-2.210938-8.726562-4.054688-13.3125-5.515625v-4.546875c0-1.433594-.226562-2.816407-.640625-4.117188 6.050781-8.214843 9.339844-18.113281 9.339844-28.4375 0-13.273437-5.40625-25.304687-14.136719-34.007812-7.046875-39.605469-26.445312-76.269531-55.355468-105.03125 13.378906-10.097657 21.613281-26.128907 21.613281-43.199219 0-29.792969-24.238281-54.03125-54.03125-54.03125-27.140625 0-49.664063 20.121094-53.457031 46.226562-19.308594-5.792968-39.523438-8.820312-60.015626-8.820312-35.199218 0-69.933593 8.90625-100.441406 25.75-3.625 2-4.941406 6.5625-2.941406 10.191406 2.003906 3.625 6.566406 4.941406 10.191406 2.9375 28.296875-15.621094 60.519532-23.878906 93.191406-23.878906 83.902344 0 161.960938 56.703125 183.4375 138.582031-.371093-.132812-.746093-.25-1.121093-.371093-4.71875-1.550782-9.679688-2.371094-14.644531-2.40625-.257813-.003907-1.832032-5.636719-2.03125-6.214844-1.75-5.015625-3.71875-9.960938-6.09375-14.714844-.003907-.007812-.007813-.019531-.015626-.027344-8.925781-17.78125-24.984374-39.257812-52.734374-49.15625-28.324219-10.109375-59.398438-4.671875-86.84375 5.644532-6.769532 2.542968-13.425782 5.402343-19.957032 8.511718-32.425781-15.453125-71.550781-26.734375-106.789062-14.15625-27.753906 9.902344-43.8125 31.375-52.738282 49.15625-.003906.007813-5.953124 13.804688-8.140624 20.957032-4.957032.035156-9.890626.847656-14.601563 2.390624-.390625.128907-.785156.253907-1.175781.390626 10.28125-39.394532 33.78125-74.390626 67.335937-99.800782 3.300781-2.5 3.953125-7.203125 1.449219-10.507812-2.5-3.300782-7.203125-3.953125-10.503906-1.449219-40.476563 30.648437-67.414063 74.261719-76.078125 123.023437-8.726563 8.707032-14.136719 20.738282-14.136719 34.011719 0 26.394531 21.386719 47.878907 47.738281 48.054688 15.523438 50.777343 54.988281 91.671875 105.667969 110.359375-5.832031 3.578125-12.511719 8.433594-19.1875 14.878906-16.683594 16.117188-36.570312 45.667969-36.570312 94.9375 0 4.144531 3.355468 7.5 7.5 7.5h220.46875c4.140624 0 7.5-3.355469 7.5-7.5 0-64.980469-33.617188-96.25-55.78125-109.777344 10.011718-3.679687 19.683593-8.265625 28.90625-13.714844 1.039062.257813 2.117187.40625 3.234374.40625h4.546876c1.460937 4.585938 3.304687 9.035157 5.515624 13.3125 0 0-3.214843 3.214844-3.214843 3.214844-5.242188 5.242188-5.234375 13.984375 0 19.21875 0 0 17.722656 17.722656 17.734375 17.734375 5.242187 5.242188 13.984375 5.238281 19.21875 0l3.214844-3.214843c4.277343 2.210937 8.726562 4.054687 13.3125 5.515624v4.546876c0 7.492187 6.097656 13.585937 13.589843 13.585937h25.082031c7.492188 0 13.589844-6.09375 13.589844-13.585937v-4.546876c4.585938-1.460937 9.035156-3.304687 13.3125-5.515624 0 0 3.214844 3.214843 3.214844 3.214843 5.246094 5.246094 13.976562 5.242188 19.214844 0 0 0 17.714844-17.710937 17.738281-17.734375 5.234375-5.234375 5.230469-13.988281 0-19.21875l-3.214844-3.214844c2.210938-4.277343 4.054688-8.726562 5.515625-13.3125h4.546875c7.492188 0 13.589844-6.097656 13.589844-13.589843v-25.085938c0-7.492187-6.097656-13.585937-13.585937-13.585937zm-192.464844-278.019532c1.488281-20.175781 18.375-36.132812 38.921875-36.132812 21.523437 0 39.03125 17.507812 39.03125 39.027344 0 13.273437-6.886719 25.683594-17.886719 32.808594-.101562-.089844-8.3125-6.820313-12.492188-9.867188-14.609374-10.660156-30.527343-19.320312-47.574218-25.835938zm99.179687 204.011719c.714844-6.261719 1.089844-12.570312 1.089844-18.875 0-11.105469-1.09375-22.054687-3.269531-32.785156.0625.007813.125.011719.1875.019531 16.117187 2.15625 28.644531 16.425782 28.644531 32.765625 0 6.875-2.113281 13.480469-6.027344 19.023438-.417969-.039063-20.636719-.058594-20.636719-.058594.003907-.03125.007813-.058594.011719-.089844zm-345.269531 13.917969c-16.246094-2.078125-28.839844-15.992188-28.839844-32.792969 0-16.394531 12.585938-30.675781 28.832032-32.785156-2.171876 10.726563-3.269532 21.679687-3.269532 32.785156 0 10.980469 1.097656 22.027344 3.277344 32.792969zm197.796875 134.722656c-1.21875 1.746094-2.535156 3.554688-3.929687 5.351563-8.566407 11.042969-16.707032 17.375-22.328126 17.375-7.617187 0-18.03125-10.917969-26.320312-22.730469.160156.023438.324219.042969.484375.066406 8.789063 1.257813 17.636719 1.832032 26.507813 1.832032 8.429687 0 16.804687-.722657 25.152343-1.835938.144531-.019531.289063-.039062.433594-.058594zm-97.550781 17.109375c8.007812-7.863281 16.101562-13.054687 22.125-16.257812v92.363281h-53.398438c1.421875-31.539062 11.921875-57.117188 31.273438-76.105469zm37.125-2.554687c11.933594 15.375 23.425781 23.171875 34.167968 23.171875 10.746094 0 22.238282-7.800781 34.167969-23.175781v78.664062h-68.335937zm136.738281 78.660156h-53.402344v-92.363281c6.019531 3.203125 14.105469 8.386719 22.105469 16.234375 19.363281 18.992187 29.875 44.578125 31.296875 76.128906zm-64.417969-110.761719c-23.234375 5.5-47.714844 5.898438-71.117187 1.144531-60.6875-12.347656-108.804688-58.058593-122.753907-116.28125-5.734374-23.941406-5.421874-49.335937.871094-73.132812 6.820313-25.796875 21.273438-50.949219 46.199219-62.867188.0625-.027343.121094-.058593.183594-.085937 27.125-12.96875 58.925781-6.726563 85.734375 3.71875 6.570312 2.558594 13.019531 5.4375 19.347656 8.546875.023438.015625.046875.023438.070312.035156 2.078126 1.015625 4.554688 1.023438 6.625 0 .023438-.011718.046876-.023437.070313-.035156 6.253906-3.058594 12.785156-5.988281 19.34375-8.546875 26.96875-10.503906 58.667969-16.660156 85.921875-3.632813 33.878906 16.300782 48.449219 55.824219 50.828125 91.09375.753906 11.175782.238281 22.429688-1.507813 33.492188-2.242187 2.46875-3.546874 5.796875-3.546874 9.136719v4.546875c-4.585938 1.460937-9.035157 3.304687-13.308594 5.515625 0 0-3.214844-3.214844-3.21875-3.21875-5.191406-5.191407-14.035156-5.179688-19.214844 0 0 0-17.703125 17.703125-17.75 17.75-5.046875 5.171875-5.121094 14.074219.011719 19.203125l3.214843 3.21875c-2.210937 4.273437-4.054687 8.726562-5.515624 13.3125h-4.546876c-7.492187 0-13.589843 6.09375-13.589843 13.585937v25.085938c0 .601562.039062 1.207031.121093 1.804687-13.304687 7.523438-27.601562 13.089844-42.472656 16.609375zm227.449219-19.824219h-8.816406c-3.457031 0-6.46875 2.363282-7.289063 5.722657-1.714844 7.054687-4.5 13.773437-8.273437 19.976562-1.796875 2.953125-1.339844 6.753907 1.105469 9.199219l6.234374 6.238281-15.742187 15.738281-6.234375-6.234374c-2.445312-2.445313-6.246094-2.898438-9.203125-1.105469-6.199219 3.773437-12.917969 6.558593-19.972656 8.277343-3.359375.816407-5.726563 3.828126-5.726563 7.285157v8.816406h-22.257812v-8.816406c0-3.457031-2.367188-6.46875-5.726563-7.285157-7.054687-1.71875-13.773437-4.503906-19.972656-8.277343-2.957031-1.792969-6.757813-1.339844-9.203125 1.105469l-6.238281 6.234374-15.738281-15.738281 6.234374-6.238281c2.445313-2.445312 2.902344-6.246094 1.105469-9.199219-3.773437-6.203125-6.558593-12.921875-8.273437-19.976562-.820313-3.359375-3.832032-5.722657-7.289063-5.722657h-8.816406v-22.261718h8.816406c3.457031 0 6.46875-2.367188 7.289063-5.726563 1.714844-7.054687 4.5-13.773437 8.273437-19.972656 1.796875-2.957031 1.339844-6.757813-1.105469-9.203125l-6.234374-6.234375 15.738281-15.742187 6.238281 6.238281c2.445312 2.445312 6.246094 2.898437 9.203125 1.101562 6.105469-3.71875 12.957031-6.5625 19.972656-8.273437 3.359375-.816406 5.726563-3.828125 5.726563-7.285156 0-2.941407 0-5.878907 0-8.820313h22.257812v8.820313c0 3.457031 2.367188 6.46875 5.726563 7.285156 7.054687 1.71875 13.773437 4.5 19.972656 8.273437 2.957031 1.796875 6.757813 1.34375 9.203125-1.101562l6.238281-6.238281 15.738281 15.742187-6.234374 6.234375c-2.445313 2.445312-2.902344 6.246094-1.105469 9.203125 3.773437 6.199219 6.558593 12.917969 8.273437 19.972656.820313 3.359375 3.832032 5.726563 7.289063 5.726563h8.816406zm0 0"/></svg>