<svg height="511pt" viewBox="-15 0 511 511.99838" width="511pt" xmlns="http://www.w3.org/2000/svg"><path d="m312.296875 239.921875c4.144531 0 7.5-3.359375 7.5-7.5v-16.402344c0-4.140625-3.355469-7.5-7.5-7.5-4.140625 0-7.5 3.359375-7.5 7.5v16.402344c0 4.140625 3.359375 7.5 7.5 7.5zm0 0"/><path d="m323.46875 249.03125h-22.339844c-4.140625 0-7.5 3.355469-7.5 7.5 0 4.140625 3.359375 7.5 7.5 7.5h22.339844c4.140625 0 7.5-3.359375 7.5-7.5 0-4.144531-3.359375-7.5-7.5-7.5zm0 0"/><path d="m143.589844 239.921875c4.140625 0 7.5-3.359375 7.5-7.5v-16.402344c0-4.140625-3.359375-7.5-7.5-7.5s-7.5 3.359375-7.5 7.5v16.402344c0 4.140625 3.359375 7.5 7.5 7.5zm0 0"/><path d="m154.757812 249.03125h-22.339843c-4.140625 0-7.496094 3.355469-7.496094 7.5 0 4.140625 3.355469 7.5 7.496094 7.5h22.339843c4.144532 0 7.5-3.359375 7.5-7.5 0-4.144531-3.355468-7.5-7.5-7.5zm0 0"/><path d="m247.96875 243.28125c-3.121094-2.726562-7.859375-2.40625-10.582031.710938-2.285157 2.613281-5.726563 4.113281-9.441407 4.113281-3.714843 0-7.160156-1.5-9.441406-4.113281-2.726562-3.117188-7.464844-3.4375-10.582031-.710938-3.121094 2.726562-3.4375 7.464844-.710937 10.582031 5.132812 5.875 12.6875 9.242188 20.734374 9.242188 8.042969 0 15.601563-3.371094 20.734376-9.242188 2.722656-3.117187 2.40625-7.855469-.710938-10.582031zm0 0"/><path d="m444.367188 252.171875c7.09375-8.847656 11.023437-19.859375 11.023437-31.472656 0-20.496094-12.300781-38.160157-29.902344-46.035157-3.027343-37.757812-12.738281-104.070312-43.800781-156.578124-8.296875-14.023438-24.539062-20.867188-40.410156-17.03125-20.078125 4.847656-61.4375 12.554687-112.914063 9.6875-.140625-.007813-.277343-.011719-.417969-.011719-39.4375 0-78.058593 10.515625-111.6875 30.414062-3.5625 2.109375-4.742187 6.710938-2.632812 10.273438 2.109375 3.566406 6.707031 4.746093 10.273438 2.636719 31.257812-18.496094 67.160156-28.289063 103.839843-28.324219 50.625 2.796875 91.59375-3.945313 117.0625-10.097657 9.421875-2.277343 19.0625 1.777344 23.980469 10.089844 12.691406 21.457032 34.4375 68.207032 41.316406 144.820313-1.09375-.113281-4.484375-.257813-5.074218-.261719-.90625-2.992188-2.976563-8.949219-2.984376-8.964844-1.625-4.578125-5.683593-13.433594-5.691406-13.449218-9.410156-18.738282-26.328125-41.363282-55.554687-51.792969-35.363281-12.617188-73.96875-2.472657-106.96875 12.335937-1.972657.886719-3.929688 1.789063-5.875 2.71875-2.039063-.972656-4.09375-1.917968-6.15625-2.84375-32.789063-14.722656-71.570313-24.742187-106.691407-12.210937-29.234374 10.433593-46.15625 33.070312-55.570312 51.820312-2.179688 4.34375-4.015625 8.855469-5.675781 13.417969-.007813.023438-2.078125 5.984375-2.984375 8.96875-.804688.003906-1.605469.023438-2.40625.0625-4.816406.234375-9.625 1.164062-14.175782 2.761719-.335937.117187-.710937.25-1.0625.378906 10.339844-40.21875 33.777344-76.398437 67.148438-103.171875 3.230469-2.59375 3.75-7.3125 1.15625-10.542969-2.589844-3.230469-7.308594-3.75-10.542969-1.15625-40.058593 32.140625-66.816406 76.921875-75.5625 126.316407-9.210937 9.140624-14.925781 21.796874-14.925781 35.769531 0 27.792969 22.605469 50.402343 50.394531 50.414062 16.410157 54.019531 58.476563 97.484375 112.480469 117.097657-6.355469 3.835937-13.742188 9.125-21.097656 16.25-17.546875 16.988281-38.464844 48.132812-38.464844 100.039062 0 4.140625 3.359375 7.5 7.5 7.5h233.265625c4.144531 0 7.5-3.359375 7.5-7.5 0-20.695312-3.320313-39.746094-9.871094-56.625-1.5-3.859375-5.84375-5.777344-9.707031-4.277344-3.859375 1.5-5.777344 5.84375-4.277344 9.703125 5.085938 13.109375 8.003906 27.78125 8.695313 43.699219h-79.519531l-9.476563-72 5.355469-4.929688c5.183594-4.769531 8.15625-11.546874 8.15625-18.589843v-4.914063c3.414062-.605468 6.804687-1.296875 10.167968-2.089844 6.175782 2.410157 27.042969 11.824219 43.414063 34.421876 2.429687 3.355468 7.117187 4.105468 10.472656 1.675781 3.355469-2.429688 4.105469-7.117188 1.675781-10.472657-11.269531-15.558593-24.273437-25.636718-34.578124-31.867187 19.914062-7.210937 38.511718-17.773437 54.976562-31.378906 6.855469 9.855469 16.074219 17.941406 26.832031 23.449219v99.320312c0 19.183594 23.085938 30.183594 37.988281 18.125 0 0 20.058594-16.234375 20.0625-16.238281 8.925782-7.226563 9.675782-21.015625 1.585938-29.164063-1.804688-1.820312-1.804688-4.78125 0-6.597656 8.410156-8.476562 8.398438-21.160156 0-29.707031-1.804688-1.816407-1.804688-4.777344 0-6.597657 7.25-7.300781 9.183594-18.597656 2.402344-27.109374 25.964844-11.214844 44.183594-37.066407 44.183594-67.097657-.003907-26.867187-14.589844-50.375-36.25-63.066406zm-3.972657-31.472656c0 9.484375-3.734375 18.402343-10.363281 25.023437-.105469-.035156-12.523438-3.132812-18.792969-3.449218-.035156-.003907-.066406-.003907-.101562-.007813.886719-7.148437 1.339843-14.359375 1.339843-21.566406 0-11.914063-1.199218-23.664063-3.570312-35.171875 1.441406.164062 6.152344 1.21875 6.972656 1.484375 14.210938 4.609375 24.515625 17.964843 24.515625 33.6875zm-393.402343 35.203125c-17.691407-1.957032-31.496094-16.996094-31.496094-35.203125 0-17.71875 13.628906-32.652344 30.964844-35.128907.175781-.023437.351562-.042968.527343-.0625-2.375 11.511719-3.574219 23.269532-3.574219 35.191407 0 11.808593 1.195313 23.636719 3.578126 35.203125zm105.304687 159.738281c13.480469-13.199219 27.175781-19.292969 31.980469-21.160156 2.621094.617187 9.421875 1.953125 10.179687 2.085937v4.914063c0 7.042969 2.972657 13.820312 8.160157 18.59375l5.351562 4.925781-9.476562 72h-79.523438c1.425781-33.742188 12.621094-61.089844 33.328125-81.359375zm61.324219 81.359375 8.347656-63.402344c1.941406.472656 3.972656.710938 5.976562.710938 2 0 4.03125-.242188 5.976563-.710938l8.34375 63.402344zm32.808594-98.367188c0 3.9375-.214844 7.550782-3.316407 10.402344 0 0-8.210937 7.558594-8.21875 7.5625-3.882812 3.574219-10.023437 3.574219-13.902343 0 0 0-8.21875-7.558594-8.222657-7.5625-3.054687-2.8125-3.3125-6.519531-3.3125-10.40625 6.082031.585938 12.246094.894532 18.484375.894532 6.171875-.003907 12.347656-.300782 18.488282-.890626zm23.820312-19.261718c-.019531.003906-.042969.007812-.066406.011718-25.125 6.28125-51.851563 6.785157-77.214844 1.625-64.371094-13.101562-115.414062-61.589843-130.207031-123.359374-7.882813-32.902344-5.691407-69.390626 8.800781-100.199219 9.089844-19.324219 23.59375-36.417969 43.421875-45.1875 35.664063-15.765625 76.601563-2.117188 109.574219 13.898437 2.128906 1.03125 4.644531 1.039063 6.769531 0 6.714844-3.304687 13.566406-6.355468 20.542969-9.078125 27.886718-10.855469 60.570312-17.386719 89.058594-4.808593 27.578124 12.207031 43.832031 39.652343 51.273437 67.792968 5.378906 20.339844 6.644531 41.730469 3.746094 62.566406-.023438.164063-.046875.328126-.070313.488282-15.96875 2.578125-30.835937 10.558594-41.847656 22.398437-12.433594 13.371094-19.539062 31.464844-19.539062 49.71875 0 9.671875 1.933593 19.320313 5.683593 28.234375-20.253906 17.3125-44.179687 29.511719-69.925781 35.898438zm150.023438 7.804687s4.085937 4.117188 4.089843 4.121094c2.472657 2.492187 1.09375 5.492187-.980469 7.585937-7.589843 7.644532-7.589843 20.082032 0 27.726563 2.835938 2.863281 2.730469 5.824219 0 8.574219-7.589843 7.644531-7.589843 20.085937 0 27.730468 1.894532 1.910157 1.773438 5.199219-.378906 6.9375 0 0-20.046875 16.226563-20.0625 16.242188-5.378906 4.351562-13.554687.421875-13.554687-6.46875v-93.601562c1.894531.484374 3.816406.867187 5.75 1.199218v73.285156c0 4.140626 3.359375 7.496094 7.5 7.496094 4.144531 0 7.5-3.355468 7.5-7.496094v-72.273437c3.394531-.117187 6.792969-.464844 10.136719-1.058594zm.484374-15.410156c-25.878906 6.019531-53.140624-6.789063-65.085937-30.511719-18.683594-37.105468 8.4375-82.089844 49.589844-84.015625 32.472656-1.519531 60.351562 25.703125 60.351562 58 0 27.472657-19.183593 50.53125-44.855469 56.527344zm0 0"/><path d="m407.554688 284.964844c-16.695313 0-30.273438 13.582031-30.273438 30.273437 0 16.691407 13.578125 30.273438 30.273438 30.273438 16.691406 0 30.273437-13.582031 30.273437-30.273438 0-16.691406-13.582031-30.273437-30.273437-30.273437zm0 45.546875c-8.421876 0-15.273438-6.851563-15.273438-15.273438s6.851562-15.273437 15.273438-15.273437c8.421874 0 15.273437 6.851562 15.273437 15.273437s-6.851563 15.273438-15.273437 15.273438zm0 0"/></svg>